<svg width="23" height="18" viewBox="0 0 23 18" fill="none" xmlns="http://www.w3.org/2000/svg">
<g clip-path="url(#clip0_116_233)">
<g clip-path="url(#clip1_116_233)">
<g opacity="0.5">
<path d="M17.94 18C16.5294 18 15.3334 17.5048 14.352 16.5146C13.3706 15.466 12.88 14.068 12.88 12.3204C12.88 9.81553 13.2786 7.7767 14.076 6.20389C14.8734 4.57281 15.7626 3.29126 16.744 2.35923C17.848 1.31068 19.1666 0.524272 20.7 0L21.62 1.39806C20.5774 1.86408 19.6574 2.41747 18.86 3.05826C18.1854 3.64078 17.5414 4.33981 16.928 5.15534C16.376 5.91263 16.1 6.84466 16.1 7.95146C16.1 8.35922 16.1614 8.67961 16.284 8.91262C16.3454 9.08738 16.4374 9.20388 16.56 9.26214C16.6826 9.20388 16.8666 9.14564 17.112 9.08738C17.296 9.02912 17.48 8.97087 17.664 8.91262C17.9094 8.85437 18.1546 8.82524 18.4 8.82524C19.8106 8.82524 20.9146 9.233 21.712 10.0485C22.5706 10.8058 23 11.8544 23 13.1942C23 14.5339 22.5094 15.6699 21.528 16.6019C20.5466 17.534 19.3506 18 17.94 18ZM5.06 18C3.64934 18 2.45334 17.5048 1.472 16.5146C0.490662 15.466 0 14.068 0 12.3204C0 9.81553 0.398662 7.7767 1.196 6.20389C1.99334 4.57281 2.88266 3.29126 3.864 2.35923C4.968 1.31068 6.28666 0.524272 7.82 0L8.74 1.39806C7.69734 1.86408 6.77734 2.41747 5.98 3.05826C5.30534 3.64078 4.66134 4.33981 4.048 5.15534C3.496 5.91263 3.22 6.84466 3.22 7.95146C3.22 8.35922 3.28134 8.67961 3.404 8.91262C3.46534 9.08738 3.55734 9.20388 3.68 9.26214C3.80266 9.20388 3.98666 9.14564 4.232 9.08738C4.416 9.02912 4.6 8.97087 4.784 8.91262C5.02934 8.85437 5.27466 8.82524 5.52 8.82524C6.93066 8.82524 8.03466 9.233 8.832 10.0485C9.69066 10.8058 10.12 11.8544 10.12 13.1942C10.12 14.5339 9.62934 15.6699 8.648 16.6019C7.66666 17.534 6.47066 18 5.06 18Z" fill="#DDAA28"/>
</g>
</g>
</g>
<defs>
<clipPath id="clip0_116_233">
<rect width="23" height="18" fill="white"/>
</clipPath>
<clipPath id="clip1_116_233">
<rect width="23" height="18" fill="white"/>
</clipPath>
</defs>
</svg>
