<svg width="16" height="20" viewBox="0 0 16 20" fill="none" xmlns="http://www.w3.org/2000/svg">
<g clip-path="url(#clip0_117_157)">
<path d="M15 8C15 11.111 10.4672 16.3381 8.6967 18.2612C8.3176 18.6729 7.6824 18.6729 7.3033 18.2612C5.53278 16.3381 1 11.111 1 8C1 4.13401 4.13401 1 8 1C11.866 1 15 4.13401 15 8Z" stroke="#252525" stroke-width="2"/>
<path d="M11 8C11 9.65685 9.65685 11 8 11C6.34315 11 5 9.65685 5 8C5 6.34315 6.34315 5 8 5C9.65685 5 11 6.34315 11 8Z" stroke="#252525" stroke-width="2"/>
</g>
<defs>
<clipPath id="clip0_117_157">
<rect width="16" height="20" fill="white"/>
</clipPath>
</defs>
</svg>
