<svg id="Capa_1" enable-background="new 0 0 512 512" height="512" viewBox="0 0 512 512" width="512" xmlns="http://www.w3.org/2000/svg"><g><path d="m330.246 404.493-74.246-74.246-74.246 74.246-74.247-74.247 74.246-74.246-74.246-74.246 74.247-74.247 74.246 74.246 74.246-74.246 74.246 74.247-74.246 74.246 74.246 74.246zm-74.246-116.673 74.246 74.246 31.82-31.82-74.246-74.246 74.246-74.246-31.82-31.82-74.246 74.246-74.246-74.246-31.82 31.82 74.246 74.246-74.246 74.246 31.82 31.82z"/><path d="m256 0c-141.385 0-256 114.615-256 256s114.615 256 256 256 256-114.615 256-256-114.615-256-256-256zm0 482c-124.816 0-226-101.184-226-226s101.184-226 226-226 226 101.184 226 226-101.184 226-226 226z"/></g></svg>