<?xml version="1.0" encoding="UTF-8"?>
<svg xmlns="http://www.w3.org/2000/svg" xmlns:xlink="http://www.w3.org/1999/xlink" width="32px" height="32px" viewBox="0 0 32 32" version="1.1">
<defs>
<clipPath id="clip1">
  <path d="M 11 28 L 13 28 L 13 31 L 11 31 Z M 11 28 "/>
</clipPath>
<clipPath id="clip2">
  <path d="M 11.914062 28.289062 C 11.839844 28.355469 11.78125 28.453125 11.726562 28.570312 C 11.671875 28.691406 11.632812 28.828125 11.601562 28.988281 C 11.574219 29.148438 11.558594 29.316406 11.558594 29.492188 C 11.558594 29.667969 11.574219 29.835938 11.601562 29.992188 C 11.632812 30.148438 11.671875 30.285156 11.726562 30.402344 C 11.78125 30.515625 11.839844 30.613281 11.914062 30.679688 C 11.984375 30.746094 12.066406 30.78125 12.148438 30.78125 C 12.257812 30.78125 12.347656 30.738281 12.421875 30.644531 C 12.496094 30.554688 12.5625 30.4375 12.617188 30.296875 L 12.511719 30.074219 C 12.464844 30.179688 12.414062 30.269531 12.355469 30.339844 C 12.300781 30.410156 12.234375 30.445312 12.160156 30.445312 C 12.097656 30.445312 12.042969 30.421875 11.992188 30.371094 C 11.9375 30.320312 11.894531 30.253906 11.855469 30.164062 C 11.820312 30.074219 11.789062 29.972656 11.769531 29.855469 C 11.746094 29.734375 11.734375 29.609375 11.734375 29.472656 C 11.734375 29.339844 11.746094 29.214844 11.765625 29.097656 C 11.785156 28.980469 11.816406 28.875 11.851562 28.792969 C 11.890625 28.703125 11.933594 28.636719 11.984375 28.585938 C 12.035156 28.535156 12.089844 28.507812 12.148438 28.507812 C 12.226562 28.507812 12.292969 28.546875 12.347656 28.617188 C 12.398438 28.691406 12.449219 28.78125 12.496094 28.882812 L 12.609375 28.625 C 12.582031 28.5625 12.554688 28.507812 12.523438 28.453125 C 12.492188 28.398438 12.457031 28.351562 12.421875 28.308594 C 12.382812 28.269531 12.34375 28.238281 12.300781 28.214844 C 12.253906 28.191406 12.203125 28.179688 12.148438 28.179688 C 12.066406 28.1875 11.984375 28.222656 11.914062 28.289062 "/>
</clipPath>
<linearGradient id="linear0" gradientUnits="userSpaceOnUse" x1="-100.6461" y1="192.5952" x2="-100.2191" y2="192.5952" gradientTransform="matrix(71.826521,-29.120056,-13.484164,-155.114721,9832.484278,26975.295605)">
<stop offset="0" style="stop-color:rgb(92.156863%,65.882353%,28.627451%);stop-opacity:1;"/>
<stop offset="0.083" style="stop-color:rgb(92.54902%,67.45098%,30.588235%);stop-opacity:1;"/>
<stop offset="0.1965" style="stop-color:rgb(93.72549%,72.941176%,36.470588%);stop-opacity:1;"/>
<stop offset="0.3271" style="stop-color:rgb(95.294118%,81.568627%,45.882353%);stop-opacity:1;"/>
<stop offset="0.4553" style="stop-color:rgb(97.647059%,92.156863%,57.254902%);stop-opacity:1;"/>
<stop offset="1" style="stop-color:rgb(92.941176%,68.627451%,23.137255%);stop-opacity:1;"/>
</linearGradient>
<clipPath id="clip3">
  <path d="M 12 28 L 14 28 L 14 31 L 12 31 Z M 12 28 "/>
</clipPath>
<clipPath id="clip4">
  <path d="M 13.230469 30.371094 C 13.175781 30.320312 13.132812 30.253906 13.09375 30.164062 C 13.054688 30.078125 13.027344 29.972656 13.003906 29.859375 C 12.980469 29.738281 12.972656 29.613281 12.972656 29.476562 C 12.972656 29.339844 12.984375 29.21875 13.003906 29.101562 C 13.023438 28.984375 13.050781 28.878906 13.089844 28.792969 C 13.125 28.707031 13.171875 28.636719 13.222656 28.585938 C 13.273438 28.535156 13.332031 28.511719 13.394531 28.511719 C 13.457031 28.511719 13.511719 28.539062 13.5625 28.589844 C 13.617188 28.640625 13.660156 28.714844 13.699219 28.796875 C 13.738281 28.886719 13.769531 28.988281 13.789062 29.105469 C 13.8125 29.226562 13.820312 29.351562 13.820312 29.488281 C 13.820312 29.625 13.808594 29.75 13.789062 29.863281 C 13.769531 29.980469 13.738281 30.082031 13.703125 30.171875 C 13.664062 30.253906 13.621094 30.328125 13.570312 30.375 C 13.515625 30.425781 13.457031 30.449219 13.398438 30.449219 C 13.335938 30.445312 13.28125 30.421875 13.230469 30.371094 M 13.15625 28.289062 C 13.082031 28.355469 13.019531 28.453125 12.964844 28.570312 C 12.914062 28.691406 12.871094 28.828125 12.84375 28.988281 C 12.8125 29.148438 12.796875 29.316406 12.796875 29.492188 C 12.796875 29.667969 12.8125 29.835938 12.84375 29.992188 C 12.871094 30.148438 12.914062 30.285156 12.964844 30.402344 C 13.019531 30.515625 13.082031 30.613281 13.15625 30.679688 C 13.226562 30.746094 13.308594 30.78125 13.394531 30.78125 C 13.480469 30.78125 13.5625 30.746094 13.632812 30.679688 C 13.707031 30.613281 13.773438 30.515625 13.828125 30.398438 C 13.878906 30.277344 13.921875 30.140625 13.953125 29.980469 C 13.980469 29.824219 13.996094 29.65625 13.996094 29.480469 C 13.996094 29.304688 13.984375 29.136719 13.953125 28.980469 C 13.925781 28.824219 13.882812 28.6875 13.828125 28.570312 C 13.777344 28.457031 13.714844 28.359375 13.640625 28.292969 C 13.566406 28.222656 13.484375 28.191406 13.398438 28.191406 C 13.308594 28.1875 13.230469 28.222656 13.15625 28.289062 "/>
</clipPath>
<linearGradient id="linear1" gradientUnits="userSpaceOnUse" x1="-100.6461" y1="192.5992" x2="-100.2191" y2="192.5992" gradientTransform="matrix(71.826521,-29.120056,-13.484164,-155.114721,9832.583191,26976.436645)">
<stop offset="0" style="stop-color:rgb(92.156863%,65.882353%,28.627451%);stop-opacity:1;"/>
<stop offset="0.083" style="stop-color:rgb(92.54902%,67.45098%,30.588235%);stop-opacity:1;"/>
<stop offset="0.1965" style="stop-color:rgb(93.72549%,72.941176%,36.470588%);stop-opacity:1;"/>
<stop offset="0.3271" style="stop-color:rgb(95.294118%,81.568627%,45.882353%);stop-opacity:1;"/>
<stop offset="0.4553" style="stop-color:rgb(97.647059%,92.156863%,57.254902%);stop-opacity:1;"/>
<stop offset="1" style="stop-color:rgb(92.941176%,68.627451%,23.137255%);stop-opacity:1;"/>
</linearGradient>
<clipPath id="clip5">
  <path d="M 14 28 L 15 28 L 15 31 L 14 31 Z M 14 28 "/>
</clipPath>
<clipPath id="clip6">
  <path d="M 14.796875 28.238281 C 14.75 28.269531 14.703125 28.316406 14.664062 28.378906 C 14.625 28.441406 14.585938 28.515625 14.554688 28.605469 C 14.523438 28.691406 14.5 28.785156 14.476562 28.890625 L 14.476562 28.242188 L 14.304688 28.242188 L 14.304688 30.726562 L 14.476562 30.726562 L 14.476562 29.734375 C 14.476562 29.550781 14.488281 29.386719 14.515625 29.242188 C 14.539062 29.101562 14.570312 28.980469 14.609375 28.882812 C 14.652344 28.789062 14.699219 28.714844 14.757812 28.664062 C 14.8125 28.617188 14.871094 28.59375 14.933594 28.59375 L 14.949219 28.59375 L 14.949219 28.195312 C 14.945312 28.195312 14.941406 28.195312 14.933594 28.195312 C 14.886719 28.195312 14.839844 28.210938 14.796875 28.238281 "/>
</clipPath>
<linearGradient id="linear2" gradientUnits="userSpaceOnUse" x1="-100.6461" y1="192.6021" x2="-100.2191" y2="192.6021" gradientTransform="matrix(71.826521,-29.120056,-13.484164,-155.114721,9832.662444,26977.34682)">
<stop offset="0" style="stop-color:rgb(92.156863%,65.882353%,28.627451%);stop-opacity:1;"/>
<stop offset="0.083" style="stop-color:rgb(92.54902%,67.45098%,30.588235%);stop-opacity:1;"/>
<stop offset="0.1965" style="stop-color:rgb(93.72549%,72.941176%,36.470588%);stop-opacity:1;"/>
<stop offset="0.3271" style="stop-color:rgb(95.294118%,81.568627%,45.882353%);stop-opacity:1;"/>
<stop offset="0.4553" style="stop-color:rgb(97.647059%,92.156863%,57.254902%);stop-opacity:1;"/>
<stop offset="1" style="stop-color:rgb(92.941176%,68.627451%,23.137255%);stop-opacity:1;"/>
</linearGradient>
<clipPath id="clip7">
  <path d="M 15 28 L 17 28 L 17 32 L 15 32 Z M 15 28 "/>
</clipPath>
<clipPath id="clip8">
  <path d="M 15.636719 30.371094 C 15.585938 30.324219 15.542969 30.257812 15.503906 30.175781 C 15.464844 30.097656 15.433594 29.992188 15.410156 29.871094 C 15.386719 29.753906 15.375 29.621094 15.375 29.476562 C 15.375 29.335938 15.386719 29.203125 15.410156 29.082031 C 15.433594 28.964844 15.464844 28.867188 15.503906 28.78125 C 15.542969 28.695312 15.585938 28.636719 15.636719 28.585938 C 15.6875 28.539062 15.738281 28.519531 15.789062 28.519531 C 15.847656 28.519531 15.898438 28.542969 15.945312 28.585938 C 15.996094 28.632812 16.039062 28.695312 16.074219 28.78125 C 16.113281 28.867188 16.140625 28.96875 16.164062 29.085938 C 16.1875 29.207031 16.195312 29.339844 16.195312 29.484375 C 16.195312 29.632812 16.1875 29.769531 16.164062 29.886719 C 16.140625 30.007812 16.113281 30.109375 16.078125 30.191406 C 16.039062 30.273438 16 30.332031 15.949219 30.378906 C 15.898438 30.421875 15.847656 30.441406 15.789062 30.441406 C 15.738281 30.441406 15.6875 30.417969 15.636719 30.371094 M 15.675781 28.230469 C 15.632812 28.261719 15.59375 28.300781 15.554688 28.351562 C 15.519531 28.402344 15.488281 28.457031 15.457031 28.527344 C 15.429688 28.59375 15.402344 28.664062 15.378906 28.738281 L 15.378906 28.238281 L 15.207031 28.238281 L 15.207031 31.496094 L 15.378906 31.496094 L 15.378906 30.25 C 15.402344 30.320312 15.425781 30.386719 15.457031 30.449219 C 15.484375 30.511719 15.519531 30.566406 15.554688 30.617188 C 15.589844 30.667969 15.628906 30.703125 15.675781 30.734375 C 15.71875 30.761719 15.765625 30.777344 15.820312 30.777344 C 15.890625 30.777344 15.960938 30.746094 16.023438 30.691406 C 16.089844 30.632812 16.148438 30.546875 16.203125 30.433594 C 16.253906 30.324219 16.292969 30.191406 16.324219 30.027344 C 16.355469 29.867188 16.371094 29.683594 16.371094 29.476562 C 16.371094 29.273438 16.355469 29.089844 16.324219 28.929688 C 16.292969 28.769531 16.253906 28.636719 16.203125 28.523438 C 16.148438 28.410156 16.089844 28.328125 16.023438 28.273438 C 15.957031 28.214844 15.890625 28.183594 15.824219 28.183594 C 15.769531 28.1875 15.71875 28.199219 15.675781 28.230469 "/>
</clipPath>
<linearGradient id="linear3" gradientUnits="userSpaceOnUse" x1="-100.6461" y1="192.6077" x2="-100.2191" y2="192.6077" gradientTransform="matrix(71.826521,-29.120056,-13.484164,-155.114721,9832.809893,26979.04245)">
<stop offset="0" style="stop-color:rgb(92.156863%,65.882353%,28.627451%);stop-opacity:1;"/>
<stop offset="0.083" style="stop-color:rgb(92.54902%,67.45098%,30.588235%);stop-opacity:1;"/>
<stop offset="0.1965" style="stop-color:rgb(93.72549%,72.941176%,36.470588%);stop-opacity:1;"/>
<stop offset="0.3271" style="stop-color:rgb(95.294118%,81.568627%,45.882353%);stop-opacity:1;"/>
<stop offset="0.4553" style="stop-color:rgb(97.647059%,92.156863%,57.254902%);stop-opacity:1;"/>
<stop offset="1" style="stop-color:rgb(92.941176%,68.627451%,23.137255%);stop-opacity:1;"/>
</linearGradient>
<clipPath id="clip9">
  <path d="M 16 28 L 18 28 L 18 31 L 16 31 Z M 16 28 "/>
</clipPath>
<clipPath id="clip10">
  <path d="M 17.050781 30.371094 C 17 30.320312 16.953125 30.253906 16.914062 30.164062 C 16.878906 30.078125 16.847656 29.972656 16.824219 29.859375 C 16.804688 29.738281 16.792969 29.613281 16.792969 29.476562 C 16.792969 29.339844 16.804688 29.21875 16.824219 29.101562 C 16.84375 28.984375 16.871094 28.878906 16.910156 28.792969 C 16.945312 28.707031 16.988281 28.636719 17.042969 28.585938 C 17.09375 28.535156 17.148438 28.511719 17.210938 28.511719 C 17.273438 28.511719 17.332031 28.539062 17.382812 28.589844 C 17.433594 28.640625 17.480469 28.714844 17.519531 28.796875 C 17.558594 28.886719 17.585938 28.988281 17.605469 29.105469 C 17.628906 29.226562 17.640625 29.351562 17.640625 29.488281 C 17.640625 29.625 17.628906 29.75 17.609375 29.863281 C 17.589844 29.980469 17.558594 30.082031 17.523438 30.171875 C 17.484375 30.253906 17.441406 30.328125 17.390625 30.375 C 17.335938 30.425781 17.28125 30.449219 17.21875 30.449219 C 17.160156 30.445312 17.101562 30.421875 17.050781 30.371094 M 16.976562 28.289062 C 16.90625 28.355469 16.839844 28.453125 16.789062 28.570312 C 16.734375 28.691406 16.695312 28.828125 16.664062 28.988281 C 16.632812 29.148438 16.621094 29.316406 16.621094 29.492188 C 16.621094 29.667969 16.632812 29.835938 16.664062 29.992188 C 16.695312 30.148438 16.734375 30.285156 16.789062 30.402344 C 16.839844 30.515625 16.90625 30.613281 16.976562 30.679688 C 17.050781 30.746094 17.128906 30.78125 17.214844 30.78125 C 17.300781 30.78125 17.382812 30.746094 17.457031 30.679688 C 17.53125 30.613281 17.59375 30.515625 17.648438 30.398438 C 17.703125 30.277344 17.746094 30.140625 17.773438 29.980469 C 17.804688 29.820312 17.820312 29.652344 17.820312 29.476562 C 17.820312 29.300781 17.804688 29.132812 17.777344 28.976562 C 17.746094 28.820312 17.703125 28.683594 17.652344 28.566406 C 17.597656 28.453125 17.535156 28.355469 17.460938 28.289062 C 17.386719 28.222656 17.308594 28.1875 17.222656 28.1875 C 17.132812 28.1875 17.050781 28.222656 16.976562 28.289062 "/>
</clipPath>
<linearGradient id="linear4" gradientUnits="userSpaceOnUse" x1="-100.6461" y1="192.6121" x2="-100.2191" y2="192.6121" gradientTransform="matrix(71.826521,-29.120056,-13.484164,-155.114721,9832.887919,26979.939346)">
<stop offset="0" style="stop-color:rgb(92.156863%,65.882353%,28.627451%);stop-opacity:1;"/>
<stop offset="0.083" style="stop-color:rgb(92.54902%,67.45098%,30.588235%);stop-opacity:1;"/>
<stop offset="0.1965" style="stop-color:rgb(93.72549%,72.941176%,36.470588%);stop-opacity:1;"/>
<stop offset="0.3271" style="stop-color:rgb(95.294118%,81.568627%,45.882353%);stop-opacity:1;"/>
<stop offset="0.4553" style="stop-color:rgb(97.647059%,92.156863%,57.254902%);stop-opacity:1;"/>
<stop offset="1" style="stop-color:rgb(92.941176%,68.627451%,23.137255%);stop-opacity:1;"/>
</linearGradient>
<clipPath id="clip11">
  <path d="M 18 28 L 19 28 L 19 31 L 18 31 Z M 18 28 "/>
</clipPath>
<clipPath id="clip12">
  <path d="M 18.617188 28.238281 C 18.570312 28.269531 18.523438 28.316406 18.484375 28.378906 C 18.445312 28.441406 18.40625 28.515625 18.375 28.605469 C 18.34375 28.691406 18.320312 28.785156 18.296875 28.890625 L 18.296875 28.242188 L 18.125 28.242188 L 18.125 30.726562 L 18.296875 30.726562 L 18.296875 29.734375 C 18.296875 29.550781 18.308594 29.386719 18.335938 29.242188 C 18.359375 29.101562 18.390625 28.980469 18.429688 28.882812 C 18.472656 28.789062 18.519531 28.714844 18.578125 28.664062 C 18.632812 28.617188 18.691406 28.59375 18.753906 28.59375 L 18.769531 28.59375 L 18.769531 28.195312 C 18.765625 28.195312 18.761719 28.195312 18.753906 28.195312 C 18.707031 28.195312 18.660156 28.210938 18.617188 28.238281 "/>
</clipPath>
<linearGradient id="linear5" gradientUnits="userSpaceOnUse" x1="-100.6461" y1="192.6151" x2="-100.2191" y2="192.6151" gradientTransform="matrix(71.826521,-29.120056,-13.484164,-155.114721,9832.967172,26980.849521)">
<stop offset="0" style="stop-color:rgb(92.156863%,65.882353%,28.627451%);stop-opacity:1;"/>
<stop offset="0.083" style="stop-color:rgb(92.54902%,67.45098%,30.588235%);stop-opacity:1;"/>
<stop offset="0.1965" style="stop-color:rgb(93.72549%,72.941176%,36.470588%);stop-opacity:1;"/>
<stop offset="0.3271" style="stop-color:rgb(95.294118%,81.568627%,45.882353%);stop-opacity:1;"/>
<stop offset="0.4553" style="stop-color:rgb(97.647059%,92.156863%,57.254902%);stop-opacity:1;"/>
<stop offset="1" style="stop-color:rgb(92.941176%,68.627451%,23.137255%);stop-opacity:1;"/>
</linearGradient>
<clipPath id="clip13">
  <path d="M 18 28 L 20 28 L 20 31 L 18 31 Z M 18 28 "/>
</clipPath>
<clipPath id="clip14">
  <path d="M 19.242188 30.453125 C 19.207031 30.429688 19.175781 30.398438 19.148438 30.355469 C 19.125 30.308594 19.101562 30.257812 19.085938 30.199219 C 19.070312 30.136719 19.0625 30.066406 19.0625 29.988281 C 19.0625 29.828125 19.09375 29.699219 19.148438 29.605469 C 19.207031 29.515625 19.289062 29.46875 19.398438 29.46875 C 19.46875 29.46875 19.53125 29.476562 19.589844 29.5 C 19.644531 29.523438 19.695312 29.550781 19.738281 29.574219 L 19.738281 29.8125 C 19.738281 29.914062 19.726562 30.003906 19.707031 30.085938 C 19.6875 30.167969 19.660156 30.238281 19.625 30.296875 C 19.589844 30.355469 19.550781 30.402344 19.503906 30.433594 C 19.457031 30.46875 19.40625 30.484375 19.351562 30.484375 C 19.3125 30.484375 19.277344 30.472656 19.242188 30.453125 M 19.183594 28.261719 C 19.117188 28.300781 19.054688 28.351562 18.992188 28.414062 L 19.042969 28.714844 C 19.097656 28.664062 19.152344 28.617188 19.207031 28.585938 C 19.261719 28.550781 19.324219 28.535156 19.390625 28.535156 C 19.5 28.535156 19.585938 28.589844 19.644531 28.703125 C 19.707031 28.820312 19.734375 28.984375 19.734375 29.210938 L 19.734375 29.296875 C 19.683594 29.265625 19.628906 29.238281 19.574219 29.21875 C 19.519531 29.199219 19.457031 29.191406 19.382812 29.191406 C 19.308594 29.191406 19.242188 29.210938 19.183594 29.246094 C 19.121094 29.28125 19.070312 29.332031 19.027344 29.398438 C 18.980469 29.46875 18.949219 29.550781 18.925781 29.652344 C 18.902344 29.753906 18.890625 29.867188 18.890625 30 C 18.890625 30.132812 18.902344 30.246094 18.925781 30.34375 C 18.949219 30.4375 18.980469 30.519531 19.023438 30.589844 C 19.0625 30.652344 19.109375 30.703125 19.160156 30.734375 C 19.214844 30.765625 19.265625 30.78125 19.320312 30.78125 C 19.421875 30.78125 19.503906 30.738281 19.574219 30.652344 C 19.640625 30.566406 19.695312 30.464844 19.734375 30.355469 L 19.734375 30.726562 L 19.902344 30.726562 L 19.902344 29.207031 C 19.902344 28.875 19.859375 28.625 19.773438 28.457031 C 19.6875 28.289062 19.566406 28.207031 19.410156 28.207031 C 19.324219 28.203125 19.25 28.222656 19.183594 28.261719 "/>
</clipPath>
<linearGradient id="linear6" gradientUnits="userSpaceOnUse" x1="-100.6461" y1="192.6205" x2="-100.2191" y2="192.6205" gradientTransform="matrix(71.826521,-29.120056,-13.484164,-155.114721,9833.074688,26982.088722)">
<stop offset="0" style="stop-color:rgb(92.156863%,65.882353%,28.627451%);stop-opacity:1;"/>
<stop offset="0.083" style="stop-color:rgb(92.54902%,67.45098%,30.588235%);stop-opacity:1;"/>
<stop offset="0.1965" style="stop-color:rgb(93.72549%,72.941176%,36.470588%);stop-opacity:1;"/>
<stop offset="0.3271" style="stop-color:rgb(95.294118%,81.568627%,45.882353%);stop-opacity:1;"/>
<stop offset="0.4553" style="stop-color:rgb(97.647059%,92.156863%,57.254902%);stop-opacity:1;"/>
<stop offset="1" style="stop-color:rgb(92.941176%,68.627451%,23.137255%);stop-opacity:1;"/>
</linearGradient>
<clipPath id="clip15">
  <path d="M 20 27 L 21 27 L 21 31 L 20 31 Z M 20 27 "/>
</clipPath>
<clipPath id="clip16">
  <path d="M 20.3125 27.488281 L 20.3125 28.238281 L 20.152344 28.238281 L 20.152344 28.5625 L 20.3125 28.5625 L 20.3125 30.066406 C 20.3125 30.191406 20.320312 30.296875 20.339844 30.386719 C 20.355469 30.476562 20.378906 30.550781 20.40625 30.605469 C 20.433594 30.664062 20.46875 30.703125 20.511719 30.726562 C 20.550781 30.753906 20.59375 30.765625 20.640625 30.765625 C 20.679688 30.765625 20.71875 30.753906 20.753906 30.738281 C 20.785156 30.71875 20.816406 30.695312 20.847656 30.660156 L 20.847656 30.34375 C 20.816406 30.375 20.789062 30.398438 20.765625 30.410156 C 20.738281 30.425781 20.710938 30.433594 20.679688 30.433594 C 20.621094 30.433594 20.574219 30.402344 20.539062 30.339844 C 20.503906 30.277344 20.488281 30.171875 20.488281 30.019531 L 20.488281 28.5625 L 20.851562 28.5625 L 20.851562 28.238281 L 20.488281 28.238281 L 20.488281 27.488281 Z M 20.3125 27.488281 "/>
</clipPath>
<linearGradient id="linear7" gradientUnits="userSpaceOnUse" x1="-100.6461" y1="192.6203" x2="-100.2191" y2="192.6203" gradientTransform="matrix(71.826521,-29.120056,-13.484164,-155.114721,9833.080208,26982.147109)">
<stop offset="0" style="stop-color:rgb(92.156863%,65.882353%,28.627451%);stop-opacity:1;"/>
<stop offset="0.083" style="stop-color:rgb(92.54902%,67.45098%,30.588235%);stop-opacity:1;"/>
<stop offset="0.1965" style="stop-color:rgb(93.72549%,72.941176%,36.470588%);stop-opacity:1;"/>
<stop offset="0.3271" style="stop-color:rgb(95.294118%,81.568627%,45.882353%);stop-opacity:1;"/>
<stop offset="0.4553" style="stop-color:rgb(97.647059%,92.156863%,57.254902%);stop-opacity:1;"/>
<stop offset="1" style="stop-color:rgb(92.941176%,68.627451%,23.137255%);stop-opacity:1;"/>
</linearGradient>
<clipPath id="clip17">
  <path d="M 21 28 L 23 28 L 23 31 L 21 31 Z M 21 28 "/>
</clipPath>
<clipPath id="clip18">
  <path d="M 21.265625 29.007812 C 21.285156 28.90625 21.3125 28.820312 21.34375 28.742188 C 21.375 28.664062 21.414062 28.605469 21.457031 28.5625 C 21.5 28.519531 21.546875 28.5 21.597656 28.5 C 21.65625 28.5 21.707031 28.523438 21.75 28.570312 C 21.792969 28.617188 21.832031 28.679688 21.859375 28.757812 C 21.890625 28.835938 21.914062 28.925781 21.929688 29.027344 C 21.949219 29.128906 21.960938 29.238281 21.960938 29.347656 L 21.226562 29.347656 C 21.230469 29.222656 21.242188 29.109375 21.265625 29.007812 M 21.378906 28.285156 C 21.3125 28.351562 21.253906 28.445312 21.207031 28.558594 C 21.15625 28.679688 21.117188 28.816406 21.089844 28.976562 C 21.0625 29.132812 21.050781 29.304688 21.050781 29.480469 C 21.050781 29.675781 21.066406 29.851562 21.097656 30.011719 C 21.128906 30.171875 21.167969 30.308594 21.21875 30.421875 C 21.273438 30.539062 21.332031 30.621094 21.402344 30.6875 C 21.472656 30.746094 21.546875 30.78125 21.628906 30.78125 C 21.738281 30.78125 21.828125 30.738281 21.902344 30.652344 C 21.976562 30.566406 22.042969 30.457031 22.101562 30.3125 L 21.996094 30.105469 C 21.949219 30.210938 21.894531 30.296875 21.839844 30.359375 C 21.78125 30.425781 21.710938 30.457031 21.632812 30.457031 C 21.582031 30.457031 21.53125 30.4375 21.488281 30.402344 C 21.441406 30.363281 21.398438 30.308594 21.363281 30.238281 C 21.324219 30.167969 21.296875 30.078125 21.273438 29.972656 C 21.25 29.867188 21.234375 29.75 21.226562 29.613281 L 22.136719 29.613281 C 22.140625 29.589844 22.140625 29.570312 22.140625 29.550781 L 22.140625 29.496094 C 22.140625 29.316406 22.128906 29.144531 22.105469 28.980469 C 22.082031 28.820312 22.046875 28.683594 22 28.5625 C 21.953125 28.445312 21.894531 28.351562 21.828125 28.28125 C 21.761719 28.214844 21.6875 28.179688 21.601562 28.179688 C 21.523438 28.1875 21.445312 28.21875 21.378906 28.285156 "/>
</clipPath>
<linearGradient id="linear8" gradientUnits="userSpaceOnUse" x1="-100.6461" y1="192.6272" x2="-100.2191" y2="192.6272" gradientTransform="matrix(71.826521,-29.120056,-13.484164,-155.114721,9833.239328,26983.980707)">
<stop offset="0" style="stop-color:rgb(92.156863%,65.882353%,28.627451%);stop-opacity:1;"/>
<stop offset="0.083" style="stop-color:rgb(92.54902%,67.45098%,30.588235%);stop-opacity:1;"/>
<stop offset="0.1965" style="stop-color:rgb(93.72549%,72.941176%,36.470588%);stop-opacity:1;"/>
<stop offset="0.3271" style="stop-color:rgb(95.294118%,81.568627%,45.882353%);stop-opacity:1;"/>
<stop offset="0.4553" style="stop-color:rgb(97.647059%,92.156863%,57.254902%);stop-opacity:1;"/>
<stop offset="1" style="stop-color:rgb(92.941176%,68.627451%,23.137255%);stop-opacity:1;"/>
</linearGradient>
<clipPath id="clip19">
  <path d="M 23 28 L 24 28 L 24 31 L 23 31 Z M 23 28 "/>
</clipPath>
<clipPath id="clip20">
  <path d="M 23.300781 28.246094 C 23.253906 28.277344 23.210938 28.324219 23.179688 28.386719 C 23.144531 28.449219 23.117188 28.527344 23.097656 28.613281 C 23.078125 28.703125 23.066406 28.800781 23.066406 28.90625 L 23.066406 28.917969 C 23.066406 29.03125 23.078125 29.128906 23.101562 29.207031 C 23.125 29.285156 23.15625 29.347656 23.191406 29.398438 C 23.230469 29.449219 23.269531 29.496094 23.316406 29.523438 C 23.359375 29.558594 23.40625 29.589844 23.449219 29.621094 C 23.488281 29.644531 23.523438 29.667969 23.558594 29.691406 C 23.59375 29.71875 23.625 29.746094 23.652344 29.78125 C 23.679688 29.8125 23.699219 29.851562 23.714844 29.898438 C 23.730469 29.941406 23.738281 29.996094 23.738281 30.058594 L 23.738281 30.070312 C 23.738281 30.191406 23.714844 30.285156 23.671875 30.355469 C 23.628906 30.429688 23.570312 30.460938 23.5 30.460938 C 23.433594 30.460938 23.363281 30.433594 23.296875 30.382812 C 23.230469 30.328125 23.164062 30.25 23.101562 30.148438 L 23.015625 30.410156 C 23.082031 30.523438 23.15625 30.613281 23.238281 30.679688 C 23.324219 30.746094 23.40625 30.777344 23.492188 30.777344 C 23.550781 30.777344 23.601562 30.761719 23.652344 30.726562 C 23.703125 30.695312 23.746094 30.644531 23.78125 30.582031 C 23.816406 30.515625 23.847656 30.4375 23.867188 30.347656 C 23.890625 30.253906 23.902344 30.148438 23.902344 30.03125 L 23.902344 30.019531 C 23.902344 29.910156 23.890625 29.8125 23.867188 29.734375 C 23.847656 29.65625 23.816406 29.59375 23.78125 29.539062 C 23.746094 29.484375 23.707031 29.441406 23.664062 29.402344 C 23.617188 29.367188 23.574219 29.335938 23.53125 29.308594 C 23.492188 29.285156 23.453125 29.257812 23.417969 29.230469 C 23.382812 29.203125 23.351562 29.175781 23.324219 29.144531 C 23.296875 29.113281 23.277344 29.074219 23.257812 29.03125 C 23.242188 28.988281 23.234375 28.9375 23.234375 28.878906 L 23.234375 28.871094 C 23.234375 28.769531 23.253906 28.683594 23.292969 28.613281 C 23.332031 28.542969 23.386719 28.507812 23.457031 28.507812 C 23.511719 28.507812 23.570312 28.53125 23.628906 28.574219 C 23.6875 28.617188 23.746094 28.675781 23.796875 28.75 L 23.875 28.472656 C 23.816406 28.390625 23.75 28.324219 23.679688 28.273438 C 23.605469 28.222656 23.535156 28.195312 23.464844 28.195312 C 23.402344 28.195312 23.351562 28.210938 23.300781 28.246094 "/>
</clipPath>
<linearGradient id="linear9" gradientUnits="userSpaceOnUse" x1="-100.6461" y1="192.6334" x2="-100.2191" y2="192.6334" gradientTransform="matrix(71.826521,-29.120056,-13.484164,-155.114721,9833.386777,26985.678986)">
<stop offset="0" style="stop-color:rgb(92.156863%,65.882353%,28.627451%);stop-opacity:1;"/>
<stop offset="0.083" style="stop-color:rgb(92.54902%,67.45098%,30.588235%);stop-opacity:1;"/>
<stop offset="0.1965" style="stop-color:rgb(93.72549%,72.941176%,36.470588%);stop-opacity:1;"/>
<stop offset="0.3271" style="stop-color:rgb(95.294118%,81.568627%,45.882353%);stop-opacity:1;"/>
<stop offset="0.4553" style="stop-color:rgb(97.647059%,92.156863%,57.254902%);stop-opacity:1;"/>
<stop offset="1" style="stop-color:rgb(92.941176%,68.627451%,23.137255%);stop-opacity:1;"/>
</linearGradient>
<clipPath id="clip21">
  <path d="M 24 28 L 26 28 L 26 31 L 24 31 Z M 24 28 "/>
</clipPath>
<clipPath id="clip22">
  <path d="M 24.359375 29.007812 C 24.382812 28.90625 24.40625 28.820312 24.441406 28.742188 C 24.472656 28.664062 24.511719 28.605469 24.554688 28.5625 C 24.597656 28.519531 24.644531 28.5 24.695312 28.5 C 24.753906 28.5 24.804688 28.523438 24.847656 28.570312 C 24.890625 28.617188 24.925781 28.679688 24.957031 28.757812 C 24.988281 28.835938 25.011719 28.925781 25.027344 29.027344 C 25.046875 29.128906 25.054688 29.238281 25.058594 29.347656 L 24.320312 29.347656 C 24.328125 29.222656 24.339844 29.109375 24.359375 29.007812 M 24.476562 28.285156 C 24.40625 28.351562 24.351562 28.445312 24.300781 28.558594 C 24.253906 28.679688 24.214844 28.816406 24.1875 28.976562 C 24.15625 29.132812 24.144531 29.304688 24.144531 29.480469 C 24.144531 29.675781 24.160156 29.851562 24.191406 30.011719 C 24.222656 30.171875 24.261719 30.308594 24.316406 30.421875 C 24.367188 30.539062 24.429688 30.621094 24.5 30.6875 C 24.570312 30.746094 24.640625 30.78125 24.722656 30.78125 C 24.832031 30.78125 24.925781 30.738281 25 30.652344 C 25.074219 30.566406 25.140625 30.457031 25.199219 30.3125 L 25.089844 30.105469 C 25.042969 30.210938 24.992188 30.296875 24.933594 30.359375 C 24.875 30.425781 24.808594 30.457031 24.726562 30.457031 C 24.675781 30.457031 24.628906 30.4375 24.582031 30.402344 C 24.535156 30.363281 24.496094 30.308594 24.457031 30.238281 C 24.421875 30.167969 24.390625 30.078125 24.367188 29.972656 C 24.34375 29.867188 24.328125 29.75 24.324219 29.613281 L 25.234375 29.613281 C 25.234375 29.589844 25.234375 29.570312 25.234375 29.550781 L 25.234375 29.496094 C 25.234375 29.316406 25.222656 29.144531 25.199219 28.980469 C 25.175781 28.820312 25.140625 28.683594 25.09375 28.5625 C 25.046875 28.445312 24.992188 28.351562 24.925781 28.28125 C 24.859375 28.214844 24.78125 28.179688 24.699219 28.179688 C 24.617188 28.1875 24.542969 28.21875 24.476562 28.285156 "/>
</clipPath>
<linearGradient id="linear10" gradientUnits="userSpaceOnUse" x1="-100.6461" y1="192.6376" x2="-100.2191" y2="192.6376" gradientTransform="matrix(71.826521,-29.120056,-13.484164,-155.114721,9833.486319,26986.822676)">
<stop offset="0" style="stop-color:rgb(92.156863%,65.882353%,28.627451%);stop-opacity:1;"/>
<stop offset="0.083" style="stop-color:rgb(92.54902%,67.45098%,30.588235%);stop-opacity:1;"/>
<stop offset="0.1965" style="stop-color:rgb(93.72549%,72.941176%,36.470588%);stop-opacity:1;"/>
<stop offset="0.3271" style="stop-color:rgb(95.294118%,81.568627%,45.882353%);stop-opacity:1;"/>
<stop offset="0.4553" style="stop-color:rgb(97.647059%,92.156863%,57.254902%);stop-opacity:1;"/>
<stop offset="1" style="stop-color:rgb(92.941176%,68.627451%,23.137255%);stop-opacity:1;"/>
</linearGradient>
<clipPath id="clip23">
  <path d="M 25 28 L 27 28 L 27 31 L 25 31 Z M 25 28 "/>
</clipPath>
<clipPath id="clip24">
  <path d="M 26.023438 28.238281 C 25.976562 28.269531 25.933594 28.316406 25.890625 28.378906 C 25.851562 28.441406 25.816406 28.515625 25.785156 28.605469 C 25.753906 28.691406 25.726562 28.785156 25.707031 28.890625 L 25.707031 28.242188 L 25.535156 28.242188 L 25.535156 30.726562 L 25.707031 30.726562 L 25.707031 29.734375 C 25.707031 29.550781 25.71875 29.386719 25.742188 29.242188 C 25.765625 29.101562 25.796875 28.980469 25.839844 28.882812 C 25.882812 28.789062 25.929688 28.714844 25.984375 28.664062 C 26.039062 28.617188 26.101562 28.59375 26.164062 28.59375 L 26.175781 28.59375 L 26.175781 28.195312 C 26.171875 28.195312 26.167969 28.195312 26.164062 28.195312 C 26.113281 28.195312 26.066406 28.210938 26.023438 28.238281 "/>
</clipPath>
<linearGradient id="linear11" gradientUnits="userSpaceOnUse" x1="-100.6461" y1="192.6401" x2="-100.2191" y2="192.6401" gradientTransform="matrix(71.826521,-29.120056,-13.484164,-155.114721,9833.557582,26987.642639)">
<stop offset="0" style="stop-color:rgb(92.156863%,65.882353%,28.627451%);stop-opacity:1;"/>
<stop offset="0.083" style="stop-color:rgb(92.54902%,67.45098%,30.588235%);stop-opacity:1;"/>
<stop offset="0.1965" style="stop-color:rgb(93.72549%,72.941176%,36.470588%);stop-opacity:1;"/>
<stop offset="0.3271" style="stop-color:rgb(95.294118%,81.568627%,45.882353%);stop-opacity:1;"/>
<stop offset="0.4553" style="stop-color:rgb(97.647059%,92.156863%,57.254902%);stop-opacity:1;"/>
<stop offset="1" style="stop-color:rgb(92.941176%,68.627451%,23.137255%);stop-opacity:1;"/>
</linearGradient>
<clipPath id="clip25">
  <path d="M 26 28 L 28 28 L 28 31 L 26 31 Z M 26 28 "/>
</clipPath>
<clipPath id="clip26">
  <path d="M 27.292969 28.238281 L 26.902344 30.304688 L 26.515625 28.238281 L 26.324219 28.238281 L 26.824219 30.746094 L 26.976562 30.746094 L 27.476562 28.238281 Z M 27.292969 28.238281 "/>
</clipPath>
<linearGradient id="linear12" gradientUnits="userSpaceOnUse" x1="-100.6461" y1="192.6435" x2="-100.2191" y2="192.6435" gradientTransform="matrix(71.826521,-29.120056,-13.484164,-155.114721,9833.641742,26988.608518)">
<stop offset="0" style="stop-color:rgb(92.156863%,65.882353%,28.627451%);stop-opacity:1;"/>
<stop offset="0.083" style="stop-color:rgb(92.54902%,67.45098%,30.588235%);stop-opacity:1;"/>
<stop offset="0.1965" style="stop-color:rgb(93.72549%,72.941176%,36.470588%);stop-opacity:1;"/>
<stop offset="0.3271" style="stop-color:rgb(95.294118%,81.568627%,45.882353%);stop-opacity:1;"/>
<stop offset="0.4553" style="stop-color:rgb(97.647059%,92.156863%,57.254902%);stop-opacity:1;"/>
<stop offset="1" style="stop-color:rgb(92.941176%,68.627451%,23.137255%);stop-opacity:1;"/>
</linearGradient>
<clipPath id="clip27">
  <path d="M 27.75 27.285156 L 27.945312 27.285156 L 27.945312 27.695312 L 27.75 27.695312 Z M 27.761719 28.238281 L 27.933594 28.238281 L 27.933594 30.722656 L 27.761719 30.722656 Z M 27.761719 28.238281 "/>
</clipPath>
<linearGradient id="linear13" gradientUnits="userSpaceOnUse" x1="-100.6461" y1="192.6441" x2="-100.2191" y2="192.6441" gradientTransform="matrix(71.826521,-29.120056,-13.484164,-155.114721,9833.641128,26988.60057)">
<stop offset="0" style="stop-color:rgb(92.156863%,65.882353%,28.627451%);stop-opacity:1;"/>
<stop offset="0.083" style="stop-color:rgb(92.54902%,67.45098%,30.588235%);stop-opacity:1;"/>
<stop offset="0.1965" style="stop-color:rgb(93.72549%,72.941176%,36.470588%);stop-opacity:1;"/>
<stop offset="0.3271" style="stop-color:rgb(95.294118%,81.568627%,45.882353%);stop-opacity:1;"/>
<stop offset="0.4553" style="stop-color:rgb(97.647059%,92.156863%,57.254902%);stop-opacity:1;"/>
<stop offset="1" style="stop-color:rgb(92.941176%,68.627451%,23.137255%);stop-opacity:1;"/>
</linearGradient>
<clipPath id="clip28">
  <path d="M 28 28 L 30 28 L 30 31 L 28 31 Z M 28 28 "/>
</clipPath>
<clipPath id="clip29">
  <path d="M 28.617188 28.289062 C 28.542969 28.355469 28.480469 28.453125 28.429688 28.570312 C 28.375 28.691406 28.332031 28.828125 28.304688 28.988281 C 28.273438 29.148438 28.261719 29.316406 28.261719 29.492188 C 28.261719 29.667969 28.273438 29.835938 28.304688 29.992188 C 28.332031 30.148438 28.375 30.285156 28.429688 30.402344 C 28.480469 30.515625 28.542969 30.613281 28.617188 30.679688 C 28.6875 30.746094 28.765625 30.78125 28.851562 30.78125 C 28.957031 30.78125 29.050781 30.738281 29.121094 30.644531 C 29.195312 30.554688 29.261719 30.4375 29.320312 30.296875 L 29.210938 30.074219 C 29.164062 30.179688 29.113281 30.269531 29.054688 30.339844 C 29 30.410156 28.933594 30.445312 28.859375 30.445312 C 28.796875 30.445312 28.742188 30.421875 28.691406 30.371094 C 28.640625 30.320312 28.59375 30.253906 28.558594 30.164062 C 28.519531 30.074219 28.488281 29.972656 28.46875 29.855469 C 28.445312 29.734375 28.433594 29.609375 28.433594 29.472656 C 28.433594 29.339844 28.445312 29.214844 28.464844 29.097656 C 28.488281 28.980469 28.515625 28.875 28.550781 28.792969 C 28.589844 28.703125 28.632812 28.636719 28.683594 28.585938 C 28.734375 28.535156 28.789062 28.507812 28.847656 28.507812 C 28.925781 28.507812 28.992188 28.546875 29.046875 28.617188 C 29.101562 28.691406 29.148438 28.78125 29.199219 28.882812 L 29.308594 28.625 C 29.285156 28.5625 29.253906 28.507812 29.222656 28.453125 C 29.191406 28.398438 29.15625 28.351562 29.121094 28.308594 C 29.085938 28.269531 29.042969 28.238281 29 28.214844 C 28.953125 28.191406 28.90625 28.179688 28.851562 28.179688 C 28.765625 28.1875 28.6875 28.222656 28.617188 28.289062 "/>
</clipPath>
<linearGradient id="linear14" gradientUnits="userSpaceOnUse" x1="-100.6461" y1="192.6517" x2="-100.2191" y2="192.6517" gradientTransform="matrix(71.826521,-29.120056,-13.484164,-155.114721,9833.816227,26990.614628)">
<stop offset="0" style="stop-color:rgb(92.156863%,65.882353%,28.627451%);stop-opacity:1;"/>
<stop offset="0.083" style="stop-color:rgb(92.54902%,67.45098%,30.588235%);stop-opacity:1;"/>
<stop offset="0.1965" style="stop-color:rgb(93.72549%,72.941176%,36.470588%);stop-opacity:1;"/>
<stop offset="0.3271" style="stop-color:rgb(95.294118%,81.568627%,45.882353%);stop-opacity:1;"/>
<stop offset="0.4553" style="stop-color:rgb(97.647059%,92.156863%,57.254902%);stop-opacity:1;"/>
<stop offset="1" style="stop-color:rgb(92.941176%,68.627451%,23.137255%);stop-opacity:1;"/>
</linearGradient>
<clipPath id="clip30">
  <path d="M 29 28 L 31 28 L 31 31 L 29 31 Z M 29 28 "/>
</clipPath>
<clipPath id="clip31">
  <path d="M 29.714844 29.007812 C 29.734375 28.90625 29.761719 28.820312 29.796875 28.742188 C 29.828125 28.664062 29.863281 28.605469 29.90625 28.5625 C 29.949219 28.519531 29.996094 28.5 30.046875 28.5 C 30.105469 28.5 30.15625 28.523438 30.199219 28.570312 C 30.242188 28.617188 30.28125 28.679688 30.308594 28.757812 C 30.339844 28.835938 30.363281 28.925781 30.378906 29.027344 C 30.398438 29.128906 30.410156 29.238281 30.410156 29.347656 L 29.675781 29.347656 C 29.679688 29.222656 29.695312 29.109375 29.714844 29.007812 M 29.828125 28.285156 C 29.761719 28.351562 29.703125 28.445312 29.65625 28.558594 C 29.605469 28.679688 29.570312 28.816406 29.539062 28.976562 C 29.511719 29.132812 29.5 29.304688 29.5 29.480469 C 29.5 29.675781 29.515625 29.851562 29.542969 30.011719 C 29.578125 30.171875 29.617188 30.308594 29.667969 30.421875 C 29.722656 30.539062 29.78125 30.621094 29.851562 30.6875 C 29.921875 30.746094 29.996094 30.78125 30.078125 30.78125 C 30.1875 30.78125 30.277344 30.738281 30.351562 30.652344 C 30.425781 30.566406 30.492188 30.457031 30.550781 30.3125 L 30.445312 30.105469 C 30.398438 30.210938 30.34375 30.296875 30.289062 30.359375 C 30.230469 30.425781 30.160156 30.457031 30.082031 30.457031 C 30.03125 30.457031 29.980469 30.4375 29.9375 30.402344 C 29.890625 30.363281 29.847656 30.308594 29.8125 30.238281 C 29.773438 30.167969 29.746094 30.078125 29.722656 29.972656 C 29.699219 29.867188 29.683594 29.75 29.675781 29.613281 L 30.585938 29.613281 C 30.589844 29.589844 30.589844 29.570312 30.589844 29.550781 L 30.589844 29.496094 C 30.589844 29.316406 30.578125 29.144531 30.554688 28.980469 C 30.53125 28.820312 30.496094 28.683594 30.449219 28.5625 C 30.402344 28.445312 30.34375 28.351562 30.277344 28.28125 C 30.210938 28.214844 30.132812 28.179688 30.050781 28.179688 C 29.972656 28.1875 29.898438 28.21875 29.828125 28.285156 "/>
</clipPath>
<linearGradient id="linear15" gradientUnits="userSpaceOnUse" x1="-100.6461" y1="192.6558" x2="-100.2191" y2="192.6558" gradientTransform="matrix(71.826521,-29.120056,-13.484164,-155.114721,9833.9133,26991.731756)">
<stop offset="0" style="stop-color:rgb(92.156863%,65.882353%,28.627451%);stop-opacity:1;"/>
<stop offset="0.083" style="stop-color:rgb(92.54902%,67.45098%,30.588235%);stop-opacity:1;"/>
<stop offset="0.1965" style="stop-color:rgb(93.72549%,72.941176%,36.470588%);stop-opacity:1;"/>
<stop offset="0.3271" style="stop-color:rgb(95.294118%,81.568627%,45.882353%);stop-opacity:1;"/>
<stop offset="0.4553" style="stop-color:rgb(97.647059%,92.156863%,57.254902%);stop-opacity:1;"/>
<stop offset="1" style="stop-color:rgb(92.941176%,68.627451%,23.137255%);stop-opacity:1;"/>
</linearGradient>
<clipPath id="clip32">
  <path d="M 30 28 L 32 28 L 32 31 L 30 31 Z M 30 28 "/>
</clipPath>
<clipPath id="clip33">
  <path d="M 31.085938 28.246094 C 31.035156 28.277344 30.996094 28.324219 30.960938 28.386719 C 30.925781 28.449219 30.898438 28.527344 30.878906 28.613281 C 30.859375 28.703125 30.851562 28.800781 30.851562 28.90625 L 30.851562 28.917969 C 30.851562 29.03125 30.859375 29.128906 30.886719 29.207031 C 30.910156 29.285156 30.9375 29.347656 30.972656 29.398438 C 31.011719 29.449219 31.050781 29.496094 31.097656 29.523438 C 31.144531 29.558594 31.1875 29.589844 31.234375 29.621094 C 31.269531 29.644531 31.304688 29.667969 31.339844 29.691406 C 31.375 29.71875 31.40625 29.746094 31.433594 29.78125 C 31.460938 29.8125 31.480469 29.851562 31.496094 29.898438 C 31.511719 29.941406 31.519531 29.996094 31.519531 30.058594 L 31.519531 30.070312 C 31.519531 30.191406 31.5 30.285156 31.453125 30.355469 C 31.410156 30.429688 31.351562 30.460938 31.28125 30.460938 C 31.214844 30.460938 31.144531 30.433594 31.078125 30.382812 C 31.011719 30.328125 30.945312 30.25 30.882812 30.148438 L 30.796875 30.410156 C 30.863281 30.523438 30.9375 30.613281 31.023438 30.679688 C 31.105469 30.746094 31.191406 30.777344 31.273438 30.777344 C 31.332031 30.777344 31.386719 30.761719 31.433594 30.726562 C 31.484375 30.695312 31.527344 30.644531 31.5625 30.582031 C 31.601562 30.515625 31.628906 30.4375 31.652344 30.347656 C 31.671875 30.253906 31.683594 30.148438 31.683594 30.03125 L 31.683594 30.019531 C 31.683594 29.910156 31.671875 29.8125 31.652344 29.734375 C 31.628906 29.65625 31.601562 29.59375 31.5625 29.539062 C 31.527344 29.484375 31.488281 29.441406 31.445312 29.402344 C 31.402344 29.367188 31.355469 29.335938 31.3125 29.308594 C 31.273438 29.285156 31.238281 29.257812 31.199219 29.230469 C 31.164062 29.203125 31.132812 29.175781 31.105469 29.144531 C 31.078125 29.113281 31.058594 29.074219 31.039062 29.03125 C 31.023438 28.988281 31.015625 28.9375 31.015625 28.878906 L 31.015625 28.871094 C 31.015625 28.769531 31.035156 28.683594 31.074219 28.613281 C 31.113281 28.542969 31.167969 28.507812 31.238281 28.507812 C 31.292969 28.507812 31.351562 28.53125 31.410156 28.574219 C 31.46875 28.617188 31.523438 28.675781 31.578125 28.75 L 31.65625 28.472656 C 31.597656 28.390625 31.53125 28.324219 31.457031 28.273438 C 31.386719 28.222656 31.3125 28.195312 31.242188 28.195312 C 31.183594 28.195312 31.132812 28.210938 31.085938 28.246094 "/>
</clipPath>
<linearGradient id="linear16" gradientUnits="userSpaceOnUse" x1="-100.6461" y1="192.6598" x2="-100.2191" y2="192.6598" gradientTransform="matrix(71.826521,-29.120056,-13.484164,-155.114721,9834.007306,26992.817092)">
<stop offset="0" style="stop-color:rgb(92.156863%,65.882353%,28.627451%);stop-opacity:1;"/>
<stop offset="0.083" style="stop-color:rgb(92.54902%,67.45098%,30.588235%);stop-opacity:1;"/>
<stop offset="0.1965" style="stop-color:rgb(93.72549%,72.941176%,36.470588%);stop-opacity:1;"/>
<stop offset="0.3271" style="stop-color:rgb(95.294118%,81.568627%,45.882353%);stop-opacity:1;"/>
<stop offset="0.4553" style="stop-color:rgb(97.647059%,92.156863%,57.254902%);stop-opacity:1;"/>
<stop offset="1" style="stop-color:rgb(92.941176%,68.627451%,23.137255%);stop-opacity:1;"/>
</linearGradient>
<clipPath id="clip34">
  <path d="M 0 0 L 11 0 L 11 32 L 0 32 Z M 0 0 "/>
</clipPath>
<clipPath id="clip35">
  <path d="M 0.320312 0.875 C 0.324219 6.851562 0.324219 12.835938 0.332031 18.8125 C 0.332031 19.847656 0.339844 20.882812 0.367188 21.917969 C 0.398438 23.160156 0.589844 24.3125 0.851562 25.414062 C 1.152344 26.671875 1.542969 27.777344 2.058594 28.664062 C 2.058594 28.664062 2.066406 28.664062 2.070312 28.664062 C 2.082031 28.660156 2.09375 28.652344 2.105469 28.644531 C 2.105469 28.269531 2.105469 27.886719 2.105469 27.511719 C 2.109375 25.34375 2.109375 23.175781 2.105469 21.011719 C 2.101562 19.886719 2.171875 18.8125 2.421875 17.800781 C 2.917969 15.78125 3.683594 14.527344 4.734375 14.234375 C 5.425781 14.042969 6.097656 14.261719 6.703125 15.019531 C 6.773438 15.105469 6.84375 15.203125 6.910156 15.304688 C 7.6875 16.46875 8.125 18.082031 8.21875 20.078125 C 8.285156 21.46875 8.164062 22.816406 7.824219 24.039062 C 7.339844 25.78125 6.621094 26.8125 5.6875 27.230469 L 5.6875 15.542969 C 5.371094 15.542969 5.0625 15.46875 4.765625 15.570312 C 4.464844 15.667969 4.175781 15.933594 3.882812 16.128906 C 3.886719 16.265625 3.886719 16.402344 3.890625 16.535156 C 3.90625 17.394531 3.917969 18.195312 3.925781 18.945312 C 4.015625 25.699219 3.890625 28.378906 3.890625 30.324219 C 3.890625 30.433594 3.882812 30.542969 3.875 30.652344 C 3.878906 30.679688 3.882812 30.707031 3.886719 30.734375 C 4.605469 31.28125 5.34375 31.289062 6.082031 30.972656 C 7.480469 30.375 8.585938 28.796875 9.332031 26.1875 C 9.886719 24.242188 10.125 22.125 10.023438 19.824219 C 9.964844 18.542969 9.828125 17.320312 9.570312 16.183594 C 9.398438 15.4375 9.199219 14.753906 8.96875 14.144531 C 8.960938 14.121094 8.953125 14.097656 8.941406 14.074219 L 8.945312 10.019531 L 8.910156 9.765625 L 8.832031 9.570312 L 7.140625 7.554688 L 7.136719 7.890625 L 7.136719 11.183594 C 6.976562 11.039062 6.808594 10.910156 6.640625 10.792969 C 6.332031 10.59375 6.015625 10.476562 5.691406 10.316406 L 5.691406 8.03125 C 5.691406 7.898438 5.691406 7.765625 5.691406 7.636719 C 5.691406 7.519531 5.691406 7.398438 5.691406 7.285156 L 5.691406 6.890625 C 5.691406 6.742188 5.691406 6.597656 5.6875 6.46875 C 5.6875 6.277344 5.6875 6.109375 5.6875 5.980469 C 5.6875 5.902344 5.671875 5.808594 5.652344 5.730469 C 5.632812 5.648438 5.605469 5.574219 5.574219 5.53125 C 5.472656 5.394531 5.367188 5.261719 5.265625 5.132812 C 5.023438 4.835938 4.78125 4.542969 4.539062 4.253906 C 4.417969 4.105469 4.289062 3.960938 4.160156 3.824219 C 4.070312 3.71875 3.972656 3.617188 3.882812 3.515625 C 3.878906 3.542969 3.878906 3.570312 3.875 3.601562 C 3.875 3.789062 3.878906 3.976562 3.878906 4.160156 C 3.886719 5 3.890625 5.835938 3.890625 6.671875 C 3.890625 6.910156 3.890625 7.144531 3.886719 7.382812 C 3.886719 7.917969 3.886719 8.453125 3.882812 8.984375 C 3.882812 9.089844 3.882812 9.191406 3.882812 9.296875 L 3.878906 9.714844 C 3.878906 9.789062 3.878906 9.855469 3.878906 9.925781 C 3.878906 10.074219 3.878906 10.21875 3.878906 10.363281 C 3.875 10.449219 3.824219 10.695312 3.796875 10.714844 C 3.203125 11.121094 2.660156 11.742188 2.164062 12.542969 C 2.148438 12.566406 2.132812 12.589844 2.113281 12.613281 L 2.117188 12.628906 C 2.109375 12.644531 2.101562 12.660156 2.09375 12.679688 C 2.09375 12.65625 2.089844 12.628906 2.085938 12.605469 C 2.082031 9.664062 2.0625 6.722656 2.085938 3.78125 C 2.085938 3.726562 2.125 2.832031 1.949219 2.53125 C 1.9375 2.511719 1.832031 2.34375 1.683594 2.160156 C 1.648438 2.113281 1.617188 2.082031 1.609375 2.074219 C 1.511719 1.964844 1.171875 1.558594 0.320312 0.5 Z M 0.320312 0.875 "/>
</clipPath>
<linearGradient id="linear17" gradientUnits="userSpaceOnUse" x1="-100.1773" y1="194.0159" x2="-99.7503" y2="194.0159" gradientTransform="matrix(-43.752238,-107.874942,-49.951943,94.486217,5320.371934,-29106.126014)">
<stop offset="0" style="stop-color:rgb(92.156863%,65.882353%,28.627451%);stop-opacity:1;"/>
<stop offset="0.083" style="stop-color:rgb(92.54902%,67.45098%,30.588235%);stop-opacity:1;"/>
<stop offset="0.1965" style="stop-color:rgb(93.72549%,72.941176%,36.470588%);stop-opacity:1;"/>
<stop offset="0.3271" style="stop-color:rgb(95.294118%,81.568627%,45.882353%);stop-opacity:1;"/>
<stop offset="0.4553" style="stop-color:rgb(97.647059%,92.156863%,57.254902%);stop-opacity:1;"/>
<stop offset="1" style="stop-color:rgb(92.941176%,68.627451%,23.137255%);stop-opacity:1;"/>
</linearGradient>
<clipPath id="clip36">
  <path d="M 11 11 L 19 11 L 19 27 L 11 27 Z M 11 11 "/>
</clipPath>
<clipPath id="clip37">
  <path d="M 13.546875 14.945312 L 14.328125 14.945312 C 15.472656 14.945312 16.234375 16.328125 16.234375 18.71875 L 16.234375 18.765625 C 16.234375 21.175781 15.472656 22.542969 14.328125 22.542969 L 13.546875 22.542969 Z M 11.628906 11.273438 L 11.628906 26.214844 L 14.257812 26.214844 C 16.746094 26.214844 18.199219 23.015625 18.199219 18.699219 L 18.199219 18.65625 C 18.199219 14.347656 16.765625 11.273438 14.296875 11.273438 Z M 11.628906 11.273438 "/>
</clipPath>
<linearGradient id="linear18" gradientUnits="userSpaceOnUse" x1="-100.3968" y1="196.7139" x2="-99.9697" y2="196.7139" gradientTransform="matrix(-12.506517,-30.835896,-14.278691,27.008755,1570.318797,-8384.65153)">
<stop offset="0" style="stop-color:rgb(92.156863%,65.882353%,28.627451%);stop-opacity:1;"/>
<stop offset="0.083" style="stop-color:rgb(92.54902%,67.45098%,30.588235%);stop-opacity:1;"/>
<stop offset="0.1965" style="stop-color:rgb(93.72549%,72.941176%,36.470588%);stop-opacity:1;"/>
<stop offset="0.3271" style="stop-color:rgb(95.294118%,81.568627%,45.882353%);stop-opacity:1;"/>
<stop offset="0.4553" style="stop-color:rgb(97.647059%,92.156863%,57.254902%);stop-opacity:1;"/>
<stop offset="1" style="stop-color:rgb(92.941176%,68.627451%,23.137255%);stop-opacity:1;"/>
</linearGradient>
<clipPath id="clip38">
  <path d="M 18 11 L 25 11 L 25 27 L 18 27 Z M 18 11 "/>
</clipPath>
<clipPath id="clip39">
  <path d="M 18.941406 14.21875 L 20.238281 16.546875 C 20.78125 15.203125 21.144531 14.628906 21.609375 14.628906 C 22.074219 14.628906 22.378906 15.207031 22.378906 16.144531 C 22.378906 17.039062 22.132812 17.742188 21.492188 18.832031 L 18.902344 23.101562 L 18.902344 26.21875 L 24.378906 26.21875 L 24.378906 22.84375 L 21.523438 22.84375 L 22.707031 21.050781 C 23.734375 19.449219 24.308594 18.210938 24.308594 15.824219 L 24.308594 15.777344 C 24.308594 12.964844 23.269531 11.019531 21.757812 11.019531 C 20.414062 11.015625 19.683594 12.148438 18.941406 14.21875 "/>
</clipPath>
<linearGradient id="linear19" gradientUnits="userSpaceOnUse" x1="-100.0062" y1="197.2194" x2="-99.5792" y2="197.2194" gradientTransform="matrix(-12.141394,-29.935672,-13.861838,26.220244,1544.179597,-8139.049157)">
<stop offset="0" style="stop-color:rgb(92.156863%,65.882353%,28.627451%);stop-opacity:1;"/>
<stop offset="0.083" style="stop-color:rgb(92.54902%,67.45098%,30.588235%);stop-opacity:1;"/>
<stop offset="0.1965" style="stop-color:rgb(93.72549%,72.941176%,36.470588%);stop-opacity:1;"/>
<stop offset="0.3271" style="stop-color:rgb(95.294118%,81.568627%,45.882353%);stop-opacity:1;"/>
<stop offset="0.4553" style="stop-color:rgb(97.647059%,92.156863%,57.254902%);stop-opacity:1;"/>
<stop offset="1" style="stop-color:rgb(92.941176%,68.627451%,23.137255%);stop-opacity:1;"/>
</linearGradient>
<clipPath id="clip40">
  <path d="M 25 11 L 32 11 L 32 27 L 25 27 Z M 25 11 "/>
</clipPath>
<clipPath id="clip41">
  <path d="M 27.222656 20.128906 L 28.6875 20.128906 C 29.328125 20.128906 29.625 20.664062 29.625 21.476562 L 29.625 21.519531 C 29.625 22.394531 29.289062 22.886719 28.707031 22.886719 L 27.226562 22.886719 L 27.226562 20.128906 Z M 27.222656 14.605469 L 28.46875 14.605469 C 29.039062 14.605469 29.335938 15.074219 29.335938 15.882812 L 29.335938 15.929688 C 29.335938 16.804688 29.011719 17.230469 28.429688 17.230469 L 27.222656 17.230469 Z M 25.355469 11.273438 L 25.355469 26.214844 L 28.921875 26.214844 C 30.570312 26.214844 31.539062 24.65625 31.539062 22.09375 L 31.539062 22.050781 C 31.539062 20.023438 31.007812 19 30.167969 18.402344 C 30.78125 17.824219 31.234375 16.800781 31.234375 15.074219 L 31.234375 15.027344 C 31.234375 14.003906 31.066406 13.214844 30.789062 12.617188 C 30.382812 11.742188 29.773438 11.273438 28.902344 11.273438 Z M 25.355469 11.273438 "/>
</clipPath>
<linearGradient id="linear20" gradientUnits="userSpaceOnUse" x1="-99.747" y1="197.2829" x2="-99.32" y2="197.2829" gradientTransform="matrix(-13.036217,-32.141941,-14.88346,28.152682,1666.886763,-8735.177066)">
<stop offset="0" style="stop-color:rgb(92.156863%,65.882353%,28.627451%);stop-opacity:1;"/>
<stop offset="0.083" style="stop-color:rgb(92.54902%,67.45098%,30.588235%);stop-opacity:1;"/>
<stop offset="0.1965" style="stop-color:rgb(93.72549%,72.941176%,36.470588%);stop-opacity:1;"/>
<stop offset="0.3271" style="stop-color:rgb(95.294118%,81.568627%,45.882353%);stop-opacity:1;"/>
<stop offset="0.4553" style="stop-color:rgb(97.647059%,92.156863%,57.254902%);stop-opacity:1;"/>
<stop offset="1" style="stop-color:rgb(92.941176%,68.627451%,23.137255%);stop-opacity:1;"/>
</linearGradient>
</defs>
<g id="surface1">
<g clip-path="url(#clip1)" clip-rule="nonzero">
<g clip-path="url(#clip2)" clip-rule="nonzero">
<path style=" stroke:none;fill-rule:nonzero;fill:url(#linear0);" d="M 11.339844 28.273438 L 12.582031 27.769531 L 12.835938 30.695312 L 11.59375 31.199219 Z M 11.339844 28.273438 "/>
</g>
</g>
<g clip-path="url(#clip3)" clip-rule="nonzero">
<g clip-path="url(#clip4)" clip-rule="nonzero">
<path style=" stroke:none;fill-rule:nonzero;fill:url(#linear1);" d="M 12.578125 28.273438 L 13.957031 27.714844 L 14.214844 30.695312 L 12.839844 31.253906 Z M 12.578125 28.273438 "/>
</g>
</g>
<g clip-path="url(#clip5)" clip-rule="nonzero">
<g clip-path="url(#clip6)" clip-rule="nonzero">
<path style=" stroke:none;fill-rule:nonzero;fill:url(#linear2);" d="M 14.09375 28.28125 L 14.925781 27.941406 L 15.160156 30.640625 L 14.328125 30.976562 Z M 14.09375 28.28125 "/>
</g>
</g>
<g clip-path="url(#clip7)" clip-rule="nonzero">
<g clip-path="url(#clip8)" clip-rule="nonzero">
<path style=" stroke:none;fill-rule:nonzero;fill:url(#linear3);" d="M 14.933594 28.300781 L 16.332031 27.726562 L 16.652344 31.382812 L 15.25 31.949219 Z M 14.933594 28.300781 "/>
</g>
</g>
<g clip-path="url(#clip9)" clip-rule="nonzero">
<g clip-path="url(#clip10)" clip-rule="nonzero">
<path style=" stroke:none;fill-rule:nonzero;fill:url(#linear4);" d="M 16.398438 28.273438 L 17.777344 27.714844 L 18.035156 30.695312 L 16.660156 31.253906 Z M 16.398438 28.273438 "/>
</g>
</g>
<g clip-path="url(#clip11)" clip-rule="nonzero">
<g clip-path="url(#clip12)" clip-rule="nonzero">
<path style=" stroke:none;fill-rule:nonzero;fill:url(#linear5);" d="M 17.914062 28.28125 L 18.746094 27.941406 L 18.980469 30.640625 L 18.148438 30.976562 Z M 17.914062 28.28125 "/>
</g>
</g>
<g clip-path="url(#clip13)" clip-rule="nonzero">
<g clip-path="url(#clip14)" clip-rule="nonzero">
<path style=" stroke:none;fill-rule:nonzero;fill:url(#linear6);" d="M 18.671875 28.292969 L 19.863281 27.808594 L 20.117188 30.691406 L 18.921875 31.175781 Z M 18.671875 28.292969 "/>
</g>
</g>
<g clip-path="url(#clip15)" clip-rule="nonzero">
<g clip-path="url(#clip16)" clip-rule="nonzero">
<path style=" stroke:none;fill-rule:nonzero;fill:url(#linear7);" d="M 19.878906 27.597656 L 20.828125 27.214844 L 21.125 30.65625 L 20.175781 31.042969 Z M 19.878906 27.597656 "/>
</g>
</g>
<g clip-path="url(#clip17)" clip-rule="nonzero">
<g clip-path="url(#clip18)" clip-rule="nonzero">
<path style=" stroke:none;fill-rule:nonzero;fill:url(#linear8);" d="M 20.832031 28.273438 L 22.101562 27.757812 L 22.355469 30.695312 L 21.085938 31.210938 Z M 20.832031 28.273438 "/>
</g>
</g>
<g clip-path="url(#clip19)" clip-rule="nonzero">
<g clip-path="url(#clip20)" clip-rule="nonzero">
<path style=" stroke:none;fill-rule:nonzero;fill:url(#linear9);" d="M 22.792969 28.28125 L 23.867188 27.847656 L 24.117188 30.6875 L 23.042969 31.121094 Z M 22.792969 28.28125 "/>
</g>
</g>
<g clip-path="url(#clip21)" clip-rule="nonzero">
<g clip-path="url(#clip22)" clip-rule="nonzero">
<path style=" stroke:none;fill-rule:nonzero;fill:url(#linear10);" d="M 23.925781 28.273438 L 25.199219 27.757812 L 25.453125 30.695312 L 24.183594 31.210938 Z M 23.925781 28.273438 "/>
</g>
</g>
<g clip-path="url(#clip23)" clip-rule="nonzero">
<g clip-path="url(#clip24)" clip-rule="nonzero">
<path style=" stroke:none;fill-rule:nonzero;fill:url(#linear11);" d="M 25.324219 28.28125 L 26.15625 27.941406 L 26.390625 30.640625 L 25.558594 30.976562 Z M 25.324219 28.28125 "/>
</g>
</g>
<g clip-path="url(#clip25)" clip-rule="nonzero">
<g clip-path="url(#clip26)" clip-rule="nonzero">
<path style=" stroke:none;fill-rule:nonzero;fill:url(#linear12);" d="M 26.113281 28.324219 L 27.4375 27.785156 L 27.6875 30.660156 L 26.363281 31.195312 Z M 26.113281 28.324219 "/>
</g>
</g>
<g clip-path="url(#clip27)" clip-rule="nonzero">
<path style=" stroke:none;fill-rule:nonzero;fill:url(#linear13);" d="M 27.460938 27.402344 L 27.9375 27.207031 L 28.234375 30.609375 L 27.757812 30.800781 Z M 27.460938 27.402344 "/>
</g>
<g clip-path="url(#clip28)" clip-rule="nonzero">
<g clip-path="url(#clip29)" clip-rule="nonzero">
<path style=" stroke:none;fill-rule:nonzero;fill:url(#linear14);" d="M 28.042969 28.273438 L 29.285156 27.769531 L 29.539062 30.695312 L 28.296875 31.199219 Z M 28.042969 28.273438 "/>
</g>
</g>
<g clip-path="url(#clip30)" clip-rule="nonzero">
<g clip-path="url(#clip31)" clip-rule="nonzero">
<path style=" stroke:none;fill-rule:nonzero;fill:url(#linear15);" d="M 29.28125 28.273438 L 30.550781 27.757812 L 30.804688 30.695312 L 29.535156 31.210938 Z M 29.28125 28.273438 "/>
</g>
</g>
<g clip-path="url(#clip32)" clip-rule="nonzero">
<g clip-path="url(#clip33)" clip-rule="nonzero">
<path style=" stroke:none;fill-rule:nonzero;fill:url(#linear16);" d="M 30.578125 28.28125 L 31.648438 27.847656 L 31.894531 30.6875 L 30.824219 31.121094 Z M 30.578125 28.28125 "/>
</g>
</g>
<g clip-path="url(#clip34)" clip-rule="nonzero">
<g clip-path="url(#clip35)" clip-rule="nonzero">
<path style=" stroke:none;fill-rule:nonzero;fill:url(#linear17);" d="M 4.574219 41.78125 L -6.746094 13.867188 L 5.867188 -9.992188 L 17.1875 17.921875 Z M 4.574219 41.78125 "/>
</g>
</g>
<g clip-path="url(#clip36)" clip-rule="nonzero">
<g clip-path="url(#clip37)" clip-rule="nonzero">
<path style=" stroke:none;fill-rule:nonzero;fill:url(#linear18);" d="M 14.480469 33.246094 L 8.203125 17.757812 L 15.347656 4.242188 L 21.628906 19.726562 Z M 14.480469 33.246094 "/>
</g>
</g>
<g clip-path="url(#clip38)" clip-rule="nonzero">
<g clip-path="url(#clip39)" clip-rule="nonzero">
<path style=" stroke:none;fill-rule:nonzero;fill:url(#linear19);" d="M 21.28125 32.074219 L 15.414062 17.613281 L 22 5.15625 L 27.863281 19.617188 Z M 21.28125 32.074219 "/>
</g>
</g>
<g clip-path="url(#clip40)" clip-rule="nonzero">
<g clip-path="url(#clip41)" clip-rule="nonzero">
<path style=" stroke:none;fill-rule:nonzero;fill:url(#linear20);" d="M 28.042969 32.832031 L 21.925781 17.757812 L 28.855469 4.652344 L 34.96875 19.726562 Z M 28.042969 32.832031 "/>
</g>
</g>
</g>
</svg>
