<svg width="39" height="39" viewBox="0 0 39 39" fill="none" xmlns="http://www.w3.org/2000/svg">
<g clip-path="url(#clip0_115_312)">
<path d="M33.2871 0H5.71289C2.56306 0 0 2.56306 0 5.71289V33.2871C0 36.4369 2.56306 39 5.71289 39H33.2871C36.4369 39 39 36.4369 39 33.2871V5.71289C39 2.56306 36.4369 0 33.2871 0ZM19.5762 29.707C13.9058 29.707 9.29297 25.0942 9.29297 19.4238C9.29297 13.7535 13.9058 9.14062 19.5762 9.14062C25.2465 9.14062 29.8594 13.7535 29.8594 19.4238C29.8594 25.0942 25.2465 29.707 19.5762 29.707ZM31.002 11.4258C29.1119 11.4258 27.5742 9.88806 27.5742 7.99805C27.5742 6.10803 29.1119 4.57031 31.002 4.57031C32.892 4.57031 34.4297 6.10803 34.4297 7.99805C34.4297 9.88806 32.892 11.4258 31.002 11.4258Z" fill="white"/>
<path d="M31.002 6.85547C30.3715 6.85547 29.8594 7.36755 29.8594 7.99805C29.8594 8.62855 30.3715 9.14062 31.002 9.14062C31.6325 9.14062 32.1445 8.62855 32.1445 7.99805C32.1445 7.36755 31.6325 6.85547 31.002 6.85547Z" fill="white"/>
<path d="M19.5762 11.4258C15.1665 11.4258 11.5781 15.0142 11.5781 19.4238C11.5781 23.8335 15.1665 27.4219 19.5762 27.4219C23.9858 27.4219 27.5742 23.8335 27.5742 19.4238C27.5742 15.0142 23.9858 11.4258 19.5762 11.4258Z" fill="white"/>
</g>
<defs>
<clipPath id="clip0_115_312">
<rect width="39" height="39" fill="white"/>
</clipPath>
</defs>
</svg>
