<svg width="31" height="31" viewBox="0 0 31 31" fill="none" xmlns="http://www.w3.org/2000/svg">
<mask id="mask0_211_64" style="mask-type:alpha" maskUnits="userSpaceOnUse" x="0" y="0" width="31" height="31">
<rect x="0.108887" y="0.428467" width="30" height="30" fill="#D9D9D9"/>
</mask>
<g mask="url(#mask0_211_64)">
<path d="M3.10889 27.4285L5.33746 19.7713C4.97555 18.9904 4.70412 18.1904 4.52317 17.3713C4.34222 16.5523 4.25174 15.7142 4.25174 14.857C4.25174 13.2761 4.55174 11.7904 5.15174 10.3999C5.75174 9.00942 6.56603 7.7999 7.5946 6.77132C8.62317 5.74275 9.8327 4.92847 11.2232 4.32847C12.6136 3.72847 14.0994 3.42847 15.6803 3.42847C17.2613 3.42847 18.747 3.72847 20.1375 4.32847C21.5279 4.92847 22.7375 5.74275 23.766 6.77132C24.7946 7.7999 25.6089 9.00942 26.2089 10.3999C26.8089 11.7904 27.1089 13.2761 27.1089 14.857C27.1089 16.438 26.8089 17.9237 26.2089 19.3142C25.6089 20.7047 24.7946 21.9142 23.766 22.9428C22.7375 23.9713 21.5279 24.7856 20.1375 25.3856C18.747 25.9856 17.2613 26.2856 15.6803 26.2856C14.8232 26.2856 13.9851 26.1951 13.166 26.0142C12.347 25.8332 11.547 25.5618 10.766 25.1999L3.10889 27.4285ZM6.48032 24.057L10.1375 22.9713C10.4041 22.8951 10.6756 22.8666 10.9517 22.8856C11.2279 22.9047 11.4898 22.9713 11.7375 23.0856C12.347 23.3904 12.9851 23.6189 13.6517 23.7713C14.3184 23.9237 14.9946 23.9999 15.6803 23.9999C18.2327 23.9999 20.3946 23.1142 22.166 21.3428C23.9375 19.5713 24.8232 17.4094 24.8232 14.857C24.8232 12.3047 23.9375 10.1428 22.166 8.37132C20.3946 6.5999 18.2327 5.71418 15.6803 5.71418C13.1279 5.71418 10.966 6.5999 9.1946 8.37132C7.42317 10.1428 6.53746 12.3047 6.53746 14.857C6.53746 15.5428 6.61365 16.2189 6.76603 16.8856C6.91841 17.5523 7.14698 18.1904 7.45174 18.7999C7.58508 19.0475 7.65651 19.3094 7.66603 19.5856C7.67555 19.8618 7.64222 20.1332 7.56603 20.3999L6.48032 24.057ZM14.5375 19.4285H16.8232V15.9999H20.2517V13.7142H16.8232V10.2856H14.5375V13.7142H11.1089V15.9999H14.5375V19.4285Z" fill="white"/>
</g>
</svg>
