<svg xmlns="http://www.w3.org/2000/svg" width="1440" height="530" fill="none"><g clip-path="url(#a)"><path fill="#000" d="M0 0h1440v530H0z"/><g clip-path="url(#b)"><mask id="c" width="1957" height="530" x="0" y="0" maskUnits="userSpaceOnUse" style="mask-type:alpha"><path fill="#238878" d="M1956.08 0H.874v530H1956.08V0Z"/></mask><g mask="url(#c)"><path fill="url(#d)" d="M1183.97 335.701c185.4 0 335.7-150.298 335.7-335.7 0-185.403-150.3-335.701-335.7-335.701-185.407 0-335.705 150.298-335.705 335.7 0 185.403 150.298 335.701 335.705 335.701Z"/></g><path fill="#32C0AA" d="M153.103 163.524c2.535.976 5.804 2.857 8.563 5.516 1.121 1.078 2.211 2.288 2.969 3.638 2.052 3.655 3.48 7.574 4.025 11.796.171 1.331.159 2.642-.301 3.94-.087.246.034.591.126.867.321.949.761 1.862.984 2.834.195.841-.053 1.684-.68 2.351-.575.614-1.084.676-1.771.212-.353-.239-.715-.483-1.005-.792-3.394-3.618-7.665-5.562-12.425-6.497-2.984-.589-6.004-.978-8.999-1.508-3.188-.565-6.158-1.639-8.873-3.496-4.607-3.153-8.101-11.541-6.569-17.055.226-.813.486-1.63.848-2.387.495-1.044 1.346-1.555 2.531-1.593 1.065-.036 2.131-.209 3.19-.378 5.687-.916 11.084.2 17.387 2.552Zm-18.22.943c-.021.387-.025.528-.039.672-.299 3.125.673 5.952 1.856 8.734a7.932 7.932 0 0 0 2.456 3.205c1.384 1.078 2.885 1.975 4.598 2.36 2.269.505 4.554.952 6.858 1.274 4.258.591 8.463 1.318 12.306 3.373.069.034.168.01.286.016-.731-2.017-1.5-3.958-2.143-5.944-1.198-3.704-3.609-6.321-6.925-8.135-3.884-2.125-8.067-3.493-12.348-4.508-2.227-.527-4.538-.7-6.905-1.047Z" opacity=".5"/></g></g><defs><clipPath id="a"><path fill="#fff" d="M0 0h1440v530H0z"/></clipPath><clipPath id="b"><path fill="#fff" d="M0 0h1920v530H0z"/></clipPath><linearGradient id="d" x1="1351.22" x2="1007.98" y1="-141.981" y2="189.213" gradientUnits="userSpaceOnUse"><stop stop-color="#156256"/><stop offset="1" stop-color="#1F7E6F" stop-opacity="0"/></linearGradient></defs></svg>