<svg width="12" height="12" viewBox="0 0 12 12" fill="none" xmlns="http://www.w3.org/2000/svg">
<g clip-path="url(#clip0_117_182)">
<path d="M11.6401 2.04641C11.2121 2.23106 10.7463 2.36395 10.2665 2.41571C10.7646 2.11975 11.1377 1.6522 11.3155 1.10076C10.8481 1.37884 10.3361 1.57384 9.80197 1.6771C9.57877 1.43849 9.30886 1.2484 9.00896 1.11868C8.70908 0.988954 8.38571 0.92238 8.05898 0.923102C6.73703 0.923102 5.67388 1.99465 5.67388 3.3096C5.67388 3.49425 5.69626 3.67891 5.73263 3.85656C3.75321 3.75305 1.98782 2.8074 0.814151 1.35955C0.600297 1.72482 0.48823 2.14073 0.489609 2.56399C0.489609 3.39213 0.910675 4.12235 1.55276 4.55181C1.17437 4.5369 0.804838 4.4329 0.474222 4.24825V4.27763C0.474222 5.4373 1.29397 6.39834 2.3865 6.61937C2.18136 6.67265 1.97034 6.6999 1.7584 6.7005C1.60313 6.7005 1.45624 6.68511 1.30795 6.66413C1.61011 7.60977 2.49002 8.29663 3.53778 8.31901C2.71804 8.9611 1.69125 9.3388 0.576341 9.3388C0.3763 9.3388 0.191647 9.3318 0 9.30942C1.05756 9.98788 2.31235 10.3796 3.66368 10.3796C8.05059 10.3796 10.4511 6.74527 10.4511 3.59078C10.4511 3.48726 10.4511 3.38374 10.4441 3.28022C10.9085 2.9403 11.3155 2.51923 11.6401 2.04641Z" fill="#252525"/>
</g>
<defs>
<clipPath id="clip0_117_182">
<rect width="12" height="11" fill="white" transform="translate(0 0.5)"/>
</clipPath>
</defs>
</svg>
