<svg width="12" height="14" viewBox="0 0 12 14" fill="none" xmlns="http://www.w3.org/2000/svg">
<g clip-path="url(#clip0_117_185)">
<path d="M5.8185 3.83375C4.16597 3.83375 2.8323 5.16742 2.8323 6.81995C2.8323 8.47248 4.16597 9.80615 5.8185 9.80615C7.47102 9.80615 8.80469 8.47248 8.80469 6.81995C8.80469 5.16742 7.47102 3.83375 5.8185 3.83375ZM5.8185 8.76076C4.74981 8.76076 3.87769 7.88864 3.87769 6.81995C3.87769 5.75127 4.74981 4.87914 5.8185 4.87914C6.88718 4.87914 7.75931 5.75127 7.75931 6.81995C7.75931 7.88864 6.88718 8.76076 5.8185 8.76076ZM8.92699 3.0155C8.54117 3.0155 8.22958 3.32708 8.22958 3.7129C8.22958 4.09874 8.54117 4.41032 8.92699 4.41032C9.31283 4.41032 9.62437 4.1002 9.62437 3.7129C9.62455 3.62129 9.60655 3.53055 9.57157 3.44589C9.53658 3.36122 9.48517 3.28429 9.42037 3.21951C9.35557 3.15473 9.27868 3.10336 9.19402 3.06835C9.10936 3.03334 9.01862 3.01538 8.92699 3.0155ZM11.6394 6.81995C11.6394 6.01626 11.6467 5.21984 11.6016 4.4176C11.5565 3.48578 11.3439 2.65879 10.6626 1.97739C9.97966 1.29454 9.15413 1.08342 8.22231 1.03829C7.41861 0.993153 6.62219 1.00043 5.81995 1.00043C5.01626 1.00043 4.21984 0.993153 3.4176 1.03829C2.48578 1.08342 1.65879 1.296 0.977391 1.97739C0.294539 2.66024 0.0834234 3.48578 0.0382883 4.4176C-0.00684681 5.2213 0.000433071 6.01772 0.000433071 6.81995C0.000433071 7.62219 -0.00684681 8.42007 0.0382883 9.22231C0.0834234 10.1541 0.295996 10.9811 0.977391 11.6626C1.66024 12.3454 2.48578 12.5565 3.4176 12.6016C4.2213 12.6467 5.01771 12.6394 5.81995 12.6394C6.62365 12.6394 7.42006 12.6467 8.22231 12.6016C9.15413 12.5565 9.98114 12.3439 10.6626 11.6626C11.3454 10.9797 11.5565 10.1541 11.6016 9.22231C11.6482 8.42007 11.6394 7.62365 11.6394 6.81995ZM10.3582 10.2531C10.252 10.5181 10.1238 10.7161 9.91855 10.9199C9.71326 11.1252 9.51665 11.2534 9.25172 11.3597C8.48584 11.6639 6.66733 11.5955 5.8185 11.5955C4.96966 11.5955 3.1497 11.6639 2.38386 11.3612C2.11887 11.2548 1.92086 11.1267 1.71702 10.9214C1.51173 10.7161 1.38361 10.5196 1.27732 10.2546C0.974474 9.4873 1.04291 7.66879 1.04291 6.81995C1.04291 5.97112 0.974474 4.15115 1.27732 3.38531C1.38361 3.12033 1.51173 2.92232 1.71702 2.71848C1.92232 2.51464 2.11887 2.38506 2.38386 2.27878C3.1497 1.97593 4.96966 2.04437 5.8185 2.04437C6.66733 2.04437 8.4873 1.97593 9.25311 2.27878C9.51812 2.38506 9.71612 2.51319 9.91994 2.71848C10.1252 2.92378 10.2534 3.12033 10.3597 3.38531C10.6626 4.15115 10.5941 5.97112 10.5941 6.81995C10.5941 7.66879 10.6626 9.4873 10.3582 10.2531Z" fill="#252525"/>
</g>
<defs>
<clipPath id="clip0_117_185">
<rect width="12" height="13" fill="white" transform="translate(0 0.5)"/>
</clipPath>
</defs>
</svg>
