<?xml version="1.0" encoding="utf-8"?>
<!-- Generator: Adobe Illustrator 27.7.0, SVG Export Plug-In . SVG Version: 6.00 Build 0)  -->
<svg version="1.1" id="Layer_1" xmlns="http://www.w3.org/2000/svg" xmlns:xlink="http://www.w3.org/1999/xlink" x="0px" y="0px"
	 viewBox="0 0 203.46 94" style="enable-background:new 0 0 203.46 94;" xml:space="preserve">
<style type="text/css">
	
		.st0{clip-path:url(#SVGID_00000014636117432193980940000011001486908342155177_);fill:url(#SVGID_00000157994111251889664820000015836360384920605570_);}
	
		.st1{clip-path:url(#SVGID_00000010996127857823408430000017975176940730316218_);fill:url(#SVGID_00000023970775575417081680000015948356175859985333_);}
	
		.st2{clip-path:url(#SVGID_00000004539223391201386650000009283639801226762906_);fill:url(#SVGID_00000055699048682787524810000008654334582094132637_);}
	
		.st3{clip-path:url(#SVGID_00000057106908225707908460000005895939976717278361_);fill:url(#SVGID_00000090290337734365787530000003652525582348123046_);}
	
		.st4{clip-path:url(#SVGID_00000045602204657228180960000001033423578208056474_);fill:url(#SVGID_00000057843453676756132570000016877379553711029901_);}
	
		.st5{clip-path:url(#SVGID_00000129909180998883540680000016933445961860842399_);fill:url(#SVGID_00000171708345901617060120000015023783355667887533_);}
	
		.st6{clip-path:url(#SVGID_00000085966767927616637640000014276314699012846208_);fill:url(#SVGID_00000015340835460502545890000001779428093286213556_);}
	
		.st7{clip-path:url(#SVGID_00000153691632429328889160000005240597672099660189_);fill:url(#SVGID_00000088114822700630303790000014548175861839667390_);}
	
		.st8{clip-path:url(#SVGID_00000008827926723111415310000017104683842709852032_);fill:url(#SVGID_00000101811288816862114250000011347687953627626897_);}
	
		.st9{clip-path:url(#SVGID_00000000189730536761335720000002398995882507462570_);fill:url(#SVGID_00000017495260049760601110000011369362431796012735_);}
	
		.st10{clip-path:url(#SVGID_00000041265724344718519470000006319273221336966581_);fill:url(#SVGID_00000153664469805678498300000011642084176052272281_);}
	
		.st11{clip-path:url(#SVGID_00000072251811993419025790000011731564748792354971_);fill:url(#SVGID_00000033334279541038116530000014699226642762933164_);}
	
		.st12{clip-path:url(#SVGID_00000091713419116216379300000001410474290193955740_);fill:url(#SVGID_00000047024707674727367150000013976122981145977220_);}
	
		.st13{clip-path:url(#SVGID_00000119799031938677668690000011917929343012840631_);fill:url(#SVGID_00000004508903672821176840000012932267422863279760_);}
	
		.st14{clip-path:url(#SVGID_00000173850702587127522350000005464285462872543141_);fill:url(#SVGID_00000094605563222591578880000017173289846657379234_);}
	
		.st15{clip-path:url(#SVGID_00000147216361645282758320000002979842844863371182_);fill:url(#SVGID_00000123411885268007566480000016654901908295366335_);}
	
		.st16{clip-path:url(#SVGID_00000180326547578252988150000006574301268812366212_);fill:url(#SVGID_00000048469222245339857190000006978637215890783932_);}
	
		.st17{clip-path:url(#SVGID_00000011029578366648236070000001145396944772895676_);fill:url(#SVGID_00000047739316329332173640000000095973567955598249_);}
	
		.st18{clip-path:url(#SVGID_00000054988527409140409590000007504107808490364290_);fill:url(#SVGID_00000144334582874008820140000010286352562601678724_);}
	
		.st19{clip-path:url(#SVGID_00000070114173266325872630000018364906743500841902_);fill:url(#SVGID_00000085251192490202766200000016774828583130870180_);}
	
		.st20{clip-path:url(#SVGID_00000044168032094093013950000017295797759692231591_);fill:url(#SVGID_00000168834152461490026400000008382885855245980828_);}
</style>
<g>
	<g>
		<defs>
			<path id="SVGID_1_" d="M75.75,83.18c-0.46,0.2-0.85,0.48-1.19,0.83c-0.34,0.35-0.6,0.76-0.79,1.23
				c-0.19,0.47-0.28,0.96-0.28,1.48s0.09,1.01,0.28,1.47c0.19,0.46,0.45,0.87,0.79,1.21c0.34,0.34,0.73,0.62,1.19,0.82
				c0.46,0.2,0.96,0.3,1.49,0.3c0.69,0,1.27-0.13,1.74-0.4c0.47-0.27,0.89-0.61,1.25-1.03l-0.69-0.65
				c-0.29,0.31-0.62,0.57-0.98,0.78c-0.36,0.21-0.78,0.31-1.25,0.31c-0.39,0-0.74-0.07-1.07-0.22c-0.33-0.15-0.61-0.35-0.85-0.61
				c-0.24-0.26-0.43-0.56-0.57-0.91c-0.14-0.35-0.21-0.72-0.21-1.12c0-0.4,0.07-0.76,0.2-1.11c0.13-0.34,0.32-0.65,0.55-0.9
				c0.24-0.26,0.51-0.46,0.83-0.61c0.32-0.15,0.67-0.22,1.04-0.22c0.5,0,0.92,0.11,1.27,0.32c0.34,0.22,0.66,0.48,0.96,0.78
				l0.72-0.76c-0.17-0.18-0.35-0.35-0.55-0.51c-0.2-0.16-0.42-0.3-0.65-0.42c-0.24-0.12-0.49-0.21-0.78-0.28
				c-0.28-0.07-0.6-0.1-0.95-0.1C76.71,82.88,76.21,82.98,75.75,83.18"/>
		</defs>
		<clipPath id="SVGID_00000166668835683821959440000009435483818511265421_">
			<use xlink:href="#SVGID_1_"  style="overflow:visible;"/>
		</clipPath>
		
			<linearGradient id="SVGID_00000155137624619690149270000012281309422645481662_" gradientUnits="userSpaceOnUse" x1="-100.6461" y1="192.5952" x2="-100.2191" y2="192.5952" gradientTransform="matrix(456.682 -85.734 -85.734 -456.682 62516.1641 79419.3828)">
			<stop  offset="0" style="stop-color:#EBA849"/>
			<stop  offset="0.083" style="stop-color:#ECAC4E"/>
			<stop  offset="0.1965" style="stop-color:#EFBA5D"/>
			<stop  offset="0.3271" style="stop-color:#F3D075"/>
			<stop  offset="0.4553" style="stop-color:#F9EB92"/>
			<stop  offset="1" style="stop-color:#EDAF3B"/>
		</linearGradient>
		
			<polygon style="clip-path:url(#SVGID_00000166668835683821959440000009435483818511265421_);fill:url(#SVGID_00000155137624619690149270000012281309422645481662_);" points="
			72.1,83.14 80,81.65 81.62,90.26 73.72,91.75 		"/>
	</g>
	<g>
		<defs>
			<path id="SVGID_00000131354658199701847760000001300049661912265648_" d="M84.11,89.31c-0.33-0.15-0.62-0.35-0.86-0.61
				c-0.24-0.25-0.43-0.56-0.57-0.9c-0.14-0.35-0.2-0.72-0.2-1.12c0-0.4,0.07-0.76,0.2-1.11c0.13-0.34,0.31-0.65,0.55-0.9
				c0.23-0.26,0.51-0.46,0.84-0.61c0.33-0.15,0.69-0.22,1.09-0.22c0.39,0,0.75,0.08,1.08,0.23c0.33,0.15,0.62,0.36,0.86,0.61
				c0.25,0.26,0.44,0.56,0.57,0.91c0.14,0.35,0.2,0.72,0.2,1.12s-0.07,0.77-0.2,1.11c-0.13,0.34-0.32,0.64-0.55,0.9
				c-0.24,0.25-0.52,0.46-0.85,0.6c-0.33,0.15-0.7,0.22-1.09,0.22C84.8,89.53,84.44,89.46,84.11,89.31 M83.65,83.18
				c-0.47,0.2-0.87,0.48-1.21,0.83c-0.34,0.35-0.61,0.76-0.79,1.23c-0.19,0.47-0.28,0.96-0.28,1.48s0.09,1.01,0.28,1.47
				c0.19,0.46,0.45,0.87,0.79,1.21c0.34,0.34,0.74,0.62,1.2,0.82c0.46,0.2,0.97,0.3,1.52,0.3c0.55,0,1.06-0.1,1.53-0.3
				c0.47-0.2,0.88-0.48,1.22-0.83c0.34-0.35,0.61-0.76,0.8-1.23C88.9,87.7,89,87.21,89,86.69c0-0.52-0.09-1.01-0.28-1.47
				c-0.19-0.46-0.45-0.87-0.79-1.21c-0.34-0.34-0.74-0.62-1.21-0.82c-0.47-0.2-0.98-0.3-1.52-0.3
				C84.63,82.88,84.12,82.98,83.65,83.18"/>
		</defs>
		<clipPath id="SVGID_00000150793842727811682160000009886405388957585843_">
			<use xlink:href="#SVGID_00000131354658199701847760000001300049661912265648_"  style="overflow:visible;"/>
		</clipPath>
		
			<linearGradient id="SVGID_00000114786278606601698610000010621013782997938342_" gradientUnits="userSpaceOnUse" x1="-100.6461" y1="192.5992" x2="-100.2191" y2="192.5992" gradientTransform="matrix(456.682 -85.734 -85.734 -456.682 62516.793 79422.7422)">
			<stop  offset="0" style="stop-color:#EBA849"/>
			<stop  offset="0.083" style="stop-color:#ECAC4E"/>
			<stop  offset="0.1965" style="stop-color:#EFBA5D"/>
			<stop  offset="0.3271" style="stop-color:#F3D075"/>
			<stop  offset="0.4553" style="stop-color:#F9EB92"/>
			<stop  offset="1" style="stop-color:#EDAF3B"/>
		</linearGradient>
		
			<polygon style="clip-path:url(#SVGID_00000150793842727811682160000009886405388957585843_);fill:url(#SVGID_00000114786278606601698610000010621013782997938342_);" points="
			79.98,83.14 88.74,81.49 90.39,90.26 81.63,91.91 		"/>
	</g>
	<g>
		<defs>
			<path id="SVGID_00000017503811771583357410000006496980803811776144_" d="M94.07,83.03c-0.3,0.09-0.58,0.23-0.84,0.42
				c-0.25,0.18-0.48,0.4-0.68,0.66c-0.2,0.25-0.36,0.53-0.5,0.84v-1.91h-1.09v7.32h1.09v-2.92c0-0.55,0.08-1.03,0.23-1.45
				c0.15-0.42,0.36-0.77,0.62-1.06c0.27-0.28,0.57-0.5,0.93-0.64c0.35-0.14,0.73-0.21,1.13-0.21h0.09V82.9c-0.03,0-0.06,0-0.09,0
				C94.64,82.9,94.35,82.95,94.07,83.03"/>
		</defs>
		<clipPath id="SVGID_00000107546666808973212670000013205806916888878721_">
			<use xlink:href="#SVGID_00000017503811771583357410000006496980803811776144_"  style="overflow:visible;"/>
		</clipPath>
		
			<linearGradient id="SVGID_00000001650886654112934070000002251534548827286446_" gradientUnits="userSpaceOnUse" x1="-100.6461" y1="192.6021" x2="-100.2191" y2="192.6021" gradientTransform="matrix(456.682 -85.734 -85.734 -456.682 62517.2969 79425.4219)">
			<stop  offset="0" style="stop-color:#EBA849"/>
			<stop  offset="0.083" style="stop-color:#ECAC4E"/>
			<stop  offset="0.1965" style="stop-color:#EFBA5D"/>
			<stop  offset="0.3271" style="stop-color:#F3D075"/>
			<stop  offset="0.4553" style="stop-color:#F9EB92"/>
			<stop  offset="1" style="stop-color:#EDAF3B"/>
		</linearGradient>
		
			<polygon style="clip-path:url(#SVGID_00000107546666808973212670000013205806916888878721_);fill:url(#SVGID_00000001650886654112934070000002251534548827286446_);" points="
			89.62,83.16 94.91,82.16 96.4,90.1 91.11,91.09 		"/>
	</g>
	<g>
		<defs>
			<path id="SVGID_00000108290599111413595570000010928940987839840386_" d="M99.42,89.31c-0.32-0.14-0.6-0.33-0.85-0.57
				c-0.25-0.24-0.45-0.54-0.59-0.9c-0.15-0.35-0.22-0.74-0.22-1.16c0-0.42,0.07-0.81,0.22-1.16c0.15-0.35,0.35-0.64,0.59-0.89
				c0.25-0.25,0.53-0.43,0.85-0.57c0.32-0.14,0.64-0.2,0.98-0.2c0.35,0,0.68,0.07,0.99,0.2c0.31,0.13,0.59,0.32,0.82,0.57
				c0.24,0.25,0.42,0.55,0.56,0.9c0.14,0.35,0.21,0.74,0.21,1.17c0,0.44-0.07,0.84-0.21,1.19c-0.14,0.35-0.32,0.65-0.55,0.89
				c-0.23,0.24-0.5,0.42-0.82,0.55c-0.32,0.13-0.65,0.19-1,0.19C100.06,89.52,99.74,89.45,99.42,89.31 M99.67,83.01
				c-0.28,0.09-0.53,0.21-0.76,0.35c-0.23,0.15-0.43,0.32-0.62,0.52c-0.18,0.2-0.35,0.41-0.5,0.62v-1.47h-1.09v9.59h1.09v-3.67
				c0.14,0.21,0.3,0.41,0.49,0.59c0.18,0.19,0.39,0.35,0.62,0.5c0.23,0.14,0.48,0.25,0.76,0.34c0.28,0.08,0.59,0.13,0.93,0.13
				c0.44,0,0.88-0.09,1.3-0.26c0.42-0.17,0.79-0.42,1.12-0.75c0.33-0.33,0.59-0.72,0.79-1.2c0.2-0.47,0.3-1.01,0.3-1.62
				c0-0.6-0.1-1.14-0.3-1.61c-0.2-0.47-0.46-0.87-0.79-1.2c-0.33-0.33-0.71-0.57-1.13-0.74c-0.42-0.17-0.85-0.26-1.28-0.26
				C100.26,82.88,99.95,82.92,99.67,83.01"/>
		</defs>
		<clipPath id="SVGID_00000040554802586979191540000018118434972405216148_">
			<use xlink:href="#SVGID_00000108290599111413595570000010928940987839840386_"  style="overflow:visible;"/>
		</clipPath>
		
			<linearGradient id="SVGID_00000131369941000918716240000017741230297895594678_" gradientUnits="userSpaceOnUse" x1="-100.6461" y1="192.6077" x2="-100.2191" y2="192.6077" gradientTransform="matrix(456.682 -85.734 -85.734 -456.682 62518.2344 79430.4141)">
			<stop  offset="0" style="stop-color:#EBA849"/>
			<stop  offset="0.083" style="stop-color:#ECAC4E"/>
			<stop  offset="0.1965" style="stop-color:#EFBA5D"/>
			<stop  offset="0.3271" style="stop-color:#F3D075"/>
			<stop  offset="0.4553" style="stop-color:#F9EB92"/>
			<stop  offset="1" style="stop-color:#EDAF3B"/>
		</linearGradient>
		
			<polygon style="clip-path:url(#SVGID_00000040554802586979191540000018118434972405216148_);fill:url(#SVGID_00000131369941000918716240000017741230297895594678_);" points="
			94.94,83.21 103.85,81.53 105.87,92.29 96.96,93.96 		"/>
	</g>
	<g>
		<defs>
			<path id="SVGID_00000039845068282398450930000014869566067140363944_" d="M108.41,89.31c-0.33-0.15-0.62-0.35-0.86-0.61
				c-0.24-0.25-0.43-0.56-0.57-0.9c-0.14-0.35-0.21-0.72-0.21-1.12c0-0.4,0.07-0.76,0.2-1.11c0.13-0.34,0.31-0.65,0.54-0.9
				c0.23-0.26,0.51-0.46,0.84-0.61c0.33-0.15,0.69-0.22,1.09-0.22c0.39,0,0.75,0.08,1.08,0.23c0.33,0.15,0.62,0.36,0.86,0.61
				c0.25,0.26,0.44,0.56,0.57,0.91c0.14,0.35,0.21,0.72,0.21,1.12s-0.07,0.77-0.2,1.11c-0.13,0.34-0.32,0.64-0.55,0.9
				c-0.24,0.25-0.52,0.46-0.85,0.6c-0.33,0.15-0.69,0.22-1.09,0.22C109.1,89.53,108.74,89.46,108.41,89.31 M107.95,83.18
				c-0.47,0.2-0.87,0.48-1.21,0.83c-0.34,0.35-0.6,0.76-0.79,1.23c-0.19,0.47-0.28,0.96-0.28,1.48s0.09,1.01,0.28,1.47
				c0.19,0.46,0.45,0.87,0.79,1.21c0.34,0.34,0.74,0.62,1.2,0.82c0.46,0.2,0.97,0.3,1.52,0.3c0.55,0,1.06-0.1,1.53-0.3
				c0.47-0.2,0.88-0.48,1.22-0.83c0.34-0.35,0.61-0.76,0.8-1.23c0.19-0.47,0.29-0.96,0.29-1.48c0-0.52-0.09-1.01-0.28-1.47
				c-0.19-0.46-0.45-0.87-0.79-1.21c-0.34-0.34-0.74-0.62-1.21-0.82c-0.47-0.2-0.98-0.3-1.52-0.3
				C108.93,82.88,108.41,82.98,107.95,83.18"/>
		</defs>
		<clipPath id="SVGID_00000030465411135179178270000009411596723256760969_">
			<use xlink:href="#SVGID_00000039845068282398450930000014869566067140363944_"  style="overflow:visible;"/>
		</clipPath>
		
			<linearGradient id="SVGID_00000084513376156292494640000009737604723528265876_" gradientUnits="userSpaceOnUse" x1="-100.6461" y1="192.6121" x2="-100.2191" y2="192.6121" gradientTransform="matrix(456.682 -85.734 -85.734 -456.682 62518.7305 79433.0547)">
			<stop  offset="0" style="stop-color:#EBA849"/>
			<stop  offset="0.083" style="stop-color:#ECAC4E"/>
			<stop  offset="0.1965" style="stop-color:#EFBA5D"/>
			<stop  offset="0.3271" style="stop-color:#F3D075"/>
			<stop  offset="0.4553" style="stop-color:#F9EB92"/>
			<stop  offset="1" style="stop-color:#EDAF3B"/>
		</linearGradient>
		
			<polygon style="clip-path:url(#SVGID_00000030465411135179178270000009411596723256760969_);fill:url(#SVGID_00000084513376156292494640000009737604723528265876_);" points="
			104.27,83.14 113.03,81.49 114.68,90.26 105.92,91.91 		"/>
	</g>
	<g>
		<defs>
			<path id="SVGID_00000016765949151895636180000007865860232155168400_" d="M118.36,83.03c-0.3,0.09-0.58,0.23-0.84,0.42
				c-0.25,0.18-0.48,0.4-0.68,0.66c-0.2,0.25-0.36,0.53-0.5,0.84v-1.91h-1.09v7.32h1.09v-2.92c0-0.55,0.07-1.03,0.23-1.45
				c0.15-0.42,0.36-0.77,0.62-1.06c0.27-0.28,0.57-0.5,0.93-0.64c0.35-0.14,0.73-0.21,1.13-0.21h0.09V82.9c-0.03,0-0.06,0-0.09,0
				C118.93,82.9,118.64,82.95,118.36,83.03"/>
		</defs>
		<clipPath id="SVGID_00000107567323622650513780000002024076516999217312_">
			<use xlink:href="#SVGID_00000016765949151895636180000007865860232155168400_"  style="overflow:visible;"/>
		</clipPath>
		
			<linearGradient id="SVGID_00000016064290624555216730000004266098093672252591_" gradientUnits="userSpaceOnUse" x1="-100.6461" y1="192.6151" x2="-100.2191" y2="192.6151" gradientTransform="matrix(456.682 -85.734 -85.734 -456.682 62519.2344 79435.7344)">
			<stop  offset="0" style="stop-color:#EBA849"/>
			<stop  offset="0.083" style="stop-color:#ECAC4E"/>
			<stop  offset="0.1965" style="stop-color:#EFBA5D"/>
			<stop  offset="0.3271" style="stop-color:#F3D075"/>
			<stop  offset="0.4553" style="stop-color:#F9EB92"/>
			<stop  offset="1" style="stop-color:#EDAF3B"/>
		</linearGradient>
		
			<polygon style="clip-path:url(#SVGID_00000107567323622650513780000002024076516999217312_);fill:url(#SVGID_00000016064290624555216730000004266098093672252591_);" points="
			113.91,83.16 119.2,82.16 120.69,90.1 115.4,91.09 		"/>
	</g>
	<g>
		<defs>
			<path id="SVGID_00000176020002286585470540000000222086336921730446_" d="M122.35,89.55c-0.22-0.07-0.42-0.16-0.59-0.29
				c-0.17-0.13-0.3-0.28-0.4-0.46c-0.1-0.18-0.15-0.39-0.15-0.62c0-0.47,0.18-0.85,0.55-1.12c0.37-0.27,0.89-0.41,1.58-0.41
				c0.45,0,0.85,0.03,1.21,0.1c0.35,0.07,0.67,0.14,0.94,0.21v0.71c0,0.29-0.06,0.56-0.19,0.8c-0.13,0.24-0.3,0.45-0.52,0.62
				c-0.22,0.18-0.48,0.31-0.78,0.41c-0.3,0.1-0.62,0.15-0.95,0.15C122.8,89.65,122.57,89.61,122.35,89.55 M121.98,83.1
				c-0.42,0.11-0.82,0.26-1.23,0.45l0.33,0.89c0.34-0.16,0.69-0.29,1.04-0.39c0.35-0.1,0.75-0.15,1.18-0.15
				c0.69,0,1.23,0.17,1.61,0.5c0.38,0.34,0.57,0.83,0.57,1.49v0.26c-0.33-0.09-0.67-0.17-1.02-0.23c-0.35-0.06-0.76-0.08-1.23-0.08
				c-0.46,0-0.89,0.05-1.27,0.16c-0.38,0.1-0.71,0.25-0.99,0.45c-0.28,0.2-0.49,0.45-0.64,0.74c-0.15,0.3-0.23,0.64-0.23,1.03
				c0,0.39,0.08,0.72,0.23,1.01c0.16,0.28,0.36,0.52,0.62,0.72c0.26,0.19,0.55,0.34,0.88,0.43c0.33,0.09,0.66,0.14,1,0.14
				c0.65,0,1.19-0.13,1.62-0.38c0.43-0.25,0.77-0.55,1.03-0.88v1.1h1.05v-4.48c0-0.97-0.27-1.71-0.81-2.2
				c-0.54-0.5-1.31-0.74-2.31-0.74C122.87,82.93,122.39,82.99,121.98,83.1"/>
		</defs>
		<clipPath id="SVGID_00000027598148063174919940000011675647308011568527_">
			<use xlink:href="#SVGID_00000176020002286585470540000000222086336921730446_"  style="overflow:visible;"/>
		</clipPath>
		
			<linearGradient id="SVGID_00000040558985351938208350000000755054845630759808_" gradientUnits="userSpaceOnUse" x1="-100.6461" y1="192.6205" x2="-100.2191" y2="192.6205" gradientTransform="matrix(456.682 -85.734 -85.734 -456.682 62519.918 79439.3828)">
			<stop  offset="0" style="stop-color:#EBA849"/>
			<stop  offset="0.083" style="stop-color:#ECAC4E"/>
			<stop  offset="0.1965" style="stop-color:#EFBA5D"/>
			<stop  offset="0.3271" style="stop-color:#F3D075"/>
			<stop  offset="0.4553" style="stop-color:#F9EB92"/>
			<stop  offset="1" style="stop-color:#EDAF3B"/>
		</linearGradient>
		
			<polygon style="clip-path:url(#SVGID_00000027598148063174919940000011675647308011568527_);fill:url(#SVGID_00000040558985351938208350000000755054845630759808_);" points="
			118.72,83.19 126.3,81.77 127.9,90.25 120.31,91.68 		"/>
	</g>
	<g>
		<defs>
			<path id="SVGID_00000170978823345554360500000010004911381613202050_" d="M129.16,80.82v2.21h-1.02v0.96h1.02v4.42
				c0,0.37,0.05,0.68,0.16,0.95c0.1,0.26,0.25,0.48,0.43,0.64c0.18,0.17,0.4,0.29,0.66,0.36c0.26,0.08,0.53,0.11,0.82,0.11
				c0.26,0,0.5-0.03,0.72-0.08c0.21-0.05,0.41-0.13,0.6-0.23v-0.93c-0.19,0.09-0.37,0.16-0.53,0.2c-0.16,0.04-0.34,0.06-0.53,0.06
				c-0.37,0-0.67-0.09-0.89-0.27c-0.23-0.18-0.34-0.5-0.34-0.95v-4.28h2.32v-0.96h-2.32v-2.21H129.16z"/>
		</defs>
		<clipPath id="SVGID_00000092445037948994750500000013102612207263721138_">
			<use xlink:href="#SVGID_00000170978823345554360500000010004911381613202050_"  style="overflow:visible;"/>
		</clipPath>
		
			<linearGradient id="SVGID_00000152966159059595080580000002573717508093488523_" gradientUnits="userSpaceOnUse" x1="-100.6461" y1="192.6203" x2="-100.2191" y2="192.6203" gradientTransform="matrix(456.682 -85.734 -85.734 -456.682 62519.9531 79439.5547)">
			<stop  offset="0" style="stop-color:#EBA849"/>
			<stop  offset="0.083" style="stop-color:#ECAC4E"/>
			<stop  offset="0.1965" style="stop-color:#EFBA5D"/>
			<stop  offset="0.3271" style="stop-color:#F3D075"/>
			<stop  offset="0.4553" style="stop-color:#F9EB92"/>
			<stop  offset="1" style="stop-color:#EDAF3B"/>
		</linearGradient>
		
			<polygon style="clip-path:url(#SVGID_00000092445037948994750500000013102612207263721138_);fill:url(#SVGID_00000152966159059595080580000002573717508093488523_);" points="
			126.39,81.15 132.42,80.02 134.32,90.15 128.29,91.29 		"/>
	</g>
	<g>
		<defs>
			<path id="SVGID_00000116228106188188675460000003159917524507644043_" d="M135.2,85.3c0.13-0.3,0.3-0.56,0.51-0.79
				c0.2-0.22,0.44-0.4,0.72-0.52c0.27-0.13,0.57-0.19,0.89-0.19c0.37,0,0.69,0.07,0.97,0.21c0.28,0.14,0.51,0.32,0.7,0.55
				c0.19,0.23,0.34,0.49,0.45,0.79c0.11,0.3,0.18,0.62,0.2,0.95h-4.69C134.99,85.93,135.07,85.6,135.2,85.3 M135.94,83.17
				c-0.43,0.2-0.8,0.47-1.11,0.81c-0.31,0.35-0.56,0.75-0.73,1.22c-0.18,0.47-0.26,0.97-0.26,1.49c0,0.57,0.1,1.09,0.29,1.56
				c0.2,0.47,0.46,0.88,0.79,1.21c0.33,0.34,0.72,0.59,1.17,0.78c0.44,0.18,0.91,0.28,1.42,0.28c0.7,0,1.28-0.13,1.76-0.38
				c0.47-0.25,0.89-0.58,1.26-1l-0.68-0.61c-0.3,0.31-0.63,0.56-1,0.75c-0.36,0.19-0.8,0.28-1.31,0.28c-0.32,0-0.63-0.05-0.92-0.16
				c-0.29-0.11-0.56-0.27-0.79-0.48c-0.24-0.21-0.43-0.47-0.58-0.78c-0.15-0.31-0.24-0.66-0.28-1.06h5.79
				c0.01-0.07,0.01-0.13,0.01-0.18v-0.16c0-0.54-0.08-1.04-0.23-1.52c-0.15-0.47-0.37-0.88-0.67-1.23
				c-0.29-0.35-0.65-0.63-1.08-0.83c-0.42-0.2-0.91-0.3-1.44-0.3C136.84,82.88,136.36,82.97,135.94,83.17"/>
		</defs>
		<clipPath id="SVGID_00000016779954427461955520000001304379653668466311_">
			<use xlink:href="#SVGID_00000116228106188188675460000003159917524507644043_"  style="overflow:visible;"/>
		</clipPath>
		
			<linearGradient id="SVGID_00000163055608625652699570000006543637993669931407_" gradientUnits="userSpaceOnUse" x1="-100.6461" y1="192.6272" x2="-100.2191" y2="192.6272" gradientTransform="matrix(456.682 -85.734 -85.734 -456.682 62520.9648 79444.9531)">
			<stop  offset="0" style="stop-color:#EBA849"/>
			<stop  offset="0.083" style="stop-color:#ECAC4E"/>
			<stop  offset="0.1965" style="stop-color:#EFBA5D"/>
			<stop  offset="0.3271" style="stop-color:#F3D075"/>
			<stop  offset="0.4553" style="stop-color:#F9EB92"/>
			<stop  offset="1" style="stop-color:#EDAF3B"/>
		</linearGradient>
		
			<polygon style="clip-path:url(#SVGID_00000016779954427461955520000001304379653668466311_);fill:url(#SVGID_00000163055608625652699570000006543637993669931407_);" points="
			132.45,83.14 140.52,81.62 142.15,90.26 134.07,91.78 		"/>
	</g>
	<g>
		<defs>
			<path id="SVGID_00000170992907166391221530000003342227953997894562_" d="M148.16,83.05c-0.31,0.1-0.57,0.24-0.79,0.42
				c-0.22,0.18-0.39,0.41-0.52,0.67c-0.12,0.26-0.18,0.55-0.18,0.86v0.03c0,0.34,0.07,0.62,0.22,0.85c0.15,0.23,0.33,0.42,0.57,0.57
				c0.23,0.15,0.49,0.28,0.78,0.37c0.29,0.1,0.57,0.19,0.86,0.28c0.23,0.07,0.46,0.14,0.69,0.21c0.22,0.08,0.42,0.16,0.59,0.26
				c0.17,0.1,0.3,0.21,0.4,0.35c0.1,0.13,0.15,0.29,0.15,0.47v0.03c0,0.36-0.14,0.64-0.42,0.85c-0.28,0.21-0.65,0.31-1.09,0.31
				c-0.43,0-0.87-0.08-1.3-0.24c-0.43-0.16-0.84-0.39-1.24-0.69l-0.55,0.78c0.42,0.33,0.89,0.59,1.43,0.79
				c0.54,0.19,1.07,0.29,1.6,0.29c0.37,0,0.71-0.05,1.03-0.15c0.32-0.1,0.59-0.24,0.82-0.43c0.23-0.19,0.41-0.42,0.55-0.69
				c0.14-0.27,0.21-0.58,0.21-0.93v-0.03c0-0.33-0.07-0.61-0.21-0.84c-0.14-0.23-0.32-0.42-0.55-0.58c-0.23-0.16-0.48-0.29-0.76-0.4
				c-0.28-0.1-0.56-0.2-0.84-0.28c-0.25-0.07-0.48-0.15-0.71-0.23c-0.23-0.08-0.43-0.16-0.6-0.25c-0.18-0.09-0.31-0.21-0.42-0.33
				c-0.1-0.13-0.16-0.28-0.16-0.45v-0.03c0-0.3,0.13-0.55,0.38-0.76c0.26-0.2,0.6-0.3,1.04-0.3c0.36,0,0.72,0.06,1.1,0.19
				c0.37,0.13,0.73,0.3,1.07,0.52l0.5-0.82c-0.38-0.24-0.8-0.44-1.26-0.59c-0.46-0.15-0.92-0.22-1.37-0.22
				C148.8,82.9,148.47,82.95,148.16,83.05"/>
		</defs>
		<clipPath id="SVGID_00000013897259401595888300000008439903913553498301_">
			<use xlink:href="#SVGID_00000170992907166391221530000003342227953997894562_"  style="overflow:visible;"/>
		</clipPath>
		
			<linearGradient id="SVGID_00000162311366122317042310000002133386225999846040_" gradientUnits="userSpaceOnUse" x1="-100.6461" y1="192.6334" x2="-100.2191" y2="192.6334" gradientTransform="matrix(456.682 -85.734 -85.734 -456.682 62521.9023 79449.9531)">
			<stop  offset="0" style="stop-color:#EBA849"/>
			<stop  offset="0.083" style="stop-color:#ECAC4E"/>
			<stop  offset="0.1965" style="stop-color:#EFBA5D"/>
			<stop  offset="0.3271" style="stop-color:#F3D075"/>
			<stop  offset="0.4553" style="stop-color:#F9EB92"/>
			<stop  offset="1" style="stop-color:#EDAF3B"/>
		</linearGradient>
		
			<polygon style="clip-path:url(#SVGID_00000013897259401595888300000008439903913553498301_);fill:url(#SVGID_00000162311366122317042310000002133386225999846040_);" points="
			144.93,83.16 151.76,81.88 153.33,90.24 146.5,91.52 		"/>
	</g>
	<g>
		<defs>
			<path id="SVGID_00000050622638688570003720000012286551292773774727_" d="M154.89,85.3c0.13-0.3,0.3-0.56,0.51-0.79
				c0.2-0.22,0.44-0.4,0.72-0.52c0.27-0.13,0.57-0.19,0.89-0.19c0.37,0,0.69,0.07,0.97,0.21c0.28,0.14,0.51,0.32,0.7,0.55
				c0.19,0.23,0.34,0.49,0.45,0.79c0.11,0.3,0.18,0.62,0.2,0.95h-4.69C154.68,85.93,154.76,85.6,154.89,85.3 M155.62,83.17
				c-0.43,0.2-0.8,0.47-1.11,0.81c-0.31,0.35-0.56,0.75-0.73,1.22c-0.18,0.47-0.26,0.97-0.26,1.49c0,0.57,0.1,1.09,0.29,1.56
				c0.2,0.47,0.46,0.88,0.79,1.21c0.33,0.34,0.72,0.59,1.17,0.78c0.44,0.18,0.91,0.28,1.42,0.28c0.7,0,1.28-0.13,1.76-0.38
				c0.47-0.25,0.89-0.58,1.26-1l-0.68-0.61c-0.3,0.31-0.63,0.56-1,0.75c-0.36,0.19-0.8,0.28-1.31,0.28c-0.32,0-0.63-0.05-0.92-0.16
				c-0.29-0.11-0.56-0.27-0.79-0.48c-0.24-0.21-0.43-0.47-0.58-0.78c-0.15-0.31-0.24-0.66-0.28-1.06h5.79
				c0.01-0.07,0.01-0.13,0.01-0.18v-0.16c0-0.54-0.07-1.04-0.23-1.52c-0.15-0.47-0.37-0.88-0.67-1.23
				c-0.29-0.35-0.65-0.63-1.08-0.83c-0.42-0.2-0.91-0.3-1.44-0.3C156.52,82.88,156.05,82.97,155.62,83.17"/>
		</defs>
		<clipPath id="SVGID_00000093871388143443430370000006401993615955144064_">
			<use xlink:href="#SVGID_00000050622638688570003720000012286551292773774727_"  style="overflow:visible;"/>
		</clipPath>
		
			<linearGradient id="SVGID_00000019642308349371746570000011689069863215869366_" gradientUnits="userSpaceOnUse" x1="-100.6461" y1="192.6376" x2="-100.2191" y2="192.6376" gradientTransform="matrix(456.682 -85.734 -85.734 -456.682 62522.5352 79453.3203)">
			<stop  offset="0" style="stop-color:#EBA849"/>
			<stop  offset="0.083" style="stop-color:#ECAC4E"/>
			<stop  offset="0.1965" style="stop-color:#EFBA5D"/>
			<stop  offset="0.3271" style="stop-color:#F3D075"/>
			<stop  offset="0.4553" style="stop-color:#F9EB92"/>
			<stop  offset="1" style="stop-color:#EDAF3B"/>
		</linearGradient>
		
			<polygon style="clip-path:url(#SVGID_00000093871388143443430370000006401993615955144064_);fill:url(#SVGID_00000019642308349371746570000011689069863215869366_);" points="
			152.13,83.14 160.21,81.62 161.83,90.26 153.76,91.78 		"/>
	</g>
	<g>
		<defs>
			<path id="SVGID_00000023282484417612090310000006048986754253693375_" d="M165.46,83.03c-0.3,0.09-0.58,0.23-0.84,0.42
				c-0.25,0.18-0.48,0.4-0.68,0.66c-0.2,0.25-0.36,0.53-0.5,0.84v-1.91h-1.09v7.32h1.09v-2.92c0-0.55,0.08-1.03,0.23-1.45
				c0.15-0.42,0.36-0.77,0.62-1.06c0.27-0.28,0.57-0.5,0.93-0.64c0.35-0.14,0.73-0.21,1.13-0.21h0.09V82.9c-0.03,0-0.06,0-0.09,0
				C166.03,82.9,165.74,82.95,165.46,83.03"/>
		</defs>
		<clipPath id="SVGID_00000098204126524592262910000015574625199894295196_">
			<use xlink:href="#SVGID_00000023282484417612090310000006048986754253693375_"  style="overflow:visible;"/>
		</clipPath>
		
			<linearGradient id="SVGID_00000033359376530138667590000017935256846070536108_" gradientUnits="userSpaceOnUse" x1="-100.6461" y1="192.6401" x2="-100.2191" y2="192.6401" gradientTransform="matrix(456.682 -85.734 -85.734 -456.682 62522.9883 79455.7344)">
			<stop  offset="0" style="stop-color:#EBA849"/>
			<stop  offset="0.083" style="stop-color:#ECAC4E"/>
			<stop  offset="0.1965" style="stop-color:#EFBA5D"/>
			<stop  offset="0.3271" style="stop-color:#F3D075"/>
			<stop  offset="0.4553" style="stop-color:#F9EB92"/>
			<stop  offset="1" style="stop-color:#EDAF3B"/>
		</linearGradient>
		
			<polygon style="clip-path:url(#SVGID_00000098204126524592262910000015574625199894295196_);fill:url(#SVGID_00000033359376530138667590000017935256846070536108_);" points="
			161.01,83.16 166.3,82.16 167.79,90.1 162.5,91.09 		"/>
	</g>
	<g>
		<defs>
			<polygon id="SVGID_00000159443117806656379780000000701846505921432209_" points="173.52,83.03 171.04,89.11 168.58,83.03 
				167.37,83.03 170.55,90.41 171.51,90.41 174.7,83.03 			"/>
		</defs>
		<clipPath id="SVGID_00000024709528170693078860000016264538618106443937_">
			<use xlink:href="#SVGID_00000159443117806656379780000000701846505921432209_"  style="overflow:visible;"/>
		</clipPath>
		
			<linearGradient id="SVGID_00000021116887146517097620000002217172653465161900_" gradientUnits="userSpaceOnUse" x1="-100.6461" y1="192.6435" x2="-100.2191" y2="192.6435" gradientTransform="matrix(456.682 -85.734 -85.734 -456.682 62523.5234 79458.5781)">
			<stop  offset="0" style="stop-color:#EBA849"/>
			<stop  offset="0.083" style="stop-color:#ECAC4E"/>
			<stop  offset="0.1965" style="stop-color:#EFBA5D"/>
			<stop  offset="0.3271" style="stop-color:#F3D075"/>
			<stop  offset="0.4553" style="stop-color:#F9EB92"/>
			<stop  offset="1" style="stop-color:#EDAF3B"/>
		</linearGradient>
		
			<polygon style="clip-path:url(#SVGID_00000024709528170693078860000016264538618106443937_);fill:url(#SVGID_00000021116887146517097620000002217172653465161900_);" points="
			166.04,83.28 174.45,81.7 176.04,90.16 167.62,91.74 		"/>
	</g>
	<g>
		<defs>
			<path id="SVGID_00000054983537857078497710000016803216396658085249_" d="M176.51,90.35h1.09v-7.32h-1.09V90.35z M176.44,81.43
				h1.25v-1.2h-1.25V81.43z"/>
		</defs>
		<clipPath id="SVGID_00000163053745752008011830000003634560369685909639_">
			<use xlink:href="#SVGID_00000054983537857078497710000016803216396658085249_"  style="overflow:visible;"/>
		</clipPath>
		
			<linearGradient id="SVGID_00000142168849620077346710000012336422241408107669_" gradientUnits="userSpaceOnUse" x1="-100.6461" y1="192.6441" x2="-100.2191" y2="192.6441" gradientTransform="matrix(456.682 -85.734 -85.734 -456.682 62523.5195 79458.5547)">
			<stop  offset="0" style="stop-color:#EBA849"/>
			<stop  offset="0.083" style="stop-color:#ECAC4E"/>
			<stop  offset="0.1965" style="stop-color:#EFBA5D"/>
			<stop  offset="0.3271" style="stop-color:#F3D075"/>
			<stop  offset="0.4553" style="stop-color:#F9EB92"/>
			<stop  offset="1" style="stop-color:#EDAF3B"/>
		</linearGradient>
		
			<polygon style="clip-path:url(#SVGID_00000163053745752008011830000003634560369685909639_);fill:url(#SVGID_00000142168849620077346710000012336422241408107669_);" points="
			174.6,80.57 177.64,80 179.52,90.01 176.48,90.58 		"/>
	</g>
	<g>
		<defs>
			<path id="SVGID_00000011018924562966278840000018334294551179682490_" d="M181.94,83.18c-0.46,0.2-0.86,0.48-1.19,0.83
				c-0.34,0.35-0.6,0.76-0.79,1.23c-0.19,0.47-0.28,0.96-0.28,1.48s0.09,1.01,0.28,1.47c0.19,0.46,0.45,0.87,0.79,1.21
				c0.34,0.34,0.73,0.62,1.19,0.82c0.46,0.2,0.96,0.3,1.49,0.3c0.69,0,1.27-0.13,1.73-0.4c0.47-0.27,0.89-0.61,1.25-1.03l-0.69-0.65
				c-0.29,0.31-0.62,0.57-0.98,0.78c-0.36,0.21-0.78,0.31-1.25,0.31c-0.39,0-0.74-0.07-1.07-0.22c-0.33-0.15-0.61-0.35-0.85-0.61
				c-0.24-0.26-0.43-0.56-0.57-0.91c-0.14-0.35-0.21-0.72-0.21-1.12c0-0.4,0.06-0.76,0.2-1.11c0.13-0.34,0.32-0.65,0.55-0.9
				c0.24-0.26,0.51-0.46,0.84-0.61c0.32-0.15,0.67-0.22,1.03-0.22c0.5,0,0.92,0.11,1.27,0.32c0.34,0.22,0.66,0.48,0.96,0.78
				l0.72-0.76c-0.17-0.18-0.35-0.35-0.55-0.51c-0.2-0.16-0.42-0.3-0.65-0.42c-0.24-0.12-0.5-0.21-0.78-0.28
				c-0.28-0.07-0.6-0.1-0.95-0.1C182.9,82.88,182.4,82.98,181.94,83.18"/>
		</defs>
		<clipPath id="SVGID_00000129902898436529045260000013635085721202740138_">
			<use xlink:href="#SVGID_00000011018924562966278840000018334294551179682490_"  style="overflow:visible;"/>
		</clipPath>
		
			<linearGradient id="SVGID_00000028307347722912644470000008485047745701725838_" gradientUnits="userSpaceOnUse" x1="-100.6461" y1="192.6517" x2="-100.2191" y2="192.6517" gradientTransform="matrix(456.682 -85.734 -85.734 -456.682 62524.6328 79464.4844)">
			<stop  offset="0" style="stop-color:#EBA849"/>
			<stop  offset="0.083" style="stop-color:#ECAC4E"/>
			<stop  offset="0.1965" style="stop-color:#EFBA5D"/>
			<stop  offset="0.3271" style="stop-color:#F3D075"/>
			<stop  offset="0.4553" style="stop-color:#F9EB92"/>
			<stop  offset="1" style="stop-color:#EDAF3B"/>
		</linearGradient>
		
			<polygon style="clip-path:url(#SVGID_00000129902898436529045260000013635085721202740138_);fill:url(#SVGID_00000028307347722912644470000008485047745701725838_);" points="
			178.29,83.14 186.19,81.65 187.81,90.26 179.91,91.75 		"/>
	</g>
	<g>
		<defs>
			<path id="SVGID_00000034070026892597529190000014762926696094971538_" d="M188.93,85.3c0.13-0.3,0.3-0.56,0.51-0.79
				c0.21-0.22,0.44-0.4,0.72-0.52c0.27-0.13,0.57-0.19,0.89-0.19c0.37,0,0.69,0.07,0.96,0.21c0.28,0.14,0.51,0.32,0.7,0.55
				c0.19,0.23,0.34,0.49,0.45,0.79c0.11,0.3,0.18,0.62,0.2,0.95h-4.69C188.71,85.93,188.8,85.6,188.93,85.3 M189.66,83.17
				c-0.43,0.2-0.8,0.47-1.11,0.81c-0.31,0.35-0.55,0.75-0.73,1.22c-0.18,0.47-0.26,0.97-0.26,1.49c0,0.57,0.1,1.09,0.29,1.56
				c0.2,0.47,0.46,0.88,0.79,1.21c0.33,0.34,0.72,0.59,1.17,0.78c0.44,0.18,0.91,0.28,1.42,0.28c0.7,0,1.28-0.13,1.76-0.38
				c0.47-0.25,0.89-0.58,1.26-1l-0.68-0.61c-0.3,0.31-0.63,0.56-1,0.75c-0.36,0.19-0.8,0.28-1.31,0.28c-0.32,0-0.63-0.05-0.92-0.16
				c-0.29-0.11-0.56-0.27-0.79-0.48c-0.24-0.21-0.43-0.47-0.58-0.78c-0.15-0.31-0.24-0.66-0.28-1.06h5.79
				c0.01-0.07,0.01-0.13,0.01-0.18v-0.16c0-0.54-0.08-1.04-0.23-1.52c-0.15-0.47-0.37-0.88-0.67-1.23
				c-0.29-0.35-0.65-0.63-1.08-0.83c-0.42-0.2-0.91-0.3-1.45-0.3C190.56,82.88,190.09,82.97,189.66,83.17"/>
		</defs>
		<clipPath id="SVGID_00000175288185892690949850000010107796577408212122_">
			<use xlink:href="#SVGID_00000034070026892597529190000014762926696094971538_"  style="overflow:visible;"/>
		</clipPath>
		
			<linearGradient id="SVGID_00000076591800708209768710000006900686298772701320_" gradientUnits="userSpaceOnUse" x1="-100.6461" y1="192.6558" x2="-100.2191" y2="192.6558" gradientTransform="matrix(456.682 -85.734 -85.734 -456.682 62525.25 79467.7734)">
			<stop  offset="0" style="stop-color:#EBA849"/>
			<stop  offset="0.083" style="stop-color:#ECAC4E"/>
			<stop  offset="0.1965" style="stop-color:#EFBA5D"/>
			<stop  offset="0.3271" style="stop-color:#F3D075"/>
			<stop  offset="0.4553" style="stop-color:#F9EB92"/>
			<stop  offset="1" style="stop-color:#EDAF3B"/>
		</linearGradient>
		
			<polygon style="clip-path:url(#SVGID_00000175288185892690949850000010107796577408212122_);fill:url(#SVGID_00000076591800708209768710000006900686298772701320_);" points="
			186.17,83.14 194.25,81.62 195.87,90.26 187.79,91.78 		"/>
	</g>
	<g>
		<defs>
			<path id="SVGID_00000089565919862568508590000009439672925433151363_" d="M197.64,83.05c-0.31,0.1-0.57,0.24-0.79,0.42
				c-0.22,0.18-0.39,0.41-0.52,0.67c-0.12,0.26-0.18,0.55-0.18,0.86v0.03c0,0.34,0.07,0.62,0.22,0.85c0.15,0.23,0.33,0.42,0.57,0.57
				c0.23,0.15,0.49,0.28,0.78,0.37c0.29,0.1,0.57,0.19,0.86,0.28c0.23,0.07,0.46,0.14,0.69,0.21c0.22,0.08,0.42,0.16,0.59,0.26
				c0.17,0.1,0.3,0.21,0.4,0.35c0.1,0.13,0.15,0.29,0.15,0.47v0.03c0,0.36-0.14,0.64-0.42,0.85c-0.28,0.21-0.65,0.31-1.09,0.31
				c-0.43,0-0.87-0.08-1.3-0.24c-0.43-0.16-0.84-0.39-1.24-0.69l-0.55,0.78c0.42,0.33,0.89,0.59,1.43,0.79
				c0.54,0.19,1.07,0.29,1.6,0.29c0.37,0,0.71-0.05,1.03-0.15c0.32-0.1,0.59-0.24,0.82-0.43c0.23-0.19,0.42-0.42,0.55-0.69
				c0.14-0.27,0.2-0.58,0.2-0.93v-0.03c0-0.33-0.07-0.61-0.2-0.84c-0.14-0.23-0.32-0.42-0.55-0.58c-0.23-0.16-0.48-0.29-0.76-0.4
				c-0.28-0.1-0.56-0.2-0.84-0.28c-0.25-0.07-0.48-0.15-0.71-0.23c-0.23-0.08-0.43-0.16-0.6-0.25c-0.18-0.09-0.31-0.21-0.42-0.33
				c-0.1-0.13-0.16-0.28-0.16-0.45v-0.03c0-0.3,0.13-0.55,0.38-0.76c0.25-0.2,0.6-0.3,1.03-0.3c0.36,0,0.72,0.06,1.1,0.19
				c0.37,0.13,0.73,0.3,1.07,0.52l0.5-0.82c-0.38-0.24-0.8-0.44-1.26-0.59c-0.46-0.15-0.92-0.22-1.37-0.22
				C198.28,82.9,197.94,82.95,197.64,83.05"/>
		</defs>
		<clipPath id="SVGID_00000027596067435544688130000018256294625070230914_">
			<use xlink:href="#SVGID_00000089565919862568508590000009439672925433151363_"  style="overflow:visible;"/>
		</clipPath>
		
			<linearGradient id="SVGID_00000037670575315232110840000008723691473265249454_" gradientUnits="userSpaceOnUse" x1="-100.6461" y1="192.6598" x2="-100.2191" y2="192.6598" gradientTransform="matrix(456.682 -85.734 -85.734 -456.682 62525.8477 79470.9688)">
			<stop  offset="0" style="stop-color:#EBA849"/>
			<stop  offset="0.083" style="stop-color:#ECAC4E"/>
			<stop  offset="0.1965" style="stop-color:#EFBA5D"/>
			<stop  offset="0.3271" style="stop-color:#F3D075"/>
			<stop  offset="0.4553" style="stop-color:#F9EB92"/>
			<stop  offset="1" style="stop-color:#EDAF3B"/>
		</linearGradient>
		
			<polygon style="clip-path:url(#SVGID_00000027596067435544688130000018256294625070230914_);fill:url(#SVGID_00000037670575315232110840000008723691473265249454_);" points="
			194.41,83.16 201.23,81.88 202.8,90.24 195.98,91.52 		"/>
	</g>
	<g>
		<defs>
			<path id="SVGID_00000168105624023365364550000002314557814287279252_" d="M2.03,2.47c0.02,17.6,0.03,35.21,0.07,52.81
				c0.01,3.05,0.06,6.1,0.23,9.14c0.2,3.66,1.42,7.05,3.09,10.3c1.9,3.7,4.38,6.96,7.66,9.57c0.02,0,0.05-0.01,0.08-0.01
				c0.08-0.01,0.15-0.03,0.23-0.05c0-1.11,0-2.23,0-3.34c0.01-6.38,0.03-12.76-0.01-19.13c-0.02-3.32,0.42-6.48,2.01-9.46
				c3.16-5.94,8.02-9.64,14.71-10.5c4.39-0.56,8.66,0.08,12.51,2.31c0.45,0.26,0.9,0.54,1.33,0.84c4.94,3.43,7.71,8.18,8.32,14.06
				c0.43,4.09-0.36,8.06-2.51,11.66c-3.07,5.13-7.64,8.16-13.6,9.4V45.66c-2.01,0-3.97-0.22-5.86,0.07
				c-1.91,0.29-3.74,1.08-5.61,1.65c0.02,0.4,0.03,0.81,0.05,1.2c0.1,2.52,0.18,4.88,0.24,7.09c0.55,19.89-0.23,27.78-0.24,33.5
				c0,0.32-0.05,0.65-0.09,0.97c0.02,0.08,0.04,0.16,0.06,0.24c4.59,1.61,9.27,1.63,13.97,0.7c8.9-1.76,15.91-6.4,20.66-14.09
				c3.53-5.72,5.04-11.96,4.39-18.73c-0.36-3.77-1.22-7.37-2.88-10.72c-1.09-2.2-2.36-4.21-3.81-6c-0.06-0.07-0.11-0.14-0.17-0.21
				l0.02-11.94l-0.22-0.74l-0.5-0.58l-10.75-5.93l-0.03,0.99v9.69c-1.02-0.43-2.08-0.81-3.17-1.15c-1.94-0.59-3.96-0.93-6.03-1.4
				v-6.73c0-0.39,0-0.78,0-1.16c0-0.35,0-0.7,0-1.04v-1.16c0-0.44,0-0.86-0.01-1.24c0-0.57-0.01-1.06-0.01-1.44
				c0-0.23-0.09-0.5-0.22-0.74c-0.13-0.24-0.31-0.46-0.5-0.58c-0.65-0.4-1.31-0.79-1.97-1.17c-1.52-0.88-3.06-1.74-4.6-2.59
				c-0.79-0.44-1.6-0.86-2.41-1.27c-0.59-0.31-1.19-0.61-1.78-0.91c-0.01,0.08-0.02,0.17-0.03,0.26c0,0.55,0.01,1.1,0.02,1.64
				c0.03,2.47,0.07,4.93,0.06,7.4c0,0.7,0,1.39-0.01,2.09c0,1.57-0.02,3.15-0.03,4.72c-0.01,0.3-0.01,0.61-0.01,0.91l-0.01,1.24
				c0,0.21,0,0.41,0,0.62c0,0.43,0,0.86-0.01,1.29c-0.01,0.25-0.35,0.97-0.52,1.03c-3.77,1.2-7.22,3.02-10.38,5.38
				c-0.11,0.07-0.21,0.14-0.32,0.21l0.03,0.04c-0.05,0.05-0.1,0.1-0.16,0.15c-0.01-0.07-0.03-0.14-0.05-0.21
				c-0.02-8.66-0.14-17.32,0-25.98c0-0.16,0.24-2.8-0.86-3.68c-0.08-0.06-0.74-0.56-1.69-1.1c-0.24-0.14-0.42-0.23-0.47-0.25
				c-0.64-0.32-2.78-1.52-8.2-4.64V2.47z"/>
		</defs>
		<clipPath id="SVGID_00000113325392544890515300000001691999159568598206_">
			<use xlink:href="#SVGID_00000168105624023365364550000002314557814287279252_"  style="overflow:visible;"/>
		</clipPath>
		
			<linearGradient id="SVGID_00000098205226663594620220000015770587133250923680_" gradientUnits="userSpaceOnUse" x1="-100.1773" y1="194.0159" x2="-99.7503" y2="194.0159" gradientTransform="matrix(-278.1822 -317.6007 -317.6007 278.1822 33827.5898 -85693.0938)">
			<stop  offset="0" style="stop-color:#EBA849"/>
			<stop  offset="0.083" style="stop-color:#ECAC4E"/>
			<stop  offset="0.1965" style="stop-color:#EFBA5D"/>
			<stop  offset="0.3271" style="stop-color:#F3D075"/>
			<stop  offset="0.4553" style="stop-color:#F9EB92"/>
			<stop  offset="1" style="stop-color:#EDAF3B"/>
		</linearGradient>
		
			<polygon style="clip-path:url(#SVGID_00000113325392544890515300000001691999159568598206_);fill:url(#SVGID_00000098205226663594620220000015770587133250923680_);" points="
			29.09,122.9 -42.89,40.72 37.3,-29.52 109.28,52.66 		"/>
	</g>
	<g>
		<defs>
			<path id="SVGID_00000122691306807406663420000002767196267864813743_" d="M86.13,43.89h4.96c7.29,0,12.13,4.08,12.13,11.12v0.13
				c0,7.1-4.84,11.12-12.13,11.12h-4.96V43.89z M73.94,33.09v43.98h16.71c15.83,0,25.07-9.42,25.07-22.12v-0.13
				c0-12.69-9.11-21.74-24.82-21.74H73.94z"/>
		</defs>
		<clipPath id="SVGID_00000131326939002176861300000014970081163542839178_">
			<use xlink:href="#SVGID_00000122691306807406663420000002767196267864813743_"  style="overflow:visible;"/>
		</clipPath>
		
			<linearGradient id="SVGID_00000150099207239974029260000005720675576182569660_" gradientUnits="userSpaceOnUse" x1="-100.3968" y1="196.7139" x2="-99.9697" y2="196.7139" gradientTransform="matrix(-79.518 -90.7857 -90.7857 79.518 9984.2832 -24685.832)">
			<stop  offset="0" style="stop-color:#EBA849"/>
			<stop  offset="0.083" style="stop-color:#ECAC4E"/>
			<stop  offset="0.1965" style="stop-color:#EFBA5D"/>
			<stop  offset="0.3271" style="stop-color:#F3D075"/>
			<stop  offset="0.4553" style="stop-color:#F9EB92"/>
			<stop  offset="1" style="stop-color:#EDAF3B"/>
		</linearGradient>
		
			<polygon style="clip-path:url(#SVGID_00000131326939002176861300000014970081163542839178_);fill:url(#SVGID_00000150099207239974029260000005720675576182569660_);" points="
			92.08,97.77 52.15,52.18 97.59,12.38 137.52,57.97 		"/>
	</g>
	<g>
		<defs>
			<path id="SVGID_00000164490497045950834400000011965635241758796444_" d="M120.44,41.76l8.23,6.85c3.46-3.96,5.78-5.65,8.73-5.65
				c2.95,0,4.9,1.7,4.9,4.46c0,2.64-1.57,4.71-5.65,7.92l-16.46,12.57v9.17h34.81v-9.93h-18.16l7.54-5.28
				c6.53-4.71,10.18-8.36,10.18-15.39v-0.13c0-8.29-6.6-14.01-16.21-14.01C129.8,32.33,125.15,35.66,120.44,41.76"/>
		</defs>
		<clipPath id="SVGID_00000057850395514833559840000000955677086401080767_">
			<use xlink:href="#SVGID_00000164490497045950834400000011965635241758796444_"  style="overflow:visible;"/>
		</clipPath>
		
			<linearGradient id="SVGID_00000039097415278089002070000012982781451095239307_" gradientUnits="userSpaceOnUse" x1="-100.0062" y1="197.2194" x2="-99.5792" y2="197.2194" gradientTransform="matrix(-77.1965 -88.1353 -88.1353 77.1965 9818.0869 -23962.7402)">
			<stop  offset="0" style="stop-color:#EBA849"/>
			<stop  offset="0.083" style="stop-color:#ECAC4E"/>
			<stop  offset="0.1965" style="stop-color:#EFBA5D"/>
			<stop  offset="0.3271" style="stop-color:#F3D075"/>
			<stop  offset="0.4553" style="stop-color:#F9EB92"/>
			<stop  offset="1" style="stop-color:#EDAF3B"/>
		</linearGradient>
		
			<polygon style="clip-path:url(#SVGID_00000057850395514833559840000000955677086401080767_);fill:url(#SVGID_00000039097415278089002070000012982781451095239307_);" points="
			135.3,94.32 98.01,51.75 139.88,15.08 177.17,57.65 		"/>
	</g>
	<g>
		<defs>
			<path id="SVGID_00000040556536377584247560000007532944629375014529_" d="M173.09,59.16h9.3c4.08,0,5.97,1.57,5.97,3.96v0.13
				c0,2.58-2.14,4.02-5.84,4.02h-9.42V59.16z M173.09,42.89H181c3.64,0,5.53,1.38,5.53,3.77v0.13c0,2.58-2.07,3.83-5.78,3.83h-7.66
				V42.89z M161.21,33.09v43.98h22.68c10.49,0,16.65-4.59,16.65-12.13v-0.13c0-5.97-3.39-8.98-8.73-10.74
				c3.9-1.7,6.79-4.71,6.79-9.8v-0.13c0-3.02-1.07-5.34-2.83-7.1c-2.58-2.58-6.47-3.96-12-3.96H161.21z"/>
		</defs>
		<clipPath id="SVGID_00000008842188425161149980000004349893858150113179_">
			<use xlink:href="#SVGID_00000040556536377584247560000007532944629375014529_"  style="overflow:visible;"/>
		</clipPath>
		
			<linearGradient id="SVGID_00000057145145140545316790000010819508574862676153_" gradientUnits="userSpaceOnUse" x1="-99.747" y1="197.2829" x2="-99.32" y2="197.2829" gradientTransform="matrix(-82.8859 -94.6309 -94.6309 82.8859 10598.2744 -25717.834)">
			<stop  offset="0" style="stop-color:#EBA849"/>
			<stop  offset="0.083" style="stop-color:#ECAC4E"/>
			<stop  offset="0.1965" style="stop-color:#EFBA5D"/>
			<stop  offset="0.3271" style="stop-color:#F3D075"/>
			<stop  offset="0.4553" style="stop-color:#F9EB92"/>
			<stop  offset="1" style="stop-color:#EDAF3B"/>
		</linearGradient>
		
			<polygon style="clip-path:url(#SVGID_00000008842188425161149980000004349893858150113179_);fill:url(#SVGID_00000057145145140545316790000010819508574862676153_);" points="
			178.29,96.56 139.41,52.18 183.47,13.59 222.34,57.97 		"/>
	</g>
</g>
</svg>
