<?xml version="1.0" encoding="UTF-8"?>
<svg xmlns="http://www.w3.org/2000/svg" xmlns:xlink="http://www.w3.org/1999/xlink" width="256px" height="256px" viewBox="0 0 256 256" version="1.1">
<defs>
<clipPath id="clip1">
  <path d="M 92 225 L 101 225 L 101 247 L 92 247 Z M 92 225 "/>
</clipPath>
<clipPath id="clip2">
  <path d="M 95.3125 226.308594 C 94.730469 226.851562 94.242188 227.613281 93.8125 228.566406 C 93.386719 229.515625 93.058594 230.628906 92.820312 231.90625 C 92.582031 233.183594 92.46875 234.515625 92.46875 235.929688 C 92.46875 237.34375 92.582031 238.671875 92.820312 239.921875 C 93.058594 241.171875 93.386719 242.289062 93.8125 243.210938 C 94.242188 244.136719 94.730469 244.894531 95.3125 245.4375 C 95.890625 245.984375 96.519531 246.253906 97.1875 246.253906 C 98.054688 246.253906 98.785156 245.902344 99.375 245.167969 C 99.964844 244.433594 100.496094 243.511719 100.949219 242.367188 L 100.078125 240.601562 C 99.714844 241.445312 99.300781 242.152344 98.847656 242.722656 C 98.394531 243.292969 97.867188 243.566406 97.273438 243.566406 C 96.785156 243.566406 96.34375 243.375 95.925781 242.964844 C 95.511719 242.558594 95.160156 242.015625 94.859375 241.308594 C 94.554688 240.601562 94.316406 239.789062 94.140625 238.835938 C 93.964844 237.886719 93.875 236.878906 93.875 235.792969 C 93.875 234.707031 93.964844 233.726562 94.128906 232.777344 C 94.292969 231.851562 94.53125 231.011719 94.820312 230.332031 C 95.121094 229.625 95.460938 229.082031 95.863281 228.675781 C 96.265625 228.265625 96.707031 228.078125 97.171875 228.078125 C 97.800781 228.078125 98.332031 228.375 98.769531 228.945312 C 99.199219 229.542969 99.601562 230.25 99.980469 231.066406 L 100.886719 229 C 100.671875 228.511719 100.445312 228.050781 100.191406 227.613281 C 99.941406 227.179688 99.664062 226.800781 99.375 226.472656 C 99.074219 226.148438 98.757812 225.902344 98.394531 225.710938 C 98.042969 225.523438 97.640625 225.441406 97.199219 225.441406 C 96.519531 225.496094 95.890625 225.765625 95.3125 226.308594 "/>
</clipPath>
<linearGradient id="linear0" gradientUnits="userSpaceOnUse" x1="-100.6461" y1="192.5952" x2="-100.2191" y2="192.5952" gradientTransform="matrix(574.612169,-232.96045,-107.873312,-1240.91777,78659.874224,215802.364837)">
<stop offset="0" style="stop-color:rgb(92.156863%,65.882353%,28.627451%);stop-opacity:1;"/>
<stop offset="0.083" style="stop-color:rgb(92.54902%,67.45098%,30.588235%);stop-opacity:1;"/>
<stop offset="0.1965" style="stop-color:rgb(93.72549%,72.941176%,36.470588%);stop-opacity:1;"/>
<stop offset="0.3271" style="stop-color:rgb(95.294118%,81.568627%,45.882353%);stop-opacity:1;"/>
<stop offset="0.4553" style="stop-color:rgb(97.647059%,92.156863%,57.254902%);stop-opacity:1;"/>
<stop offset="1" style="stop-color:rgb(92.941176%,68.627451%,23.137255%);stop-opacity:1;"/>
</linearGradient>
<clipPath id="clip3">
  <path d="M 102 225 L 112 225 L 112 247 L 102 247 Z M 102 225 "/>
</clipPath>
<clipPath id="clip4">
  <path d="M 105.828125 242.964844 C 105.414062 242.558594 105.050781 242.015625 104.746094 241.308594 C 104.445312 240.628906 104.207031 239.789062 104.03125 238.863281 C 103.855469 237.914062 103.777344 236.90625 103.777344 235.820312 C 103.777344 234.734375 103.867188 233.753906 104.03125 232.804688 C 104.195312 231.878906 104.421875 231.039062 104.722656 230.359375 C 105.011719 229.652344 105.363281 229.109375 105.78125 228.699219 C 106.195312 228.292969 106.648438 228.101562 107.152344 228.101562 C 107.640625 228.101562 108.09375 228.320312 108.511719 228.726562 C 108.925781 229.136719 109.289062 229.707031 109.59375 230.386719 C 109.90625 231.09375 110.144531 231.90625 110.308594 232.859375 C 110.484375 233.808594 110.5625 234.816406 110.5625 235.902344 C 110.5625 236.988281 110.472656 237.996094 110.308594 238.917969 C 110.144531 239.84375 109.90625 240.65625 109.617188 241.363281 C 109.316406 242.042969 108.964844 242.613281 108.546875 242.992188 C 108.132812 243.402344 107.667969 243.589844 107.175781 243.589844 C 106.699219 243.566406 106.246094 243.375 105.828125 242.964844 M 105.25 226.308594 C 104.660156 226.851562 104.15625 227.613281 103.730469 228.566406 C 103.300781 229.515625 102.960938 230.628906 102.734375 231.90625 C 102.496094 233.183594 102.382812 234.515625 102.382812 235.929688 C 102.382812 237.34375 102.496094 238.671875 102.734375 239.921875 C 102.972656 241.171875 103.300781 242.289062 103.730469 243.210938 C 104.15625 244.136719 104.660156 244.894531 105.238281 245.4375 C 105.816406 245.984375 106.460938 246.253906 107.152344 246.253906 C 107.84375 246.253906 108.484375 245.984375 109.078125 245.4375 C 109.667969 244.894531 110.183594 244.136719 110.609375 243.183594 C 111.039062 242.234375 111.378906 241.117188 111.617188 239.84375 C 111.855469 238.59375 111.984375 237.261719 111.984375 235.847656 C 111.984375 234.433594 111.871094 233.101562 111.628906 231.851562 C 111.390625 230.601562 111.0625 229.488281 110.636719 228.566406 C 110.207031 227.640625 109.707031 226.878906 109.113281 226.335938 C 108.523438 225.792969 107.882812 225.523438 107.203125 225.523438 C 106.484375 225.496094 105.84375 225.765625 105.25 226.308594 "/>
</clipPath>
<linearGradient id="linear1" gradientUnits="userSpaceOnUse" x1="-100.6461" y1="192.5992" x2="-100.2191" y2="192.5992" gradientTransform="matrix(574.612169,-232.96045,-107.873312,-1240.91777,78660.665526,215811.493156)">
<stop offset="0" style="stop-color:rgb(92.156863%,65.882353%,28.627451%);stop-opacity:1;"/>
<stop offset="0.083" style="stop-color:rgb(92.54902%,67.45098%,30.588235%);stop-opacity:1;"/>
<stop offset="0.1965" style="stop-color:rgb(93.72549%,72.941176%,36.470588%);stop-opacity:1;"/>
<stop offset="0.3271" style="stop-color:rgb(95.294118%,81.568627%,45.882353%);stop-opacity:1;"/>
<stop offset="0.4553" style="stop-color:rgb(97.647059%,92.156863%,57.254902%);stop-opacity:1;"/>
<stop offset="1" style="stop-color:rgb(92.941176%,68.627451%,23.137255%);stop-opacity:1;"/>
</linearGradient>
<clipPath id="clip5">
  <path d="M 114 225 L 120 225 L 120 246 L 114 246 Z M 114 225 "/>
</clipPath>
<clipPath id="clip6">
  <path d="M 118.363281 225.902344 C 117.984375 226.148438 117.632812 226.527344 117.304688 227.042969 C 116.992188 227.53125 116.699219 228.128906 116.449219 228.835938 C 116.199219 229.515625 115.996094 230.277344 115.820312 231.121094 L 115.820312 225.929688 L 114.449219 225.929688 L 114.449219 245.820312 L 115.820312 245.820312 L 115.820312 237.886719 C 115.820312 236.390625 115.921875 235.085938 116.109375 233.945312 C 116.296875 232.804688 116.5625 231.851562 116.890625 231.066406 C 117.230469 230.304688 117.605469 229.707031 118.058594 229.324219 C 118.5 228.945312 118.976562 228.753906 119.480469 228.753906 L 119.59375 228.753906 L 119.59375 225.550781 C 119.558594 225.550781 119.519531 225.550781 119.480469 225.550781 C 119.078125 225.550781 118.714844 225.683594 118.363281 225.902344 "/>
</clipPath>
<linearGradient id="linear2" gradientUnits="userSpaceOnUse" x1="-100.6461" y1="192.6021" x2="-100.2191" y2="192.6021" gradientTransform="matrix(574.612169,-232.96045,-107.873312,-1240.91777,78661.29955,215818.774563)">
<stop offset="0" style="stop-color:rgb(92.156863%,65.882353%,28.627451%);stop-opacity:1;"/>
<stop offset="0.083" style="stop-color:rgb(92.54902%,67.45098%,30.588235%);stop-opacity:1;"/>
<stop offset="0.1965" style="stop-color:rgb(93.72549%,72.941176%,36.470588%);stop-opacity:1;"/>
<stop offset="0.3271" style="stop-color:rgb(95.294118%,81.568627%,45.882353%);stop-opacity:1;"/>
<stop offset="0.4553" style="stop-color:rgb(97.647059%,92.156863%,57.254902%);stop-opacity:1;"/>
<stop offset="1" style="stop-color:rgb(92.941176%,68.627451%,23.137255%);stop-opacity:1;"/>
</linearGradient>
<clipPath id="clip7">
  <path d="M 121 225 L 131 225 L 131 252 L 121 252 Z M 121 225 "/>
</clipPath>
<clipPath id="clip8">
  <path d="M 125.09375 242.964844 C 124.691406 242.585938 124.339844 242.070312 124.023438 241.417969 C 123.710938 240.765625 123.457031 239.949219 123.28125 238.972656 C 123.09375 238.019531 123.003906 236.960938 123.003906 235.820312 C 123.003906 234.679688 123.09375 233.621094 123.28125 232.667969 C 123.46875 231.71875 123.722656 230.929688 124.023438 230.25 C 124.339844 229.570312 124.691406 229.082031 125.09375 228.699219 C 125.496094 228.320312 125.898438 228.15625 126.328125 228.15625 C 126.765625 228.15625 127.183594 228.347656 127.570312 228.699219 C 127.960938 229.054688 128.316406 229.570312 128.605469 230.25 C 128.90625 230.929688 129.132812 231.746094 129.308594 232.695312 C 129.484375 233.648438 129.574219 234.707031 129.574219 235.875 C 129.574219 237.070312 129.484375 238.15625 129.308594 239.109375 C 129.132812 240.058594 128.90625 240.875 128.617188 241.527344 C 128.328125 242.179688 127.988281 242.667969 127.585938 243.019531 C 127.183594 243.375 126.765625 243.539062 126.328125 243.539062 C 125.898438 243.539062 125.496094 243.347656 125.09375 242.964844 M 125.40625 225.847656 C 125.054688 226.09375 124.742188 226.417969 124.453125 226.800781 C 124.164062 227.207031 123.910156 227.667969 123.671875 228.210938 C 123.445312 228.753906 123.230469 229.324219 123.042969 229.898438 L 123.042969 225.902344 L 121.671875 225.902344 L 121.671875 251.960938 L 123.042969 251.960938 L 123.042969 241.988281 C 123.21875 242.558594 123.421875 243.101562 123.660156 243.589844 C 123.886719 244.109375 124.148438 244.542969 124.4375 244.949219 C 124.730469 245.332031 125.042969 245.628906 125.394531 245.875 C 125.746094 246.089844 126.136719 246.226562 126.566406 246.226562 C 127.121094 246.226562 127.671875 245.984375 128.203125 245.519531 C 128.730469 245.058594 129.195312 244.378906 129.609375 243.484375 C 130.027344 242.585938 130.351562 241.527344 130.605469 240.222656 C 130.855469 238.945312 130.980469 237.476562 130.980469 235.820312 C 130.980469 234.191406 130.855469 232.722656 130.605469 231.445312 C 130.351562 230.167969 130.027344 229.082031 129.609375 228.183594 C 129.195312 227.289062 128.71875 226.636719 128.1875 226.175781 C 127.660156 225.710938 127.121094 225.46875 126.578125 225.46875 C 126.152344 225.496094 125.761719 225.601562 125.40625 225.847656 "/>
</clipPath>
<linearGradient id="linear3" gradientUnits="userSpaceOnUse" x1="-100.6461" y1="192.6077" x2="-100.2191" y2="192.6077" gradientTransform="matrix(574.612169,-232.96045,-107.873312,-1240.91777,78662.479143,215832.339603)">
<stop offset="0" style="stop-color:rgb(92.156863%,65.882353%,28.627451%);stop-opacity:1;"/>
<stop offset="0.083" style="stop-color:rgb(92.54902%,67.45098%,30.588235%);stop-opacity:1;"/>
<stop offset="0.1965" style="stop-color:rgb(93.72549%,72.941176%,36.470588%);stop-opacity:1;"/>
<stop offset="0.3271" style="stop-color:rgb(95.294118%,81.568627%,45.882353%);stop-opacity:1;"/>
<stop offset="0.4553" style="stop-color:rgb(97.647059%,92.156863%,57.254902%);stop-opacity:1;"/>
<stop offset="1" style="stop-color:rgb(92.941176%,68.627451%,23.137255%);stop-opacity:1;"/>
</linearGradient>
<clipPath id="clip9">
  <path d="M 132 225 L 143 225 L 143 247 L 132 247 Z M 132 225 "/>
</clipPath>
<clipPath id="clip10">
  <path d="M 136.40625 242.964844 C 135.988281 242.558594 135.625 242.015625 135.324219 241.308594 C 135.019531 240.628906 134.78125 239.789062 134.605469 238.863281 C 134.429688 237.914062 134.339844 236.90625 134.339844 235.820312 C 134.339844 234.734375 134.429688 233.753906 134.59375 232.804688 C 134.757812 231.878906 134.984375 231.039062 135.273438 230.359375 C 135.5625 229.652344 135.914062 229.109375 136.328125 228.699219 C 136.746094 228.292969 137.199219 228.101562 137.699219 228.101562 C 138.191406 228.101562 138.644531 228.320312 139.058594 228.726562 C 139.476562 229.136719 139.839844 229.707031 140.140625 230.386719 C 140.457031 231.09375 140.695312 231.90625 140.859375 232.859375 C 141.035156 233.808594 141.125 234.816406 141.125 235.902344 C 141.125 236.988281 141.035156 237.996094 140.871094 238.917969 C 140.707031 239.84375 140.46875 240.65625 140.179688 241.363281 C 139.878906 242.042969 139.527344 242.613281 139.109375 242.992188 C 138.695312 243.402344 138.242188 243.589844 137.738281 243.589844 C 137.273438 243.566406 136.820312 243.375 136.40625 242.964844 M 135.828125 226.308594 C 135.234375 226.851562 134.730469 227.613281 134.304688 228.566406 C 133.875 229.515625 133.546875 230.628906 133.308594 231.90625 C 133.070312 233.183594 132.957031 234.515625 132.957031 235.929688 C 132.957031 237.34375 133.070312 238.671875 133.308594 239.921875 C 133.546875 241.171875 133.875 242.289062 134.304688 243.210938 C 134.730469 244.136719 135.234375 244.894531 135.8125 245.4375 C 136.390625 245.984375 137.035156 246.253906 137.726562 246.253906 C 138.417969 246.253906 139.058594 245.984375 139.652344 245.4375 C 140.242188 244.894531 140.757812 244.136719 141.1875 243.183594 C 141.613281 242.234375 141.953125 241.117188 142.191406 239.84375 C 142.433594 238.566406 142.558594 237.234375 142.558594 235.820312 C 142.558594 234.40625 142.445312 233.074219 142.207031 231.824219 C 141.964844 230.574219 141.640625 229.460938 141.210938 228.539062 C 140.785156 227.613281 140.28125 226.851562 139.6875 226.308594 C 139.097656 225.765625 138.457031 225.496094 137.777344 225.496094 C 137.058594 225.496094 136.40625 225.765625 135.828125 226.308594 "/>
</clipPath>
<linearGradient id="linear4" gradientUnits="userSpaceOnUse" x1="-100.6461" y1="192.6121" x2="-100.2191" y2="192.6121" gradientTransform="matrix(574.612169,-232.96045,-107.873312,-1240.91777,78663.103352,215839.514765)">
<stop offset="0" style="stop-color:rgb(92.156863%,65.882353%,28.627451%);stop-opacity:1;"/>
<stop offset="0.083" style="stop-color:rgb(92.54902%,67.45098%,30.588235%);stop-opacity:1;"/>
<stop offset="0.1965" style="stop-color:rgb(93.72549%,72.941176%,36.470588%);stop-opacity:1;"/>
<stop offset="0.3271" style="stop-color:rgb(95.294118%,81.568627%,45.882353%);stop-opacity:1;"/>
<stop offset="0.4553" style="stop-color:rgb(97.647059%,92.156863%,57.254902%);stop-opacity:1;"/>
<stop offset="1" style="stop-color:rgb(92.941176%,68.627451%,23.137255%);stop-opacity:1;"/>
</linearGradient>
<clipPath id="clip11">
  <path d="M 145 225 L 151 225 L 151 246 L 145 246 Z M 145 225 "/>
</clipPath>
<clipPath id="clip12">
  <path d="M 148.925781 225.902344 C 148.546875 226.148438 148.195312 226.527344 147.867188 227.042969 C 147.554688 227.53125 147.261719 228.128906 147.011719 228.835938 C 146.761719 229.515625 146.558594 230.277344 146.382812 231.121094 L 146.382812 225.929688 L 145.011719 225.929688 L 145.011719 245.820312 L 146.382812 245.820312 L 146.382812 237.886719 C 146.382812 236.390625 146.472656 235.085938 146.671875 233.945312 C 146.859375 232.804688 147.125 231.851562 147.453125 231.066406 C 147.792969 230.304688 148.167969 229.707031 148.621094 229.324219 C 149.0625 228.945312 149.539062 228.753906 150.042969 228.753906 L 150.15625 228.753906 L 150.15625 225.550781 C 150.121094 225.550781 150.082031 225.550781 150.042969 225.550781 C 149.640625 225.550781 149.277344 225.683594 148.925781 225.902344 "/>
</clipPath>
<linearGradient id="linear5" gradientUnits="userSpaceOnUse" x1="-100.6461" y1="192.6151" x2="-100.2191" y2="192.6151" gradientTransform="matrix(574.612169,-232.96045,-107.873312,-1240.91777,78663.737375,215846.796172)">
<stop offset="0" style="stop-color:rgb(92.156863%,65.882353%,28.627451%);stop-opacity:1;"/>
<stop offset="0.083" style="stop-color:rgb(92.54902%,67.45098%,30.588235%);stop-opacity:1;"/>
<stop offset="0.1965" style="stop-color:rgb(93.72549%,72.941176%,36.470588%);stop-opacity:1;"/>
<stop offset="0.3271" style="stop-color:rgb(95.294118%,81.568627%,45.882353%);stop-opacity:1;"/>
<stop offset="0.4553" style="stop-color:rgb(97.647059%,92.156863%,57.254902%);stop-opacity:1;"/>
<stop offset="1" style="stop-color:rgb(92.941176%,68.627451%,23.137255%);stop-opacity:1;"/>
</linearGradient>
<clipPath id="clip13">
  <path d="M 151 225 L 160 225 L 160 247 L 151 247 Z M 151 225 "/>
</clipPath>
<clipPath id="clip14">
  <path d="M 153.945312 243.617188 C 153.667969 243.429688 153.417969 243.183594 153.203125 242.832031 C 152.988281 242.476562 152.824219 242.070312 152.699219 241.582031 C 152.574219 241.09375 152.511719 240.519531 152.511719 239.894531 C 152.511719 238.617188 152.738281 237.585938 153.203125 236.851562 C 153.667969 236.121094 154.320312 235.738281 155.191406 235.738281 C 155.757812 235.738281 156.261719 235.820312 156.710938 236.011719 C 157.152344 236.199219 157.554688 236.390625 157.894531 236.582031 L 157.894531 238.511719 C 157.894531 239.296875 157.820312 240.03125 157.65625 240.683594 C 157.492188 241.335938 157.277344 241.90625 157.003906 242.367188 C 156.726562 242.859375 156.398438 243.210938 156.019531 243.484375 C 155.644531 243.753906 155.242188 243.890625 154.824219 243.890625 C 154.511719 243.890625 154.222656 243.78125 153.945312 243.617188 M 153.480469 226.09375 C 152.949219 226.390625 152.449219 226.800781 151.929688 227.316406 L 152.347656 229.734375 C 152.773438 229.300781 153.214844 228.945312 153.65625 228.675781 C 154.097656 228.402344 154.597656 228.265625 155.140625 228.265625 C 156.007812 228.265625 156.6875 228.726562 157.164062 229.625 C 157.644531 230.550781 157.882812 231.878906 157.882812 233.671875 L 157.882812 234.378906 C 157.46875 234.136719 157.039062 233.917969 156.601562 233.753906 C 156.160156 233.59375 155.644531 233.539062 155.050781 233.539062 C 154.472656 233.539062 153.933594 233.671875 153.453125 233.972656 C 152.976562 234.246094 152.5625 234.652344 152.207031 235.195312 C 151.855469 235.738281 151.59375 236.417969 151.402344 237.207031 C 151.214844 238.019531 151.113281 238.945312 151.113281 240.003906 C 151.113281 241.066406 151.214844 241.960938 151.402344 242.75 C 151.605469 243.511719 151.855469 244.164062 152.183594 244.707031 C 152.511719 245.222656 152.875 245.628906 153.289062 245.875 C 153.707031 246.117188 154.121094 246.253906 154.546875 246.253906 C 155.367188 246.253906 156.046875 245.902344 156.585938 245.222656 C 157.128906 244.542969 157.554688 243.726562 157.882812 242.832031 L 157.882812 245.820312 L 159.203125 245.820312 L 159.203125 233.648438 C 159.203125 231.011719 158.863281 229 158.183594 227.667969 C 157.503906 226.308594 156.535156 225.65625 155.277344 225.65625 C 154.597656 225.628906 153.996094 225.792969 153.480469 226.09375 "/>
</clipPath>
<linearGradient id="linear6" gradientUnits="userSpaceOnUse" x1="-100.6461" y1="192.6205" x2="-100.2191" y2="192.6205" gradientTransform="matrix(574.612169,-232.96045,-107.873312,-1240.91777,78664.597503,215856.709776)">
<stop offset="0" style="stop-color:rgb(92.156863%,65.882353%,28.627451%);stop-opacity:1;"/>
<stop offset="0.083" style="stop-color:rgb(92.54902%,67.45098%,30.588235%);stop-opacity:1;"/>
<stop offset="0.1965" style="stop-color:rgb(93.72549%,72.941176%,36.470588%);stop-opacity:1;"/>
<stop offset="0.3271" style="stop-color:rgb(95.294118%,81.568627%,45.882353%);stop-opacity:1;"/>
<stop offset="0.4553" style="stop-color:rgb(97.647059%,92.156863%,57.254902%);stop-opacity:1;"/>
<stop offset="1" style="stop-color:rgb(92.941176%,68.627451%,23.137255%);stop-opacity:1;"/>
</linearGradient>
<clipPath id="clip15">
  <path d="M 161 219 L 167 219 L 167 247 L 161 247 Z M 161 219 "/>
</clipPath>
<clipPath id="clip16">
  <path d="M 162.511719 219.898438 L 162.511719 225.902344 L 161.230469 225.902344 L 161.230469 228.511719 L 162.511719 228.511719 L 162.511719 240.519531 C 162.511719 241.527344 162.578125 242.367188 162.714844 243.101562 C 162.839844 243.808594 163.027344 244.40625 163.253906 244.839844 C 163.480469 245.304688 163.757812 245.628906 164.085938 245.820312 C 164.414062 246.039062 164.753906 246.117188 165.117188 246.117188 C 165.445312 246.117188 165.746094 246.039062 166.023438 245.902344 C 166.289062 245.765625 166.539062 245.546875 166.777344 245.277344 L 166.777344 242.75 C 166.539062 242.992188 166.3125 243.183594 166.113281 243.292969 C 165.910156 243.402344 165.683594 243.457031 165.445312 243.457031 C 164.980469 243.457031 164.601562 243.210938 164.324219 242.722656 C 164.035156 242.234375 163.898438 241.363281 163.898438 240.140625 L 163.898438 228.511719 L 166.816406 228.511719 L 166.816406 225.902344 L 163.898438 225.902344 L 163.898438 219.898438 Z M 162.511719 219.898438 "/>
</clipPath>
<linearGradient id="linear7" gradientUnits="userSpaceOnUse" x1="-100.6461" y1="192.6203" x2="-100.2191" y2="192.6203" gradientTransform="matrix(574.612169,-232.96045,-107.873312,-1240.91777,78664.641667,215857.17687)">
<stop offset="0" style="stop-color:rgb(92.156863%,65.882353%,28.627451%);stop-opacity:1;"/>
<stop offset="0.083" style="stop-color:rgb(92.54902%,67.45098%,30.588235%);stop-opacity:1;"/>
<stop offset="0.1965" style="stop-color:rgb(93.72549%,72.941176%,36.470588%);stop-opacity:1;"/>
<stop offset="0.3271" style="stop-color:rgb(95.294118%,81.568627%,45.882353%);stop-opacity:1;"/>
<stop offset="0.4553" style="stop-color:rgb(97.647059%,92.156863%,57.254902%);stop-opacity:1;"/>
<stop offset="1" style="stop-color:rgb(92.941176%,68.627451%,23.137255%);stop-opacity:1;"/>
</linearGradient>
<clipPath id="clip17">
  <path d="M 168 225 L 178 225 L 178 247 L 168 247 Z M 168 225 "/>
</clipPath>
<clipPath id="clip18">
  <path d="M 170.113281 232.070312 C 170.277344 231.253906 170.492188 230.550781 170.753906 229.925781 C 171.007812 229.324219 171.308594 228.835938 171.660156 228.511719 C 172 228.15625 172.378906 227.996094 172.78125 227.996094 C 173.246094 227.996094 173.648438 228.183594 174 228.566406 C 174.351562 228.945312 174.644531 229.433594 174.882812 230.058594 C 175.121094 230.683594 175.308594 231.390625 175.449219 232.207031 C 175.585938 233.023438 175.675781 233.890625 175.699219 234.789062 L 169.796875 234.789062 C 169.847656 233.78125 169.949219 232.886719 170.113281 232.070312 M 171.042969 226.28125 C 170.503906 226.828125 170.039062 227.558594 169.648438 228.484375 C 169.257812 229.433594 168.941406 230.523438 168.730469 231.800781 C 168.503906 233.074219 168.402344 234.433594 168.402344 235.847656 C 168.402344 237.394531 168.527344 238.808594 168.765625 240.085938 C 169.019531 241.363281 169.34375 242.476562 169.761719 243.375 C 170.175781 244.296875 170.667969 244.976562 171.234375 245.492188 C 171.785156 245.984375 172.378906 246.253906 173.019531 246.253906 C 173.898438 246.253906 174.628906 245.902344 175.234375 245.222656 C 175.824219 244.542969 176.355469 243.644531 176.820312 242.503906 L 175.964844 240.847656 C 175.585938 241.691406 175.171875 242.367188 174.707031 242.886719 C 174.253906 243.402344 173.699219 243.644531 173.058594 243.644531 C 172.65625 243.644531 172.265625 243.511719 171.898438 243.210938 C 171.535156 242.914062 171.195312 242.476562 170.90625 241.90625 C 170.605469 241.335938 170.363281 240.628906 170.175781 239.789062 C 169.988281 238.945312 169.875 237.996094 169.824219 236.90625 L 177.109375 236.90625 C 177.121094 236.71875 177.121094 236.554688 177.121094 236.417969 L 177.121094 235.984375 C 177.121094 234.515625 177.019531 233.15625 176.832031 231.851562 C 176.644531 230.574219 176.367188 229.460938 175.988281 228.511719 C 175.625 227.558594 175.171875 226.800781 174.628906 226.253906 C 174.101562 225.710938 173.484375 225.441406 172.816406 225.441406 C 172.175781 225.496094 171.574219 225.738281 171.042969 226.28125 "/>
</clipPath>
<linearGradient id="linear8" gradientUnits="userSpaceOnUse" x1="-100.6461" y1="192.6272" x2="-100.2191" y2="192.6272" gradientTransform="matrix(574.612169,-232.96045,-107.873312,-1240.91777,78665.914621,215871.845656)">
<stop offset="0" style="stop-color:rgb(92.156863%,65.882353%,28.627451%);stop-opacity:1;"/>
<stop offset="0.083" style="stop-color:rgb(92.54902%,67.45098%,30.588235%);stop-opacity:1;"/>
<stop offset="0.1965" style="stop-color:rgb(93.72549%,72.941176%,36.470588%);stop-opacity:1;"/>
<stop offset="0.3271" style="stop-color:rgb(95.294118%,81.568627%,45.882353%);stop-opacity:1;"/>
<stop offset="0.4553" style="stop-color:rgb(97.647059%,92.156863%,57.254902%);stop-opacity:1;"/>
<stop offset="1" style="stop-color:rgb(92.941176%,68.627451%,23.137255%);stop-opacity:1;"/>
</linearGradient>
<clipPath id="clip19">
  <path d="M 184 225 L 192 225 L 192 247 L 184 247 Z M 184 225 "/>
</clipPath>
<clipPath id="clip20">
  <path d="M 186.417969 225.957031 C 186.03125 226.226562 185.703125 226.609375 185.425781 227.097656 C 185.148438 227.585938 184.933594 228.210938 184.769531 228.917969 C 184.621094 229.625 184.546875 230.414062 184.546875 231.253906 L 184.546875 231.335938 C 184.546875 232.261719 184.632812 233.023438 184.820312 233.648438 C 185.011719 234.273438 185.238281 234.789062 185.539062 235.195312 C 185.828125 235.601562 186.15625 235.957031 186.519531 236.199219 C 186.886719 236.472656 187.238281 236.71875 187.601562 236.960938 C 187.890625 237.152344 188.179688 237.34375 188.46875 237.53125 C 188.746094 237.75 189 237.96875 189.214844 238.238281 C 189.425781 238.511719 189.589844 238.808594 189.714844 239.191406 C 189.84375 239.542969 189.90625 239.976562 189.90625 240.46875 L 189.90625 240.546875 C 189.90625 241.527344 189.730469 242.289062 189.375 242.859375 C 189.023438 243.429688 188.558594 243.699219 188.003906 243.699219 C 187.464844 243.699219 186.910156 243.484375 186.371094 243.046875 C 185.828125 242.613281 185.3125 241.988281 184.808594 241.171875 L 184.117188 243.292969 C 184.644531 244.191406 185.238281 244.894531 185.917969 245.4375 C 186.597656 245.957031 187.261719 246.226562 187.929688 246.226562 C 188.394531 246.226562 188.824219 246.089844 189.226562 245.820312 C 189.628906 245.546875 189.96875 245.167969 190.257812 244.652344 C 190.546875 244.136719 190.773438 243.511719 190.949219 242.777344 C 191.125 242.042969 191.214844 241.199219 191.214844 240.25 L 191.214844 240.167969 C 191.214844 239.269531 191.125 238.511719 190.949219 237.886719 C 190.773438 237.261719 190.546875 236.746094 190.257812 236.308594 C 189.96875 235.875 189.652344 235.519531 189.300781 235.222656 C 188.949219 234.949219 188.597656 234.679688 188.246094 234.460938 C 187.929688 234.273438 187.640625 234.054688 187.351562 233.835938 C 187.0625 233.621094 186.808594 233.402344 186.597656 233.15625 C 186.371094 232.914062 186.207031 232.585938 186.066406 232.261719 C 185.941406 231.90625 185.867188 231.5 185.867188 231.039062 L 185.867188 230.957031 C 185.867188 230.140625 186.03125 229.460938 186.34375 228.890625 C 186.671875 228.347656 187.097656 228.078125 187.652344 228.078125 C 188.105469 228.078125 188.558594 228.238281 189.035156 228.59375 C 189.503906 228.945312 189.957031 229.40625 190.382812 230.003906 L 191.011719 227.777344 C 190.535156 227.125 190.003906 226.582031 189.425781 226.175781 C 188.847656 225.765625 188.269531 225.578125 187.703125 225.578125 C 187.226562 225.550781 186.808594 225.683594 186.417969 225.957031 "/>
</clipPath>
<linearGradient id="linear9" gradientUnits="userSpaceOnUse" x1="-100.6461" y1="192.6334" x2="-100.2191" y2="192.6334" gradientTransform="matrix(574.612169,-232.96045,-107.873312,-1240.91777,78667.094214,215885.431891)">
<stop offset="0" style="stop-color:rgb(92.156863%,65.882353%,28.627451%);stop-opacity:1;"/>
<stop offset="0.083" style="stop-color:rgb(92.54902%,67.45098%,30.588235%);stop-opacity:1;"/>
<stop offset="0.1965" style="stop-color:rgb(93.72549%,72.941176%,36.470588%);stop-opacity:1;"/>
<stop offset="0.3271" style="stop-color:rgb(95.294118%,81.568627%,45.882353%);stop-opacity:1;"/>
<stop offset="0.4553" style="stop-color:rgb(97.647059%,92.156863%,57.254902%);stop-opacity:1;"/>
<stop offset="1" style="stop-color:rgb(92.941176%,68.627451%,23.137255%);stop-opacity:1;"/>
</linearGradient>
<clipPath id="clip21">
  <path d="M 193 225 L 202 225 L 202 247 L 193 247 Z M 193 225 "/>
</clipPath>
<clipPath id="clip22">
  <path d="M 194.886719 232.070312 C 195.050781 231.253906 195.265625 230.550781 195.53125 229.925781 C 195.78125 229.324219 196.082031 228.835938 196.433594 228.511719 C 196.773438 228.15625 197.152344 227.996094 197.554688 227.996094 C 198.019531 227.996094 198.421875 228.183594 198.777344 228.566406 C 199.128906 228.945312 199.417969 229.433594 199.65625 230.058594 C 199.894531 230.683594 200.085938 231.390625 200.222656 232.207031 C 200.359375 233.023438 200.449219 233.890625 200.472656 234.789062 L 194.574219 234.789062 C 194.625 233.78125 194.722656 232.886719 194.886719 232.070312 M 195.804688 226.28125 C 195.265625 226.828125 194.800781 227.558594 194.410156 228.484375 C 194.019531 229.433594 193.703125 230.523438 193.492188 231.800781 C 193.265625 233.074219 193.164062 234.433594 193.164062 235.847656 C 193.164062 237.394531 193.289062 238.808594 193.527344 240.085938 C 193.78125 241.363281 194.109375 242.476562 194.523438 243.375 C 194.9375 244.296875 195.429688 244.976562 195.996094 245.492188 C 196.546875 245.984375 197.140625 246.253906 197.78125 246.253906 C 198.664062 246.253906 199.390625 245.902344 199.996094 245.222656 C 200.585938 244.542969 201.117188 243.644531 201.582031 242.503906 L 200.726562 240.847656 C 200.347656 241.691406 199.933594 242.367188 199.46875 242.886719 C 199.015625 243.402344 198.460938 243.644531 197.820312 243.644531 C 197.417969 243.644531 197.027344 243.511719 196.660156 243.210938 C 196.296875 242.914062 195.957031 242.476562 195.667969 241.90625 C 195.367188 241.335938 195.125 240.628906 194.9375 239.789062 C 194.75 238.945312 194.636719 237.996094 194.585938 236.90625 L 201.871094 236.90625 C 201.882812 236.71875 201.882812 236.554688 201.882812 236.417969 L 201.882812 235.984375 C 201.882812 234.515625 201.796875 233.15625 201.59375 231.851562 C 201.40625 230.574219 201.128906 229.460938 200.75 228.511719 C 200.386719 227.558594 199.933594 226.800781 199.390625 226.253906 C 198.863281 225.710938 198.246094 225.441406 197.582031 225.441406 C 196.9375 225.496094 196.347656 225.738281 195.804688 226.28125 "/>
</clipPath>
<linearGradient id="linear10" gradientUnits="userSpaceOnUse" x1="-100.6461" y1="192.6376" x2="-100.2191" y2="192.6376" gradientTransform="matrix(574.612169,-232.96045,-107.873312,-1240.91777,78667.890549,215894.581405)">
<stop offset="0" style="stop-color:rgb(92.156863%,65.882353%,28.627451%);stop-opacity:1;"/>
<stop offset="0.083" style="stop-color:rgb(92.54902%,67.45098%,30.588235%);stop-opacity:1;"/>
<stop offset="0.1965" style="stop-color:rgb(93.72549%,72.941176%,36.470588%);stop-opacity:1;"/>
<stop offset="0.3271" style="stop-color:rgb(95.294118%,81.568627%,45.882353%);stop-opacity:1;"/>
<stop offset="0.4553" style="stop-color:rgb(97.647059%,92.156863%,57.254902%);stop-opacity:1;"/>
<stop offset="1" style="stop-color:rgb(92.941176%,68.627451%,23.137255%);stop-opacity:1;"/>
</linearGradient>
<clipPath id="clip23">
  <path d="M 204 225 L 210 225 L 210 246 L 204 246 Z M 204 225 "/>
</clipPath>
<clipPath id="clip24">
  <path d="M 208.1875 225.902344 C 207.808594 226.148438 207.457031 226.527344 207.128906 227.042969 C 206.816406 227.53125 206.527344 228.128906 206.273438 228.835938 C 206.023438 229.515625 205.820312 230.277344 205.644531 231.121094 L 205.644531 225.929688 L 204.273438 225.929688 L 204.273438 245.820312 L 205.644531 245.820312 L 205.644531 237.886719 C 205.644531 236.390625 205.746094 235.085938 205.933594 233.945312 C 206.125 232.804688 206.386719 231.851562 206.714844 231.066406 C 207.054688 230.304688 207.433594 229.707031 207.886719 229.324219 C 208.324219 228.945312 208.804688 228.753906 209.308594 228.753906 L 209.421875 228.753906 L 209.421875 225.550781 C 209.382812 225.550781 209.34375 225.550781 209.308594 225.550781 C 208.90625 225.550781 208.539062 225.683594 208.1875 225.902344 "/>
</clipPath>
<linearGradient id="linear11" gradientUnits="userSpaceOnUse" x1="-100.6461" y1="192.6401" x2="-100.2191" y2="192.6401" gradientTransform="matrix(574.612169,-232.96045,-107.873312,-1240.91777,78668.460655,215901.141111)">
<stop offset="0" style="stop-color:rgb(92.156863%,65.882353%,28.627451%);stop-opacity:1;"/>
<stop offset="0.083" style="stop-color:rgb(92.54902%,67.45098%,30.588235%);stop-opacity:1;"/>
<stop offset="0.1965" style="stop-color:rgb(93.72549%,72.941176%,36.470588%);stop-opacity:1;"/>
<stop offset="0.3271" style="stop-color:rgb(95.294118%,81.568627%,45.882353%);stop-opacity:1;"/>
<stop offset="0.4553" style="stop-color:rgb(97.647059%,92.156863%,57.254902%);stop-opacity:1;"/>
<stop offset="1" style="stop-color:rgb(92.941176%,68.627451%,23.137255%);stop-opacity:1;"/>
</linearGradient>
<clipPath id="clip25">
  <path d="M 210 225 L 220 225 L 220 246 L 210 246 Z M 210 225 "/>
</clipPath>
<clipPath id="clip26">
  <path d="M 218.328125 225.902344 L 215.207031 242.421875 L 212.113281 225.902344 L 210.589844 225.902344 L 214.589844 245.957031 L 215.800781 245.957031 L 219.8125 225.902344 Z M 218.328125 225.902344 "/>
</clipPath>
<linearGradient id="linear12" gradientUnits="userSpaceOnUse" x1="-100.6461" y1="192.6435" x2="-100.2191" y2="192.6435" gradientTransform="matrix(574.612169,-232.96045,-107.873312,-1240.91777,78669.133935,215908.868146)">
<stop offset="0" style="stop-color:rgb(92.156863%,65.882353%,28.627451%);stop-opacity:1;"/>
<stop offset="0.083" style="stop-color:rgb(92.54902%,67.45098%,30.588235%);stop-opacity:1;"/>
<stop offset="0.1965" style="stop-color:rgb(93.72549%,72.941176%,36.470588%);stop-opacity:1;"/>
<stop offset="0.3271" style="stop-color:rgb(95.294118%,81.568627%,45.882353%);stop-opacity:1;"/>
<stop offset="0.4553" style="stop-color:rgb(97.647059%,92.156863%,57.254902%);stop-opacity:1;"/>
<stop offset="1" style="stop-color:rgb(92.941176%,68.627451%,23.137255%);stop-opacity:1;"/>
</linearGradient>
<clipPath id="clip27">
  <path d="M 222.003906 218.292969 L 223.574219 218.292969 L 223.574219 221.554688 L 222.003906 221.554688 Z M 222.089844 225.902344 L 223.460938 225.902344 L 223.460938 245.792969 L 222.089844 245.792969 Z M 222.089844 225.902344 "/>
</clipPath>
<linearGradient id="linear13" gradientUnits="userSpaceOnUse" x1="-100.6461" y1="192.6441" x2="-100.2191" y2="192.6441" gradientTransform="matrix(574.612169,-232.96045,-107.873312,-1240.91777,78669.129028,215908.804562)">
<stop offset="0" style="stop-color:rgb(92.156863%,65.882353%,28.627451%);stop-opacity:1;"/>
<stop offset="0.083" style="stop-color:rgb(92.54902%,67.45098%,30.588235%);stop-opacity:1;"/>
<stop offset="0.1965" style="stop-color:rgb(93.72549%,72.941176%,36.470588%);stop-opacity:1;"/>
<stop offset="0.3271" style="stop-color:rgb(95.294118%,81.568627%,45.882353%);stop-opacity:1;"/>
<stop offset="0.4553" style="stop-color:rgb(97.647059%,92.156863%,57.254902%);stop-opacity:1;"/>
<stop offset="1" style="stop-color:rgb(92.941176%,68.627451%,23.137255%);stop-opacity:1;"/>
</linearGradient>
<clipPath id="clip28">
  <path d="M 226 225 L 235 225 L 235 247 L 226 247 Z M 226 225 "/>
</clipPath>
<clipPath id="clip29">
  <path d="M 228.921875 226.308594 C 228.34375 226.851562 227.839844 227.613281 227.425781 228.566406 C 226.996094 229.515625 226.671875 230.628906 226.429688 231.90625 C 226.191406 233.183594 226.078125 234.515625 226.078125 235.929688 C 226.078125 237.34375 226.191406 238.671875 226.429688 239.921875 C 226.671875 241.171875 226.996094 242.289062 227.425781 243.210938 C 227.851562 244.136719 228.34375 244.894531 228.921875 245.4375 C 229.5 245.984375 230.128906 246.253906 230.796875 246.253906 C 231.664062 246.253906 232.394531 245.902344 232.972656 245.167969 C 233.566406 244.433594 234.09375 243.511719 234.546875 242.367188 L 233.679688 240.601562 C 233.3125 241.445312 232.898438 242.152344 232.445312 242.722656 C 231.992188 243.292969 231.464844 243.566406 230.875 243.566406 C 230.382812 243.566406 229.941406 243.375 229.527344 242.964844 C 229.113281 242.558594 228.757812 242.015625 228.457031 241.308594 C 228.15625 240.601562 227.917969 239.789062 227.738281 238.835938 C 227.5625 237.886719 227.476562 236.878906 227.476562 235.792969 C 227.476562 234.707031 227.550781 233.726562 227.726562 232.777344 C 227.890625 231.851562 228.128906 231.011719 228.417969 230.332031 C 228.722656 229.625 229.0625 229.082031 229.476562 228.675781 C 229.878906 228.265625 230.320312 228.078125 230.773438 228.078125 C 231.402344 228.078125 231.929688 228.375 232.371094 228.945312 C 232.796875 229.542969 233.199219 230.25 233.578125 231.066406 L 234.484375 229 C 234.269531 228.511719 234.042969 228.050781 233.792969 227.613281 C 233.539062 227.179688 233.265625 226.800781 232.972656 226.472656 C 232.671875 226.148438 232.34375 225.902344 231.992188 225.710938 C 231.640625 225.523438 231.238281 225.441406 230.796875 225.441406 C 230.128906 225.496094 229.5 225.765625 228.921875 226.308594 "/>
</clipPath>
<linearGradient id="linear14" gradientUnits="userSpaceOnUse" x1="-100.6461" y1="192.6517" x2="-100.2191" y2="192.6517" gradientTransform="matrix(574.612169,-232.96045,-107.873312,-1240.91777,78670.529818,215924.917022)">
<stop offset="0" style="stop-color:rgb(92.156863%,65.882353%,28.627451%);stop-opacity:1;"/>
<stop offset="0.083" style="stop-color:rgb(92.54902%,67.45098%,30.588235%);stop-opacity:1;"/>
<stop offset="0.1965" style="stop-color:rgb(93.72549%,72.941176%,36.470588%);stop-opacity:1;"/>
<stop offset="0.3271" style="stop-color:rgb(95.294118%,81.568627%,45.882353%);stop-opacity:1;"/>
<stop offset="0.4553" style="stop-color:rgb(97.647059%,92.156863%,57.254902%);stop-opacity:1;"/>
<stop offset="1" style="stop-color:rgb(92.941176%,68.627451%,23.137255%);stop-opacity:1;"/>
</linearGradient>
<clipPath id="clip30">
  <path d="M 235 225 L 245 225 L 245 247 L 235 247 Z M 235 225 "/>
</clipPath>
<clipPath id="clip31">
  <path d="M 237.71875 232.070312 C 237.882812 231.253906 238.09375 230.550781 238.359375 229.925781 C 238.625 229.324219 238.914062 228.835938 239.265625 228.511719 C 239.605469 228.15625 239.984375 227.996094 240.386719 227.996094 C 240.851562 227.996094 241.253906 228.183594 241.59375 228.566406 C 241.945312 228.945312 242.234375 229.433594 242.472656 230.058594 C 242.714844 230.683594 242.902344 231.390625 243.039062 232.207031 C 243.179688 233.023438 243.265625 233.890625 243.292969 234.789062 L 237.390625 234.789062 C 237.441406 233.78125 237.554688 232.886719 237.71875 232.070312 M 238.636719 226.28125 C 238.09375 226.828125 237.628906 227.558594 237.238281 228.484375 C 236.851562 229.433594 236.546875 230.523438 236.320312 231.800781 C 236.09375 233.074219 235.992188 234.433594 235.992188 235.847656 C 235.992188 237.394531 236.121094 238.808594 236.359375 240.085938 C 236.609375 241.363281 236.9375 242.476562 237.351562 243.375 C 237.769531 244.296875 238.257812 244.976562 238.824219 245.492188 C 239.378906 245.984375 239.96875 246.253906 240.613281 246.253906 C 241.492188 246.253906 242.222656 245.902344 242.828125 245.222656 C 243.417969 244.542969 243.945312 243.644531 244.410156 242.503906 L 243.554688 240.847656 C 243.179688 241.691406 242.761719 242.367188 242.296875 242.886719 C 241.84375 243.402344 241.292969 243.644531 240.648438 243.644531 C 240.246094 243.644531 239.855469 243.511719 239.492188 243.210938 C 239.128906 242.914062 238.789062 242.476562 238.496094 241.90625 C 238.195312 241.335938 237.957031 240.628906 237.769531 239.789062 C 237.578125 238.945312 237.464844 237.996094 237.414062 236.90625 L 244.699219 236.90625 C 244.714844 236.71875 244.714844 236.554688 244.714844 236.417969 L 244.714844 235.984375 C 244.714844 234.515625 244.613281 233.15625 244.425781 231.851562 C 244.234375 230.574219 243.957031 229.460938 243.582031 228.511719 C 243.214844 227.558594 242.761719 226.800781 242.222656 226.253906 C 241.695312 225.710938 241.078125 225.441406 240.398438 225.441406 C 239.769531 225.496094 239.175781 225.738281 238.636719 226.28125 "/>
</clipPath>
<linearGradient id="linear15" gradientUnits="userSpaceOnUse" x1="-100.6461" y1="192.6558" x2="-100.2191" y2="192.6558" gradientTransform="matrix(574.612169,-232.96045,-107.873312,-1240.91777,78671.306399,215933.854047)">
<stop offset="0" style="stop-color:rgb(92.156863%,65.882353%,28.627451%);stop-opacity:1;"/>
<stop offset="0.083" style="stop-color:rgb(92.54902%,67.45098%,30.588235%);stop-opacity:1;"/>
<stop offset="0.1965" style="stop-color:rgb(93.72549%,72.941176%,36.470588%);stop-opacity:1;"/>
<stop offset="0.3271" style="stop-color:rgb(95.294118%,81.568627%,45.882353%);stop-opacity:1;"/>
<stop offset="0.4553" style="stop-color:rgb(97.647059%,92.156863%,57.254902%);stop-opacity:1;"/>
<stop offset="1" style="stop-color:rgb(92.941176%,68.627451%,23.137255%);stop-opacity:1;"/>
</linearGradient>
<clipPath id="clip32">
  <path d="M 246 225 L 254 225 L 254 247 L 246 247 Z M 246 225 "/>
</clipPath>
<clipPath id="clip33">
  <path d="M 248.675781 225.957031 C 248.285156 226.226562 247.960938 226.609375 247.683594 227.097656 C 247.40625 227.585938 247.191406 228.210938 247.027344 228.917969 C 246.878906 229.625 246.800781 230.414062 246.800781 231.253906 L 246.800781 231.335938 C 246.800781 232.261719 246.890625 233.023438 247.078125 233.648438 C 247.269531 234.273438 247.496094 234.789062 247.796875 235.195312 C 248.085938 235.601562 248.414062 235.957031 248.777344 236.199219 C 249.144531 236.472656 249.496094 236.71875 249.859375 236.960938 C 250.148438 237.152344 250.4375 237.34375 250.726562 237.53125 C 251.003906 237.75 251.257812 237.96875 251.46875 238.238281 C 251.683594 238.511719 251.847656 238.808594 251.972656 239.191406 C 252.097656 239.542969 252.164062 239.976562 252.164062 240.46875 L 252.164062 240.546875 C 252.164062 241.527344 251.984375 242.289062 251.632812 242.859375 C 251.28125 243.429688 250.816406 243.699219 250.261719 243.699219 C 249.722656 243.699219 249.167969 243.484375 248.625 243.046875 C 248.085938 242.613281 247.570312 241.988281 247.066406 241.171875 L 246.375 243.292969 C 246.902344 244.191406 247.496094 244.894531 248.171875 245.4375 C 248.851562 245.957031 249.519531 246.226562 250.1875 246.226562 C 250.652344 246.226562 251.082031 246.089844 251.484375 245.820312 C 251.886719 245.546875 252.226562 245.167969 252.515625 244.652344 C 252.804688 244.136719 253.042969 243.511719 253.207031 242.777344 C 253.382812 242.042969 253.457031 241.199219 253.457031 240.25 L 253.457031 240.167969 C 253.457031 239.269531 253.371094 238.511719 253.207031 237.886719 C 253.03125 237.261719 252.804688 236.746094 252.515625 236.308594 C 252.226562 235.875 251.910156 235.519531 251.558594 235.222656 C 251.207031 234.949219 250.855469 234.679688 250.5 234.460938 C 250.1875 234.273438 249.898438 234.054688 249.609375 233.835938 C 249.320312 233.621094 249.066406 233.402344 248.851562 233.15625 C 248.625 232.914062 248.464844 232.585938 248.324219 232.261719 C 248.199219 231.90625 248.125 231.5 248.125 231.039062 L 248.125 230.957031 C 248.125 230.140625 248.285156 229.460938 248.601562 228.890625 C 248.917969 228.347656 249.355469 228.078125 249.898438 228.078125 C 250.351562 228.078125 250.804688 228.238281 251.28125 228.59375 C 251.746094 228.945312 252.199219 229.40625 252.628906 230.003906 L 253.257812 227.777344 C 252.777344 227.125 252.25 226.582031 251.671875 226.175781 C 251.09375 225.765625 250.515625 225.578125 249.949219 225.578125 C 249.480469 225.550781 249.054688 225.683594 248.675781 225.957031 "/>
</clipPath>
<linearGradient id="linear16" gradientUnits="userSpaceOnUse" x1="-100.6461" y1="192.6598" x2="-100.2191" y2="192.6598" gradientTransform="matrix(574.612169,-232.96045,-107.873312,-1240.91777,78672.058445,215942.536738)">
<stop offset="0" style="stop-color:rgb(92.156863%,65.882353%,28.627451%);stop-opacity:1;"/>
<stop offset="0.083" style="stop-color:rgb(92.54902%,67.45098%,30.588235%);stop-opacity:1;"/>
<stop offset="0.1965" style="stop-color:rgb(93.72549%,72.941176%,36.470588%);stop-opacity:1;"/>
<stop offset="0.3271" style="stop-color:rgb(95.294118%,81.568627%,45.882353%);stop-opacity:1;"/>
<stop offset="0.4553" style="stop-color:rgb(97.647059%,92.156863%,57.254902%);stop-opacity:1;"/>
<stop offset="1" style="stop-color:rgb(92.941176%,68.627451%,23.137255%);stop-opacity:1;"/>
</linearGradient>
<clipPath id="clip34">
  <path d="M 2 3 L 81 3 L 81 250 L 2 250 Z M 2 3 "/>
</clipPath>
<clipPath id="clip35">
  <path d="M 2.554688 7 C 2.578125 54.824219 2.59375 102.675781 2.640625 150.5 C 2.65625 158.785156 2.71875 167.074219 2.933594 175.335938 C 3.183594 185.28125 4.71875 194.492188 6.820312 203.320312 C 9.210938 213.375 12.332031 222.234375 16.457031 229.324219 C 16.484375 229.324219 16.519531 229.300781 16.558594 229.300781 C 16.660156 229.273438 16.746094 229.21875 16.847656 229.164062 C 16.847656 226.148438 16.847656 223.105469 16.847656 220.085938 C 16.859375 202.75 16.886719 185.414062 16.835938 168.105469 C 16.808594 159.085938 17.363281 150.5 19.363281 142.402344 C 23.339844 126.261719 29.457031 116.207031 37.871094 113.871094 C 43.394531 112.347656 48.769531 114.085938 53.613281 120.148438 C 54.179688 120.855469 54.746094 121.613281 55.285156 122.429688 C 61.503906 131.75 64.988281 144.65625 65.753906 160.632812 C 66.296875 171.746094 65.300781 182.535156 62.597656 192.316406 C 58.734375 206.257812 52.984375 214.488281 45.484375 217.859375 L 45.484375 124.359375 C 42.957031 124.359375 40.488281 123.761719 38.113281 124.550781 C 35.707031 125.335938 33.40625 127.484375 31.054688 129.03125 C 31.078125 130.121094 31.089844 131.234375 31.117188 132.292969 C 31.242188 139.140625 31.34375 145.554688 31.417969 151.558594 C 32.109375 205.605469 31.128906 227.042969 31.117188 242.585938 C 31.117188 243.457031 31.054688 244.351562 31.003906 245.222656 C 31.027344 245.4375 31.054688 245.65625 31.078125 245.875 C 36.855469 250.25 42.742188 250.304688 48.65625 247.777344 C 59.855469 242.992188 68.675781 230.386719 74.652344 209.492188 C 79.09375 193.949219 80.992188 176.992188 80.175781 158.597656 C 79.722656 148.351562 78.640625 138.570312 76.550781 129.46875 C 75.179688 123.488281 73.582031 118.027344 71.757812 113.164062 C 71.679688 112.972656 71.617188 112.785156 71.542969 112.59375 L 71.566406 80.148438 L 71.292969 78.136719 L 70.664062 76.5625 L 57.136719 60.449219 L 57.097656 63.140625 L 57.097656 89.46875 C 55.816406 88.300781 54.480469 87.269531 53.109375 86.34375 C 50.667969 84.742188 48.128906 83.816406 45.523438 82.539062 L 45.523438 64.253906 C 45.523438 63.195312 45.523438 62.132812 45.523438 61.101562 C 45.523438 60.148438 45.523438 59.199219 45.523438 58.277344 L 45.523438 55.125 C 45.523438 53.929688 45.523438 52.785156 45.511719 51.753906 C 45.511719 50.207031 45.496094 48.875 45.496094 47.839844 C 45.496094 47.214844 45.382812 46.484375 45.222656 45.832031 C 45.058594 45.179688 44.832031 44.582031 44.589844 44.253906 C 43.773438 43.167969 42.945312 42.109375 42.113281 41.074219 C 40.199219 38.683594 38.261719 36.347656 36.324219 34.039062 C 35.332031 32.84375 34.3125 31.699219 33.292969 30.585938 C 32.550781 29.746094 31.796875 28.929688 31.054688 28.113281 C 31.039062 28.332031 31.027344 28.574219 31.015625 28.820312 C 31.015625 30.316406 31.027344 31.808594 31.039062 33.277344 C 31.078125 39.988281 31.128906 46.671875 31.117188 53.382812 C 31.117188 55.285156 31.117188 57.160156 31.101562 59.0625 C 31.101562 63.328125 31.078125 67.621094 31.066406 71.890625 C 31.054688 72.703125 31.054688 73.546875 31.054688 74.363281 L 31.039062 77.730469 C 31.039062 78.300781 31.039062 78.84375 31.039062 79.414062 C 31.039062 80.585938 31.039062 81.753906 31.027344 82.921875 C 31.015625 83.601562 30.585938 85.554688 30.375 85.71875 C 25.628906 88.980469 21.289062 93.925781 17.3125 100.339844 C 17.175781 100.527344 17.050781 100.71875 16.910156 100.910156 L 16.949219 101.019531 C 16.886719 101.152344 16.824219 101.289062 16.746094 101.425781 C 16.734375 101.234375 16.710938 101.042969 16.683594 100.855469 C 16.660156 77.324219 16.507812 53.792969 16.683594 30.261719 C 16.683594 29.824219 16.984375 22.652344 15.601562 20.261719 C 15.5 20.097656 14.671875 18.738281 13.476562 17.273438 C 13.171875 16.890625 12.945312 16.648438 12.882812 16.59375 C 12.078125 15.722656 9.386719 12.460938 2.566406 3.984375 L 2.566406 7 Z M 2.554688 7 "/>
</clipPath>
<linearGradient id="linear17" gradientUnits="userSpaceOnUse" x1="-100.1773" y1="194.0159" x2="-99.7503" y2="194.0159" gradientTransform="matrix(-350.017906,-862.999532,-399.615547,755.889734,42562.975468,-232849.008111)">
<stop offset="0" style="stop-color:rgb(92.156863%,65.882353%,28.627451%);stop-opacity:1;"/>
<stop offset="0.083" style="stop-color:rgb(92.54902%,67.45098%,30.588235%);stop-opacity:1;"/>
<stop offset="0.1965" style="stop-color:rgb(93.72549%,72.941176%,36.470588%);stop-opacity:1;"/>
<stop offset="0.3271" style="stop-color:rgb(95.294118%,81.568627%,45.882353%);stop-opacity:1;"/>
<stop offset="0.4553" style="stop-color:rgb(97.647059%,92.156863%,57.254902%);stop-opacity:1;"/>
<stop offset="1" style="stop-color:rgb(92.941176%,68.627451%,23.137255%);stop-opacity:1;"/>
</linearGradient>
<clipPath id="clip36">
  <path d="M 93 90 L 146 90 L 146 210 L 93 210 Z M 93 90 "/>
</clipPath>
<clipPath id="clip37">
  <path d="M 108.371094 119.550781 L 114.613281 119.550781 C 123.785156 119.550781 129.875 130.636719 129.875 149.765625 L 129.875 150.117188 C 129.875 169.410156 123.785156 180.335938 114.613281 180.335938 L 108.371094 180.335938 Z M 93.035156 90.203125 L 93.035156 209.707031 L 114.058594 209.707031 C 133.976562 209.707031 145.601562 184.109375 145.601562 149.601562 L 145.601562 149.25 C 145.601562 114.765625 134.140625 90.175781 114.375 90.175781 L 93.035156 90.175781 Z M 93.035156 90.203125 "/>
</clipPath>
<linearGradient id="linear18" gradientUnits="userSpaceOnUse" x1="-100.3968" y1="196.7139" x2="-99.9697" y2="196.7139" gradientTransform="matrix(-100.052138,-246.687166,-114.229525,216.070043,12562.550375,-67077.212242)">
<stop offset="0" style="stop-color:rgb(92.156863%,65.882353%,28.627451%);stop-opacity:1;"/>
<stop offset="0.083" style="stop-color:rgb(92.54902%,67.45098%,30.588235%);stop-opacity:1;"/>
<stop offset="0.1965" style="stop-color:rgb(93.72549%,72.941176%,36.470588%);stop-opacity:1;"/>
<stop offset="0.3271" style="stop-color:rgb(95.294118%,81.568627%,45.882353%);stop-opacity:1;"/>
<stop offset="0.4553" style="stop-color:rgb(97.647059%,92.156863%,57.254902%);stop-opacity:1;"/>
<stop offset="1" style="stop-color:rgb(92.941176%,68.627451%,23.137255%);stop-opacity:1;"/>
</linearGradient>
<clipPath id="clip38">
  <path d="M 151 88 L 196 88 L 196 210 L 151 210 Z M 151 88 "/>
</clipPath>
<clipPath id="clip39">
  <path d="M 151.542969 113.761719 L 161.898438 132.375 C 166.25 121.613281 169.167969 117.023438 172.882812 117.023438 C 176.59375 117.023438 179.046875 121.640625 179.046875 129.140625 C 179.046875 136.316406 177.070312 141.941406 171.9375 150.660156 L 151.226562 184.816406 L 151.226562 209.734375 L 195.027344 209.734375 L 195.027344 182.753906 L 172.175781 182.753906 L 181.664062 168.40625 C 189.878906 155.605469 194.472656 145.6875 194.472656 126.585938 L 194.472656 126.234375 C 194.472656 103.707031 186.167969 88.164062 174.078125 88.164062 C 163.320312 88.136719 157.46875 97.1875 151.542969 113.761719 "/>
</clipPath>
<linearGradient id="linear19" gradientUnits="userSpaceOnUse" x1="-100.0062" y1="197.2194" x2="-99.5792" y2="197.2194" gradientTransform="matrix(-97.131151,-239.485375,-110.894706,209.761954,12353.436776,-65112.393256)">
<stop offset="0" style="stop-color:rgb(92.156863%,65.882353%,28.627451%);stop-opacity:1;"/>
<stop offset="0.083" style="stop-color:rgb(92.54902%,67.45098%,30.588235%);stop-opacity:1;"/>
<stop offset="0.1965" style="stop-color:rgb(93.72549%,72.941176%,36.470588%);stop-opacity:1;"/>
<stop offset="0.3271" style="stop-color:rgb(95.294118%,81.568627%,45.882353%);stop-opacity:1;"/>
<stop offset="0.4553" style="stop-color:rgb(97.647059%,92.156863%,57.254902%);stop-opacity:1;"/>
<stop offset="1" style="stop-color:rgb(92.941176%,68.627451%,23.137255%);stop-opacity:1;"/>
</linearGradient>
<clipPath id="clip40">
  <path d="M 202 90 L 253 90 L 253 210 L 202 210 Z M 202 90 "/>
</clipPath>
<clipPath id="clip41">
  <path d="M 217.789062 161.042969 L 229.488281 161.042969 C 234.621094 161.042969 237 165.308594 237 171.800781 L 237 172.15625 C 237 179.164062 234.308594 183.078125 229.652344 183.078125 L 217.800781 183.078125 L 217.800781 161.042969 Z M 217.789062 116.832031 L 227.738281 116.832031 C 232.320312 116.832031 234.699219 120.582031 234.699219 127.074219 L 234.699219 127.429688 C 234.699219 134.441406 232.09375 137.835938 227.425781 137.835938 L 217.789062 137.835938 Z M 202.839844 90.203125 L 202.839844 209.707031 L 231.375 209.707031 C 244.574219 209.707031 252.324219 197.234375 252.324219 176.746094 L 252.324219 176.394531 C 252.324219 160.171875 248.0625 151.992188 241.339844 147.210938 C 246.25 142.589844 249.886719 134.414062 249.886719 120.582031 L 249.886719 120.230469 C 249.886719 112.023438 248.539062 105.71875 246.324219 100.9375 C 243.078125 93.925781 238.183594 90.175781 231.226562 90.175781 L 202.839844 90.175781 Z M 202.839844 90.203125 "/>
</clipPath>
<linearGradient id="linear20" gradientUnits="userSpaceOnUse" x1="-99.747" y1="197.2829" x2="-99.32" y2="197.2829" gradientTransform="matrix(-104.28974,-257.135524,-119.067681,225.221459,13335.094104,-69881.416526)">
<stop offset="0" style="stop-color:rgb(92.156863%,65.882353%,28.627451%);stop-opacity:1;"/>
<stop offset="0.083" style="stop-color:rgb(92.54902%,67.45098%,30.588235%);stop-opacity:1;"/>
<stop offset="0.1965" style="stop-color:rgb(93.72549%,72.941176%,36.470588%);stop-opacity:1;"/>
<stop offset="0.3271" style="stop-color:rgb(95.294118%,81.568627%,45.882353%);stop-opacity:1;"/>
<stop offset="0.4553" style="stop-color:rgb(97.647059%,92.156863%,57.254902%);stop-opacity:1;"/>
<stop offset="1" style="stop-color:rgb(92.941176%,68.627451%,23.137255%);stop-opacity:1;"/>
</linearGradient>
</defs>
<g id="surface1">
<g clip-path="url(#clip1)" clip-rule="nonzero">
<g clip-path="url(#clip2)" clip-rule="nonzero">
<path style=" stroke:none;fill-rule:nonzero;fill:url(#linear0);" d="M 90.71875 226.203125 L 100.660156 222.152344 L 102.695312 245.546875 L 92.757812 249.597656 Z M 90.71875 226.203125 "/>
</g>
</g>
<g clip-path="url(#clip3)" clip-rule="nonzero">
<g clip-path="url(#clip4)" clip-rule="nonzero">
<path style=" stroke:none;fill-rule:nonzero;fill:url(#linear1);" d="M 100.632812 226.203125 L 111.65625 221.71875 L 113.730469 245.546875 L 102.710938 250.03125 Z M 100.632812 226.203125 "/>
</g>
</g>
<g clip-path="url(#clip5)" clip-rule="nonzero">
<g clip-path="url(#clip6)" clip-rule="nonzero">
<path style=" stroke:none;fill-rule:nonzero;fill:url(#linear2);" d="M 112.761719 226.253906 L 119.417969 223.539062 L 121.292969 245.113281 L 114.636719 247.804688 Z M 112.761719 226.253906 "/>
</g>
</g>
<g clip-path="url(#clip7)" clip-rule="nonzero">
<g clip-path="url(#clip8)" clip-rule="nonzero">
<path style=" stroke:none;fill-rule:nonzero;fill:url(#linear3);" d="M 119.457031 226.390625 L 130.667969 221.828125 L 133.210938 251.0625 L 122 255.601562 Z M 119.457031 226.390625 "/>
</g>
</g>
<g clip-path="url(#clip9)" clip-rule="nonzero">
<g clip-path="url(#clip10)" clip-rule="nonzero">
<path style=" stroke:none;fill-rule:nonzero;fill:url(#linear4);" d="M 131.195312 226.203125 L 142.21875 221.71875 L 144.292969 245.546875 L 133.273438 250.03125 Z M 131.195312 226.203125 "/>
</g>
</g>
<g clip-path="url(#clip11)" clip-rule="nonzero">
<g clip-path="url(#clip12)" clip-rule="nonzero">
<path style=" stroke:none;fill-rule:nonzero;fill:url(#linear5);" d="M 143.324219 226.253906 L 149.980469 223.539062 L 151.855469 245.113281 L 145.199219 247.804688 Z M 143.324219 226.253906 "/>
</g>
</g>
<g clip-path="url(#clip13)" clip-rule="nonzero">
<g clip-path="url(#clip14)" clip-rule="nonzero">
<path style=" stroke:none;fill-rule:nonzero;fill:url(#linear6);" d="M 149.378906 226.335938 L 158.914062 222.480469 L 160.929688 245.519531 L 151.378906 249.40625 Z M 149.378906 226.335938 "/>
</g>
</g>
<g clip-path="url(#clip15)" clip-rule="nonzero">
<g clip-path="url(#clip16)" clip-rule="nonzero">
<path style=" stroke:none;fill-rule:nonzero;fill:url(#linear7);" d="M 159.027344 220.792969 L 166.613281 217.722656 L 169.003906 245.25 L 161.417969 248.347656 Z M 159.027344 220.792969 "/>
</g>
</g>
<g clip-path="url(#clip17)" clip-rule="nonzero">
<g clip-path="url(#clip18)" clip-rule="nonzero">
<path style=" stroke:none;fill-rule:nonzero;fill:url(#linear8);" d="M 166.652344 226.203125 L 176.808594 222.070312 L 178.859375 245.546875 L 168.691406 249.679688 Z M 166.652344 226.203125 "/>
</g>
</g>
<g clip-path="url(#clip19)" clip-rule="nonzero">
<g clip-path="url(#clip20)" clip-rule="nonzero">
<path style=" stroke:none;fill-rule:nonzero;fill:url(#linear9);" d="M 182.355469 226.253906 L 190.949219 222.777344 L 192.925781 245.492188 L 184.332031 248.972656 Z M 182.355469 226.253906 "/>
</g>
</g>
<g clip-path="url(#clip21)" clip-rule="nonzero">
<g clip-path="url(#clip22)" clip-rule="nonzero">
<path style=" stroke:none;fill-rule:nonzero;fill:url(#linear10);" d="M 191.414062 226.203125 L 201.582031 222.070312 L 203.621094 245.546875 L 193.464844 249.679688 Z M 191.414062 226.203125 "/>
</g>
</g>
<g clip-path="url(#clip23)" clip-rule="nonzero">
<g clip-path="url(#clip24)" clip-rule="nonzero">
<path style=" stroke:none;fill-rule:nonzero;fill:url(#linear11);" d="M 202.589844 226.253906 L 209.242188 223.539062 L 211.117188 245.113281 L 204.460938 247.804688 Z M 202.589844 226.253906 "/>
</g>
</g>
<g clip-path="url(#clip25)" clip-rule="nonzero">
<g clip-path="url(#clip26)" clip-rule="nonzero">
<path style=" stroke:none;fill-rule:nonzero;fill:url(#linear12);" d="M 208.917969 226.582031 L 219.5 222.289062 L 221.5 245.277344 L 210.90625 249.570312 Z M 208.917969 226.582031 "/>
</g>
</g>
<g clip-path="url(#clip27)" clip-rule="nonzero">
<path style=" stroke:none;fill-rule:nonzero;fill:url(#linear13);" d="M 219.6875 219.21875 L 223.511719 217.667969 L 225.878906 244.867188 L 222.054688 246.417969 Z M 219.6875 219.21875 "/>
</g>
<g clip-path="url(#clip28)" clip-rule="nonzero">
<g clip-path="url(#clip29)" clip-rule="nonzero">
<path style=" stroke:none;fill-rule:nonzero;fill:url(#linear14);" d="M 224.332031 226.203125 L 234.269531 222.152344 L 236.308594 245.546875 L 226.367188 249.597656 Z M 224.332031 226.203125 "/>
</g>
</g>
<g clip-path="url(#clip30)" clip-rule="nonzero">
<g clip-path="url(#clip31)" clip-rule="nonzero">
<path style=" stroke:none;fill-rule:nonzero;fill:url(#linear15);" d="M 234.246094 226.203125 L 244.410156 222.070312 L 246.449219 245.546875 L 236.285156 249.679688 Z M 234.246094 226.203125 "/>
</g>
</g>
<g clip-path="url(#clip32)" clip-rule="nonzero">
<g clip-path="url(#clip33)" clip-rule="nonzero">
<path style=" stroke:none;fill-rule:nonzero;fill:url(#linear16);" d="M 244.613281 226.253906 L 253.195312 222.777344 L 255.167969 245.492188 L 246.589844 248.972656 Z M 244.613281 226.253906 "/>
</g>
</g>
<g clip-path="url(#clip34)" clip-rule="nonzero">
<g clip-path="url(#clip35)" clip-rule="nonzero">
<path style=" stroke:none;fill-rule:nonzero;fill:url(#linear17);" d="M 36.601562 334.238281 L -53.964844 110.9375 L 46.933594 -79.921875 L 137.5 143.378906 Z M 36.601562 334.238281 "/>
</g>
</g>
<g clip-path="url(#clip36)" clip-rule="nonzero">
<g clip-path="url(#clip37)" clip-rule="nonzero">
<path style=" stroke:none;fill-rule:nonzero;fill:url(#linear18);" d="M 115.859375 265.953125 L 65.617188 142.074219 L 122.789062 33.929688 L 173.03125 157.808594 Z M 115.859375 265.953125 "/>
</g>
</g>
<g clip-path="url(#clip38)" clip-rule="nonzero">
<g clip-path="url(#clip39)" clip-rule="nonzero">
<path style=" stroke:none;fill-rule:nonzero;fill:url(#linear19);" d="M 170.238281 256.582031 L 123.320312 140.90625 L 176 41.265625 L 222.921875 156.9375 Z M 170.238281 256.582031 "/>
</g>
</g>
<g clip-path="url(#clip40)" clip-rule="nonzero">
<g clip-path="url(#clip41)" clip-rule="nonzero">
<path style=" stroke:none;fill-rule:nonzero;fill:url(#linear20);" d="M 224.332031 262.667969 L 175.410156 142.074219 L 230.847656 37.214844 L 279.753906 157.808594 Z M 224.332031 262.667969 "/>
</g>
</g>
</g>
</svg>
